<?xml version="1.0" encoding="utf-8"?>
<!-- Generator: Adobe Illustrator 19.2.1, SVG Export Plug-In . SVG Version: 6.00 Build 0)  -->
<svg version="1.1" id="Layer_1" xmlns="http://www.w3.org/2000/svg" xmlns:xlink="http://www.w3.org/1999/xlink" x="0px" y="0px"
	 viewBox="0 0 100 100" style="enable-background:new 0 0 100 100;" xml:space="preserve">
<style type="text/css">
	.st0{fill:#FFFFFF;}
	.st1{fill:#1F1F1F;}
</style>
<rect x="60.5" y="62.2" class="st0" width="8.5" height="8.5"/>
<path class="st1" d="M88,27.4H12c-0.7,0-1.2,0.5-1.2,1.2v50.7c0,0.7,0.5,1.2,1.2,1.2h32c0.7,0,1.2-0.5,1.2-1.2V61.5h9.6v17.8
	c0,0.7,0.5,1.2,1.2,1.2h32c0.7,0,1.2-0.5,1.2-1.2V28.6C89.2,27.9,88.7,27.4,88,27.4z M68.3,61.4v7.1h-7.1v-7.1H68.3z M61.2,47.8
	v-7.1h7.1v7.1H61.2z M82.9,61.4v7.1h-7.1v-7.1H82.9z M75.9,47.8v-7.1H83v7.1H75.9z M53.6,40.7v7.1h-7.1v-7.1H53.6z M24.2,61.4v7.1
	h-7.1v-7.1H24.2z M16.9,47.8v-7.1H24v7.1H16.9z M38.8,61.4v7.1h-7.1v-7.1H38.8z M31.7,47.8v-7.1h7.1v7.1H31.7z"/>
<path class="st1" d="M59.9,10.9c-1.3,0-2.1,0.6-2.7,1c-0.6,0.5-1.2,0.9-2.5,0.9c-2.6,0-3.9-0.8-3.9-0.8s-0.1,0-0.1-0.1h-0.1
	c-0.1-0.1-0.3-0.1-0.4-0.1l0,0c0,0,0,0-0.1,0s-0.2,0-0.4,0.1h-0.1c0,0,0,0-0.1,0c-0.1,0.1-0.2,0.1-0.3,0.2l0,0
	c-0.1,0.1-0.2,0.2-0.2,0.3v0.1c-0.1,0.1-0.1,0.3-0.1,0.4v7.8v4.4c0,0.7,0.6,1.3,1.3,1.3s1.3-0.6,1.3-1.3v-2.5c0.8,0.2,2,0.4,3.4,0.4
	c2.1,0,3.2-0.8,4-1.3c0.5-0.4,0.8-0.5,1.3-0.5c0.7,0,1.3-0.6,1.3-1.3v-7.8C61.1,11.4,60.6,10.9,59.9,10.9z"/>
</svg>
