<?xml version="1.0" encoding="utf-8"?>
<!-- Generator: Adobe Illustrator 19.2.1, SVG Export Plug-In . SVG Version: 6.00 Build 0)  -->
<svg version="1.1" id="Layer_1" xmlns="http://www.w3.org/2000/svg" xmlns:xlink="http://www.w3.org/1999/xlink" x="0px" y="0px"
	 viewBox="0 0 418.5 106.6" style="enable-background:new 0 0 418.5 106.6;" xml:space="preserve">
<style type="text/css">
	.st0{fill:#FFFFFF;}
	.st1{fill:none;stroke:#FFFFFF;stroke-width:7;stroke-linecap:round;stroke-linejoin:round;stroke-miterlimit:10;}
	.st2{fill:none;stroke:#EBE726;stroke-width:7;stroke-linecap:round;stroke-linejoin:round;stroke-miterlimit:10;}
	.st3{fill:#EE1C4E;}
</style>
<path class="st0" d="M19.7,36.9c-1.2,4-2.7,10-4.7,18.1c-0.5,2.8-0.9,5.6-1.4,8.4c-1,3.5-2.9,5.3-5.6,5.3c-1.7,0-3.1-0.6-4.1-1.7
	c-0.8-1-1.3-2.2-1.3-3.5c0-4,0.9-8.9,2.6-14.7c2.6-8.6,3.9-13.4,4.1-14.4c0.7-3.8,1.4-7.6,2.2-11.4c1.1-5.3,2.3-8.8,3.6-10.5
	S18,9.9,20,9.9c2.3,0,3.9,1.1,5,3.4c1,2.2,2.1,6.6,3.2,13.2c1.1,6.5,2.7,13.4,4.9,20.9C35.9,40,38.6,32,41,23.2l2.1-8.5
	c1.3-3.5,3.4-5.3,6.2-5.3c2.7,0,4.7,2.1,6,6.2c0.5,1.7,1.1,4.8,1.7,9.3c1.4,10.6,3.2,19.6,5.4,27.1c2.2,7.7,3.3,11.8,3.3,12.5
	c0,1.5-0.6,2.7-1.7,3.7c-1.1,0.9-2.3,1.3-3.7,1.3c-2.7,0-4.7-1.9-6-5.8l-2.1-9c-1.2-4.5-2.5-10.9-3.9-19.2c-1.1,3.3-3,8.5-5.5,15.6
	l-2.2,6.8c-0.9,2.7-1.9,4.9-2.9,6.7c-1.3,2.3-3.1,3.5-5.5,3.5c-2.3,0-4.1-1.4-5.4-4.1l-2.1-6.9C22.9,50.5,21.2,43.8,19.7,36.9z"/>
<path class="st0" d="M107.9,34.8c-2.7,5.6-7,14.5-12.8,26.5c-3.2,6.5-5.6,11.8-7.2,16.1c-0.5,1.5-1.3,3.8-2.5,6.8
	c-0.9,2.3-2.5,3.5-4.8,3.5c-1.4,0-2.7-0.5-3.7-1.4c-1.1-0.9-1.6-2.1-1.6-3.5c0-2.3,2.6-9.1,7.9-20.5c-2.7-5.4-7-13.3-13-23.7
	c-0.6-0.9-1.2-1.9-1.8-2.9c-0.7-1.1-1-2.2-1-3.1c0-1.3,0.5-2.5,1.6-3.5s2.3-1.5,3.7-1.5c1.6,0,2.9,0.6,3.8,1.8
	c3.5,4.7,7.6,11.7,12.3,21.1c2.7-5.9,4.3-9.4,4.8-10.6c1.8-3.7,3.5-6.9,5.2-9.7c1.1-1.8,2.5-2.7,4.4-2.7c1.4,0,2.6,0.5,3.7,1.4
	s1.6,2.1,1.6,3.5C108.6,33.2,108.4,33.9,107.9,34.8z"/>
<path class="st0" d="M130.2,68.6c-5.5,0-10-1.5-13.7-4.6c-3.9-3.3-5.8-7.6-5.8-12.9c0-4.9,1.7-10,5.2-15.3c4-6,8.6-9,13.8-9
	c2.6,0,5.6,0.7,9,2.1c4.2,1.7,6.3,3.7,6.3,5.9c0,1.2-0.4,2.3-1.3,3.2c-0.9,1-2,1.5-3.5,1.5c-1.1,0-2.3-0.6-3.8-1.7
	c-1.5-1.2-3.7-1.7-6.7-1.7c-1.9,0-4,1.9-6.2,5.6c-2.1,3.6-3.2,6.7-3.2,9.4c0,2.6,0.9,4.6,2.8,6.1c1.8,1.4,4.1,2.1,7.1,2.1
	c1.7,0,3.7-0.6,6.1-1.9s3.9-1.9,4.6-1.9c1.3,0,2.5,0.5,3.4,1.4c1,1,1.4,2.1,1.4,3.3c0,1.9-2.1,3.9-6.3,5.8
	C135.6,67.7,132.5,68.6,130.2,68.6z"/>
<path class="st0" d="M163.2,32.2c1.8-1.8,3.7-3.1,5.8-4s4.3-1.3,6.6-1.3c4.2,0,7.3,1.2,9.1,3.6c1.4,1.8,2.2,4.5,2.5,8.2
	c0.1,3,0.3,6.1,0.4,9.2c0.4,4,0.6,6.4,0.7,7.3c0.3,2.8,0.8,5.2,1.3,7.2c0.1,0.5,0.2,1,0.2,1.4c0,1.4-0.5,2.5-1.6,3.4
	s-2.3,1.4-3.7,1.4c-2.5,0-4.1-1.2-4.9-3.7c-0.6-2-1.1-4.8-1.6-8.5c-0.4-3.5-0.7-6.4-0.7-8.6c0-0.6,0-1.6,0.1-2.8
	c0.1-1.3,0.1-2.2,0.1-2.8c0-1.8,0-2.9-0.1-3.2c-0.2-1.4-0.9-2-1.9-2c-2.8,0-5.2,1.3-7.5,3.8c-1.1,1.3-2.7,3.7-4.7,7.2
	c0,9-0.4,14.4-1.3,16.2c-1,2-2.5,3-4.6,3c-1.4,0-2.6-0.5-3.7-1.4c-1.1-0.9-1.6-2.1-1.6-3.4c0-0.5,0.1-1.1,0.4-2
	c0.2-0.5,0.3-3.9,0.4-10c-0.1-5-0.1-13.3,0.1-24.9l0.1-1.2c0.1-2.9,0.2-4.9,0.2-5.9c0-0.8-0.1-1.9-0.4-3.4c-0.2-1.5-0.4-2.6-0.4-3.4
	c0-1.4,0.5-2.6,1.5-3.5s2.2-1.4,3.7-1.4c2.5,0,4.1,1.3,4.9,3.9c0.5,1.5,0.7,3.8,0.7,6.8c0,2.5-0.1,5-0.2,7.5
	C163.3,27.4,163.2,29.8,163.2,32.2z"/>
<path class="st0" d="M207.8,48.8c0,1.4,0,3.7,0.1,6.8s0.1,5.4,0.1,6.8c0,1.4-0.5,2.6-1.5,3.5c-1,0.9-2.2,1.4-3.7,1.4
	s-2.7-0.5-3.7-1.4s-1.4-2.1-1.4-3.5s0-3.7-0.1-6.8s-0.1-5.4-0.1-6.8c0-2.2,0.1-5,0.4-8.3c0.2-3.3,0.4-6.1,0.4-8.3
	c0-1.4,0.5-2.6,1.5-3.5s2.2-1.4,3.7-1.4s2.7,0.5,3.7,1.4s1.4,2.1,1.4,3.5c0,2.2-0.1,5-0.4,8.3C207.9,43.8,207.8,46.6,207.8,48.8z
	 M204.6,21.5c-1.6,0-3-0.5-4.1-1.6c-1.2-1.1-1.7-2.4-1.7-3.9s0.6-2.8,1.7-3.9c1.2-1.1,2.5-1.6,4.1-1.6s3,0.5,4.1,1.6
	c1.2,1.1,1.7,2.4,1.7,3.9s-0.6,2.8-1.7,3.9S206.2,21.5,204.6,21.5z"/>
<path class="st0" d="M228.9,60.8c0,4.7-1.7,7.1-5.1,7.1c-1.5,0-2.7-0.5-3.7-1.4s-1.4-2.2-1.4-3.6V11.4c0-1.4,0.5-2.6,1.6-3.5
	c1-0.8,2.2-1.3,3.7-1.3s2.7,0.4,3.6,1.3c0.9,0.9,1.4,2,1.4,3.5v49.4C229,60.8,228.9,60.8,228.9,60.8z"/>
<path class="st0" d="M265.5,28.9c0.3-8.4,0.7-14.3,1.2-17.5c0.4-2.9,2-4.4,4.8-4.4c1.5,0,2.6,0.5,3.5,1.4c0.9,1,1.3,2.1,1.3,3.5
	c0,3.6-0.3,9-0.8,16.2c-0.6,7.2-0.8,12.6-0.8,16.2c0,8.9,0.3,14.8,0.9,17.8c0.1,0.4,0.1,0.8,0.1,1.1c0,1.4-0.5,2.5-1.5,3.4
	s-2.1,1.3-3.5,1.3c-1.8,0-3.2-0.8-4.1-2.5c-1.7,1-3.4,1.7-5.2,2c-1.8,0.3-3.7,0.5-5.6,0.5c-5.5,0-10.2-1.8-13.8-5.3
	c-3.7-3.6-5.6-8.2-5.6-13.8c0-6.7,1.9-12,5.6-16.1c3.8-4.1,8.7-6.2,14.8-6.2c1.9,0,3.5,0.2,5,0.6C263.2,27.5,264.5,28.1,265.5,28.9z
	 M264.8,40.6c-0.8-1.6-1.9-2.7-3.2-3.5c-1.3-0.8-2.9-1.2-4.7-1.2c-3.7,0-6.4,1.1-8.3,3.2c-1.8,2.1-2.8,5.3-2.8,9.5c0,2.7,1,5,3,6.9
	s4.3,2.9,6.9,2.9c1.9,0,3.4-0.2,4.3-0.7c0.7-0.3,1.8-1.1,3.4-2.4c0.4-0.3,0.8-0.7,1.2-1.2C264.7,53,264.7,48.5,264.8,40.6z"/>
<path class="st0" d="M289.7,66.6c-1.5,0-2.7-0.5-3.7-1.5s-1.5-2.2-1.5-3.5c0-2.5,0.1-6.2,0.4-11.2c0.2-5,0.4-8.7,0.4-11.1
	c0-2.8-0.1-6.9-0.2-12.4s-0.2-9.6-0.2-12.4c0-1.4,0.7-2.7,2-4.1s2.7-2,4.2-2c0.8,0,2.9,0.8,6.2,2.3c3.8,1.8,6.1,2.9,6.8,3.1
	c7.3,2.4,13.5,6,18.6,10.9c6.1,5.9,9.2,12.4,9.2,19.5c0,4.3-1.1,8.4-3.2,12.2c-2.1,3.9-5,7.1-8.7,9.5c-4.1,2.7-9.9,4-17.4,4
	c-1.8,0-3.9-0.3-6.2-0.8C293.6,68.5,291.3,67.6,289.7,66.6z M310.6,28.4c-2.4-1.5-7.6-3.9-15.5-7.1V58c1,0.6,2.1,1.1,3.3,1.4
	c1.3,0.3,2.6,0.5,4.2,0.5c5.4,0,9.2-0.7,11.5-2.2c2.2-1.4,4-3.3,5.3-5.8c1.3-2.4,2-5,2-7.6C321.4,38.2,317.8,32.9,310.6,28.4z"/>
<path class="st0" d="M370,68.3c-1.1,0-2.9-1.1-5.4-3.3c-2.3,1.1-4.3,1.9-6,2.5s-3.2,0.8-4.4,0.8c-6,0-10.5-1.6-13.4-4.8
	s-4.5-8-4.5-14.3c0-6,2.2-11.1,6.6-15.3s9.7-6.4,15.8-6.4c2.4,0,5.1,0.7,8.2,2c3.7,1.6,5.6,3.4,5.6,5.6c0,0.9-0.3,1.7-0.9,2.3
	c-0.2,1-0.4,2.2-0.6,3.7c-0.1,1.5-0.2,3.2-0.2,5.2c0,4.7,0.3,8.1,1,10.1c0.1,0.2,0.6,1.5,1.7,3.8c1,2.1,1.4,3.3,1.4,3.6
	c0,1.3-0.5,2.4-1.5,3.2C372.5,67.8,371.3,68.3,370,68.3z M360.8,43.2c0-0.8,0.1-1.7,0.2-2.7s0.3-2.2,0.5-3.4
	c-0.5-0.2-0.9-0.4-1.3-0.5s-0.7-0.2-1-0.2c-3.4,0-6.3,1.3-8.8,4s-3.8,5.7-3.8,9.2c0,3.3,0.6,5.8,1.8,7.5c1.2,1.7,3,2.5,5.4,2.5
	c1.5,0,3-0.3,4.4-0.8s2.7-1.3,3.9-2.2C361.2,50.5,360.8,46.1,360.8,43.2z"/>
<path class="st0" d="M417.2,34.8c-2.7,5.6-7,14.5-12.8,26.5c-3.2,6.5-5.6,11.8-7.2,16.1c-0.5,1.5-1.3,3.8-2.5,6.8
	c-0.9,2.3-2.5,3.5-4.8,3.5c-1.4,0-2.7-0.5-3.7-1.4c-1.1-0.9-1.6-2.1-1.6-3.5c0-2.3,2.6-9.1,7.9-20.5c-2.7-5.4-7-13.3-13-23.7
	c-0.6-0.9-1.2-1.9-1.8-2.9c-0.7-1.1-1-2.2-1-3.1c0-1.3,0.5-2.5,1.6-3.5s2.3-1.5,3.7-1.5c1.6,0,2.9,0.6,3.8,1.8
	c3.5,4.7,7.6,11.7,12.3,21.1c2.7-5.9,4.3-9.4,4.8-10.6c1.8-3.7,3.5-6.9,5.2-9.7c1.1-1.8,2.5-2.7,4.4-2.7c1.4,0,2.6,0.5,3.7,1.4
	s1.6,2.1,1.6,3.5C417.8,33.2,417.6,33.9,417.2,34.8z"/>
<path class="st1" d="M255,78.6c0,0,5.5,13.3,24,13.3s24.3-13.3,24.3-13.3"/>
<path class="st2" d="M239.1,48.1"/>
<path class="st3" d="M7.6,62.6"/>
</svg>
