<?xml version="1.0" encoding="utf-8"?>
<!-- Generator: Adobe Illustrator 19.2.1, SVG Export Plug-In . SVG Version: 6.00 Build 0)  -->
<svg version="1.1" xmlns="http://www.w3.org/2000/svg" xmlns:xlink="http://www.w3.org/1999/xlink" x="0px" y="0px"
	 viewBox="0 0 100 100" style="enable-background:new 0 0 100 100;" xml:space="preserve">
<style type="text/css">
	.st0{fill:#7DB942;}
	.st1{fill:#E8DC4E;}
	.st2{fill:#4293B7;}
	.st3{fill:#D1C3C3;}
	.st4{fill:#E33D3D;}
	.st5{fill:#EFEFEF;}
	.st6{fill:#333232;}
	.st7{fill:#D7C851;}
	.st8{fill:#875BA6;}
	.st9{fill:#E57C4D;}
	.st10{fill:#FFFFFF;}
	.st11{fill:#FFFFFF;stroke:#FFFFFF;stroke-width:5;stroke-linecap:round;stroke-linejoin:round;stroke-miterlimit:10;}
	.st12{fill:none;stroke:#4293B7;stroke-width:3;stroke-miterlimit:10;}
</style>
<g id="Layer_2">
</g>
<g id="Layer_1">
	<circle class="st9" cx="50" cy="50" r="50"/>
	<g>
		<g>
			<path class="st10" d="M31.6,78.9c1.9,0.2,3.7,0,5.5-0.4c2.9-0.6,2-4.7-0.7-4.9c-0.8-0.1-1.7-0.2-2.5-0.2c-0.5,0-1.5-0.4-1.1,0
				c0.2,0.6,0.5,1.2,0.7,1.8c-0.2-1.5,0-3.1,0.1-4.7c0-0.5-0.1-4.6,0.3-4.9c-0.8,0.6,0.3,0.9,0.6,1.2c0.7,0.7,0.9,1.7,1,2.6
				c0.2,1.2,0.5,3.4,0.2,4.6c0.6-0.6,1.2-1.2,1.7-1.7c-0.6,0.2-2.3-0.7-2.9-1c0.4,0.5,0.8,1,1.1,1.5c-0.6-1.5,0-4.2,0-5.8
				c-1.7,0-3.3,0-5,0c0.1,2.5,0.5,6.3,2.3,8.3c0.6,0.6,1.6,1,2.4,0.6c0.1,0,0.1-0.1,0.2-0.1c-1-1-2.1-2.1-3.1-3.1
				c-0.2,0.8-0.4,1.6-0.6,2.4c-0.3,1.3,0.4,2.8,1.7,3.1c2.2,0.5,5.9,1.9,7.3-0.6c1.3-2.4,0.5-6.5,0.4-9c-0.2-2.5-0.1-5.3-2.3-7
				c-2.1-1.7-5.2-1.3-7.6-0.6c-3.1,1-1.8,5.8,1.3,4.8c0.7-0.2,2.5-0.9,3.2-0.3c0.4,0.3,0.3,2.6,0.3,3.1c0.1,1.6,0.8,5.6,0.2,6.7
				c0.7-0.4,1.4-0.8,2.2-1.2c-1.2,0.1-2.6-0.4-3.7-0.6c0.6,1,1.2,2.1,1.7,3.1c0.2-0.8,0.4-1.6,0.6-2.4c0.4-1.7-1.2-3.8-3.1-3.1
				c-0.1,0-0.1,0.1-0.2,0.1c0.8,0.2,1.6,0.4,2.4,0.6c-0.6-0.6-0.8-3.8-0.8-4.7c-0.1-3.2-4.9-3.2-5,0c-0.1,2.3-0.9,6,0.6,8
				c1.4,1.8,5.3,2.6,7.4,2.1c0.8-0.2,1.6-0.9,1.7-1.7c0.6-3.3,0.2-8.2-1.6-11c-1.7-2.6-5.9-4.6-8.6-2.3c-1.5,1.2-1.4,3.1-1.6,4.9
				c-0.1,2.3-0.4,4.6-0.4,6.8c0.1,4.8,4.2,4.4,8,4.8c-0.2-1.6-0.4-3.3-0.7-4.9c-1.4,0.3-2.7,0.3-4.2,0.2
				C28.4,73.6,28.4,78.6,31.6,78.9L31.6,78.9z"/>
		</g>
	</g>
	<g>
		<g>
			<path class="st10" d="M32.4,51.1c-0.5,0.7,0,0.6,1.5-0.4c0.4,0.2,0.7,0.4,1.1,0.6c0,0-0.1-0.1-0.1-0.1c0.2,0.4,0.4,0.7,0.6,1.1
				c0-0.1,0-0.1-0.1-0.2c0,0.4,0,0.9,0,1.3c0-0.1,0-0.2,0.1-0.3c-0.2,0.4-0.4,0.7-0.6,1.1c0.1-0.1,0.3-0.3,0.3-0.3
				c-0.6-0.4-1.4,0.4-1.4-1.3c0-0.3,0.1-0.5,0.2-0.7c0.5-0.2,0.6-0.3,0.3-0.2c-0.2,0-0.2,0.1,0,0c-0.2,0-0.4,0-0.6,0
				c0,0,0.1,0.1,0.1,0.1c0.2,0.3,0.3,0.6,0.2,1c0,0.1,0,0.2-0.1,0.2c0,0.1-0.7,0.2,0.1,0c0.2,0,0.4-0.1,0.6-0.1
				c0.5-0.1,0.4-0.1-0.2,0c-0.4-0.2-0.7-0.4-1.1-0.6c0,0.1,0.1,0.1,0.1,0.2c-0.2-0.4-0.4-0.7-0.6-1.1c0.3,0.6,0.3,1.1,0.2,1.7
				c0.1-0.4,0.2-0.8,0.3-1.3c0,0.1-0.1,0.2-0.1,0.2c0.3-0.3,0.6-0.6,0.9-0.9c0.3-0.2-0.3,0-0.5,0c-0.2,0-0.4,0-0.5,0
				c-0.4,0-0.5,0-0.2,0c0.4,0.2,0.7,0.4,1.1,0.6c0.2,0.1,0.3,0.3,0.3,0.5c-0.1,0.2,0,0.2,0-0.1c-0.2,0.3,0.3-0.3,0.1,0
				c-0.2,0.3,0.4-0.3,0.1,0c0.3-0.1,0.4-0.1,0.1-0.1c0.4,0,0.4,0,0,0c-0.4-0.2-0.7-0.4-1.1-0.6c0.1,0.1,0.1,0.1,0.2,0.2
				c-0.2-0.4-0.4-0.7-0.6-1.1c0.1,0.2,0.2,0.7,0.3,0.9c0,0,0,0,0,0c0.1-0.4,0.4-0.7,0.9-0.9c-1.3,0.5-2.1,1.7-1.7,3.1
				c0.3,1.2,1.8,2.2,3.1,1.7c2.8-1.1,3.5-4.5,1.8-6.9c-1.6-2.3-5.2-1.2-6.7,0.5c-1.6,1.8-2.2,5.5,0.3,6.9c1,0.6,2.4,0.5,3.5,0.4
				c1.8-0.2,3.3-1,3.4-3c0.1-1.1-0.1-2.4-0.6-3.4c-0.8-1.7-2.4-1.9-4.1-1.6c-2.5,0.4-4.9,2.5-4.3,5.2c0.6,2.7,3.6,3.8,6.1,3.3
				c2.5-0.5,4.5-3.2,3.1-5.7c-1.5-2.9-6-2.3-7.5,0.3c-1,1.7,0,3.9,1.8,4.3c1.7,0.4,3.1-0.6,3.9-2C38.3,50.9,33.9,48.3,32.4,51.1
				L32.4,51.1z"/>
		</g>
	</g>
	<g>
		<g>
			<path class="st10" d="M49.9,76c-0.6-2.3-1-4.6-1.1-6.9c0-1.1,0-2.2,0-3.3c0-0.6,0.1-1.2,0.2-1.9c0.2-1.1,0.1-1-0.3,0.2
				c0.4,0,0.7,0,1.1,0c0.2-1.1,0.3-0.9,0.3,0.3c0.2,1,0.1,2.2,0.2,3.3c0,0.6-0.1,6.3-0.6,6.3c0.6,0.6,1.2,1.2,1.7,1.7
				c-0.6-1.6-0.3-4-0.2-5.6c0.1-2.1,0.4-4,1-5.9c-1.6,0-3.2,0-4.8,0c1,3.3,3.1,7.7,2.5,11.1c1.5-0.2,3-0.4,4.6-0.6
				c-1.2-1.7-1.5-4.6-1.7-6.6c-0.4-3.2-5.4-3.2-5,0c0.3,2.9,0.6,6.7,2.4,9.1c1.1,1.5,4.1,1.7,4.6-0.6c0.9-4.7-1.1-9.3-2.5-13.8
				c-0.7-2.4-4.1-2.4-4.8,0c-1,3.2-1.2,6.5-1.2,9.9c0,2.1-0.3,5.4,2.3,6.1c2.3,0.6,4.7-1.1,5.7-3.1c1.3-2.6,1.1-6.3,1-9.1
				c-0.1-2.2,0.1-5.4-2-6.8c-1.6-1.1-5.7-1.2-7.4-0.2c-2.2,1.3-2,5.2-2,7.3c-0.1,3.5,0.4,7.1,1.3,10.5C45.9,80.5,50.7,79.2,49.9,76
				L49.9,76z"/>
		</g>
	</g>
	<g>
		<g>
			<path class="st10" d="M50.5,49.2C50.5,49.2,50.5,49.1,50.5,49.2c0.1,0.3,0.3,0.6,0.5,1c0,0.3,0,0.6,0,0.9
				c-0.2,0.4-0.4,0.7-0.6,1.1c0,0,0.1-0.1,0.1-0.1c-0.4,0.2-0.7,0.4-1.1,0.6c0,0,0.1,0,0.1,0c-0.9-1.2-1.9-2.4-2.8-3.7
				c0.3-0.6,1.8-0.3,2-0.2c0.3,0.3,0.6,0.6,0.9,0.9c0.1,0.3,0.1,0.5,0.2,0.8c-0.1,0.4-0.2,0.8-0.3,1.3c-0.3,0.6-1.1,0.6-1.6,0.6
				c-0.1,0-0.2-0.1-0.2-0.1c0.2,0.1,0.2,0.1,0.1,0c-0.2-0.3-0.4-0.5-0.5-1c0-0.3,0.9-1.5,1.3-1.3c-0.1,0-0.1,0-0.2,0
				c-0.2,0-0.3,0-0.1,0c1,0.1,1.4,0.9,1.2,2.4c0-0.1,0.1-0.1,0.1-0.2c-0.5,0.2,0.4,0,0.2-0.2c0,0-0.1,0.1-0.1,0.1
				c-0.6,0.3-0.9-0.1-1-1.3c-1-0.7-1.3-1.2-0.8-1.5c0.1-0.1,0.1-0.1-0.1,0.1c0,0,0.1,0,0.1,0c-0.3,0.1-0.3,0.1-0.2,0.1
				c0,0,0.4,0.1,0.5,0.1c0.6,0.4,0.8,0.8,0.6,1.4c0.1,0.3,0,0.5-0.2,0.7c-0.1,0.1-0.5,0.2-0.2,0.2c0.1,0,0.5-0.1,0.2-0.1
				c0.6-0.1,1.1,0,1.7,0c1.3,0.1,2.6-1.2,2.5-2.5c-0.1-1.4-1.1-2.4-2.5-2.5c-1.8-0.1-3.8,0-5.3,1.3c-1.7,1.6-1.5,4.5,0.5,5.8
				c1.7,1.1,4.1,0.6,5.6-0.7c1.9-1.7,1.4-4.9-1.1-5.6c-1.9-0.6-3.9,0.7-4.9,2.3c-1.2,1.9-0.3,4.6,2.1,5.1c2.1,0.4,4.3-0.4,4.9-2.6
				c0.6-2-0.8-4.1-2.7-4.7c-2.4-0.8-5.3,1.3-4.5,3.9c1,3,4.8,2.4,6.1,0.1c0.5-0.9,0.4-2-0.2-2.8c-0.6-0.7-1.7-1.2-2.6-0.9
				c-1,0.4-1.7,1-2,2c-0.3,1,0,2.1,0.8,2.8c1,0.9,2.6,1,3.5,0C51.4,51.8,51.6,50.1,50.5,49.2L50.5,49.2z"/>
		</g>
	</g>
	<g>
		<g>
			<path class="st10" d="M60.4,61.9c2.7,0.1,5.4,0.1,8.1,0c1.6-0.1,2.9-1.6,2.4-3.2c-2.5-7.9-3-16.7-4.2-24.9
				c-0.4-2.9-4.8-2-4.9,0.7c-0.1,3.6-1.2,7.2-1.6,10.8c-0.4,4.2-0.8,8.4-1.2,12.6c-0.2,2,2.2,2.9,3.8,2.2c0.9-0.4,1.8-0.9,2.6-1.4
				c1.7-1,1.6-4.2-0.6-4.6c-2.8-0.5-5.1-0.4-6.9,1.9c1.4,0.8,2.8,1.6,4.2,2.4c0.8-3.3,0.7-6.8,1.6-10.1c0.8-3,2.1-6.5,1.4-9.6
				c0.6-1.5,0.3-2.1-0.8-1.9c-1.1-0.3-1.4,0.3-0.9,1.8c-0.4,1.7-0.1,3.9-0.1,5.7c0.1,4,0.6,8,1.3,12c0.6,3.2,5.4,1.8,4.8-1.3
				c-0.6-3.5-1.1-7.1-1.2-10.7c-0.1-2.9,0.6-6,0.2-8.9c-0.3-2.7-2.4-5.2-5.4-4.1c-3.5,1.3-3,5.4-3,8.3c0,3.3-1,5.7-1.6,8.8
				c-0.6,2.9-0.5,5.8-1.2,8.7c-0.6,2.2,2.5,4.5,4.2,2.4c0.7-0.2,1.4-0.4,2-0.6c-0.2-1.5-0.4-3-0.6-4.6c-0.8,0.5-1.7,1-2.6,1.4
				c1.3,0.7,2.5,1.4,3.8,2.2c0.4-4.2,0.8-8.4,1.2-12.6c0.4-3.6,1.4-7.2,1.6-10.8c-1.6,0.2-3.3,0.4-4.9,0.7c1.2,8.2,1.6,17,4.2,24.9
				c0.8-1.1,1.6-2.1,2.4-3.2c-2.7,0.1-5.4,0.1-8.1,0C57.2,56.8,57.2,61.8,60.4,61.9L60.4,61.9z"/>
		</g>
	</g>
	<g>
		<g>
			<path class="st10" d="M62.6,25.5c0,0.1,0.1,0.1,0.1,0.2c-0.2-0.4-0.4-0.7-0.6-1.1c0.1-0.4,0.1-0.8,0.2-1.1
				c0.3-0.3,0.6-0.6,0.9-0.9c-0.1,0-0.1,0.1-0.2,0.1c0.4-0.1,0.8-0.2,1.3-0.3c-0.1,0-0.2,0-0.2,0c0.4,0.1,0.8,0.2,1.3,0.3
				c-0.1,0-0.1-0.1-0.2-0.1c0.3,0.3,0.6,0.6,0.9,0.9c0-0.1-0.1-0.1-0.1-0.2c0.1,0.4,0.2,0.8,0.3,1.3c0-0.1,0-0.2,0-0.2
				c-0.1,0.4-0.2,0.8-0.3,1.3c0-0.1,0.1-0.1,0.1-0.2c-0.3,0.3-0.6,0.6-0.9,0.9c-0.1,0-0.1,0-0.2,0.1c-0.4,0-0.9,0-1.3,0
				c-0.2-0.1-0.3-0.2-0.5-0.3c-0.2-0.4-0.4-0.7-0.6-1.1c0-0.2,0-0.4,0-0.6c0.2-0.4,0.4-0.7,0.6-1.1c0.1-0.1,0.3-0.1,0.4-0.2
				c0.4,0,0.9,0,1.3,0c0,0,0.1,0.1,0.1,0.1c0.3,0.3,0.6,0.6,0.9,0.9c0,0.4,0.1,0.7,0.1,1.1c-0.2,0.4-0.4,0.7-0.6,1.1
				c0.1-0.1,0.1-0.1,0.2-0.2c-0.4,0.2-0.7,0.4-1.1,0.6c0,0,0.1,0,0.1,0c-0.4,0-0.9,0-1.3,0c0,0,0.1,0,0.1,0
				c-0.4-0.2-0.7-0.4-1.1-0.6c-0.1-0.6-0.1-1.1-0.2-1.7c0.3-0.3,0.6-0.6,0.9-0.9c0.5,0,0.9,0,1.4,0c0.3,0.3,0.6,0.6,0.9,0.9
				c0.1,0.2,0.1,0.4,0.2,0.6c-0.1,0.4-0.2,0.8-0.3,1.3c0,0-0.1,0.1-0.1,0.1c-0.4,0.2-0.7,0.4-1.1,0.6c-0.4-1-0.9-1.9-1.3-2.9
				c1,0.1,2,0.3,3,0.4c-0.1,0-0.1-0.1-0.2-0.1c0.2,0.4,0.4,0.7,0.6,1.1c0-0.1,0-0.1-0.1-0.2c0,0.4,0,0.9,0,1.3c0-0.1,0-0.1,0-0.2
				c-0.2,0.4-0.4,0.7-0.6,1.1c0-0.1,0.1-0.1,0.1-0.2c-0.4,0.2-0.7,0.4-1.1,0.6c0.1,0,0.1,0,0.2,0c-0.4,0-0.9,0-1.3,0
				c0.1,0,0.1,0,0.2,0.1c-0.4-0.2-0.7-0.4-1.1-0.6c0.1,0,0.1,0.1,0.2,0.1c-0.2-0.4-0.4-0.7-0.6-1.1c0,0.1,0,0.1,0.1,0.2
				c1-1,2.1-2.1,3.1-3.1c-0.8-0.1,0,0,0,0.1c-0.1-0.2-0.1-1-0.1-0.4c-0.1,0.4-0.2,0.8-0.3,1.3c0-0.1,0.1-0.1,0.1-0.2
				c-0.3,0.3-0.6,0.6-0.9,0.9c-0.3,0.2-0.7,0-0.2,0.1c-0.2-0.1,0.3,0.1,0.2,0.1c0,0,0.2,0.2,0.3,0.4c-0.1-0.4-0.2-0.8-0.3-1.3
				c0,0.1,0,0.2,0,0.2c0.1-0.4,0.2-0.8,0.3-1.3c0.2-0.4,1.2-0.7,0.2-0.5c-0.1,0-0.2,0-0.3,0.1c-0.4,0.1-0.2,0.1,0.6,0.2
				c0.3,0.3,0.6,0.6,0.9,0.9c-0.1,0.5-0.1,1-0.2,1.5c0-0.1,0.1-0.1,0.2-0.1c0.2-0.1,0.9-0.3,0.1-0.2c-0.6-0.2-1.2-0.5-1.8-0.7
				c0,0.1,0.1,0.1,0.1,0.2c-0.2-0.4-0.4-0.7-0.6-1.1c-0.1-0.2-0.1,0.5-0.1,0.5c-0.4-0.6,1,0.3,0.9,0.3c-0.2,0.1,0-0.4-0.1-0.2
				c0.1-0.3,0.2-0.5,0.6-0.7c0,0,0.6-0.2,0.6-0.1c0,0-0.1,0-0.1-0.1c0.4-1-0.2-0.2-0.2-0.2c0,0-0.2,0.6-0.3,0.7
				c-0.1,0.1-0.5,0.5-0.5,0.4c0,0,0.2,0.4,0.3,0.4c0.1,0.4-0.4,0.4,0.3,0.1c0.4-0.2,0.8-0.3,1.2-0.4c3.1-1,1.8-5.8-1.3-4.8
				c-1.5,0.5-3,1-4.1,2.2c-1.2,1.3-1.4,3.3-0.6,4.9c1.5,3,5.5,3.3,7.9,1.2c2.2-2,3-6,0.6-8.2c-2.5-2.3-6.6-1.1-8.4,1.5
				c-1.8,2.6-0.9,6.8,2.4,7.8c3.4,1,6.3-2.6,6-5.7c-0.2-2.1-1.9-3.4-4-2.7c-1.5,0.5-3.1,1.7-3.6,3.3c-0.5,1.7,0.4,3.7,2.2,4.2
				c1.4,0.4,3.7-0.1,4.8-1c1.6-1.5,1-3.7-0.4-5.1c-1.1-1.1-2.7-1.6-4.3-1.4c-2.3,0.2-3.5,2.1-2.8,4.2c0.5,1.7,1.7,3.4,3.6,3.7
				c1.8,0.3,3.6-1.1,3.1-3.1c-0.5-1.8-2.6-2.8-4.3-1.9c-1.6,1-1.9,3.4-0.5,4.6c0.8,0.7,2.1,1,3,0.4c1.7-1.1,2.6-3.5,1.1-5.2
				c-1.3-1.6-4.1-1.7-5.3,0.2c-1.2,2,0.1,4.6,2.3,4.9c2.2,0.3,4.2-1.9,3.6-4.1c-0.5-2.1-3.1-3.3-4.8-1.7c-1.6,1.5-1.1,4.4,1,5.2
				c2.2,0.9,4.6-0.9,4.5-3.2c-0.1-2.4-2.7-3.8-4.8-2.6c-2.5,1.5-1.4,5.5,1.5,5.5c1.3,0,2.5-0.9,2.8-2.1c0.3-1.2-0.1-2.3-0.8-3.2
				c-0.8-1.1-2.7-0.9-3.5,0C61.6,23,61.8,24.4,62.6,25.5L62.6,25.5z"/>
		</g>
	</g>
	<g>
		<g>
			<path class="st10" d="M54.9,34.1c-1.3,0.9-2.7,1.6-4.2,2.1c-1.3,0.5-2.1,1.7-1.7,3.1c0.3,1.2,1.8,2.2,3.1,1.7
				c1.9-0.7,3.7-1.5,5.4-2.6c1.1-0.7,1.6-2.2,0.9-3.4C57.7,33.9,56,33.4,54.9,34.1L54.9,34.1z"/>
		</g>
	</g>
	<g>
		<g>
			<path class="st10" d="M69.2,35.6c0.3,3.6,0.8,7.2,1.4,10.8c0.6,3.2,5.4,1.8,4.8-1.3c-0.6-3.1-1-6.3-1.3-9.5
				C73.9,32.5,68.9,32.4,69.2,35.6L69.2,35.6z"/>
		</g>
	</g>
</g>
</svg>
