<?xml version="1.0" encoding="utf-8"?>
<!-- Generator: Adobe Illustrator 19.2.1, SVG Export Plug-In . SVG Version: 6.00 Build 0)  -->
<svg version="1.1" xmlns="http://www.w3.org/2000/svg" xmlns:xlink="http://www.w3.org/1999/xlink" x="0px" y="0px"
	 viewBox="0 0 100 100" style="enable-background:new 0 0 100 100;" xml:space="preserve">
<style type="text/css">
	.st0{fill:#7DB942;}
	.st1{fill:#E8DC4E;}
	.st2{fill:#4293B7;}
	.st3{fill:#D1C3C3;}
	.st4{fill:#E33D3D;}
	.st5{fill:#EFEFEF;}
	.st6{fill:#333232;}
	.st7{fill:#D7C851;}
	.st8{fill:#875BA6;}
	.st9{fill:#E57C4D;}
	.st10{fill:#FFFFFF;}
	.st11{fill:#FFFFFF;stroke:#FFFFFF;stroke-width:5;stroke-linecap:round;stroke-linejoin:round;stroke-miterlimit:10;}
	.st12{fill:none;stroke:#4293B7;stroke-width:3;stroke-miterlimit:10;}
</style>
<g id="Layer_2">
</g>
<g id="Layer_1">
	<circle class="st4" cx="50" cy="50" r="50"/>
	<g>
		<path class="st10" d="M33.8,79.8c0.5-10.3,0.9-20.6,1.1-30.9c0-0.3,0-0.6-0.2-0.8c-0.2-0.2-0.4-0.3-0.7-0.4c-1.6-0.6-3-1.7-4-3
			c-0.7-0.9-1.3-2-1.7-3.1c-1.2-3-1.7-6.3-1.2-9.4c0.6-3.2,2.3-6.2,5-7.9c2.7-1.8,6.3-2.3,9.2-0.9c3.9,1.8,5.8,6.3,6.2,10.6
			c0.3,2.8,0,5.7-1.3,8.1c-1.3,2.3-3.5,4-5.6,5.6c-0.7,0.5-1.4,1-1.8,1.8c-0.4,0.8-0.4,1.7-0.3,2.6c0.4,8.2,0.8,16.3,1.2,24.5
			c0.1,1.1,0.1,2.2-0.2,3.3s-0.9,2.1-1.9,2.6c-1.7,0.8-4-0.5-4.1-2.3"/>
		<g>
			<path class="st10" d="M34.4,79.8c0.3-5.5,0.5-10.9,0.7-16.4c0.1-2.9,0.2-5.8,0.3-8.7c0-1.7,0.8-4.8,0-6.4c-0.4-1-0.1-0.3-1-1.2
				c-0.8-0.8-2.2-1.1-3.1-2c-1.4-1.4-2.4-3.4-2.9-5.3c-2-6.7,0.5-16.5,8.9-16.7c8.3-0.3,11.2,10.7,8.9,17c-1.2,3.3-3.5,4.7-6,6.9
				c-0.7,0.6-1.5,1.2-2,2.1c-1.6,3.5,0,10.3,0.2,14.1c0.1,2.5,0.2,5,0.4,7.5c0.1,1.6,0.2,3.1,0.2,4.7c0,0.6,0.1,1.2,0.1,1.8
				c0.3,2.2-1.3,3.1-4.9,2.6c-0.2-0.8-1.5-0.4-1.2,0.3c0.9,2.8,3.9,4.2,6.2,1.8c1.8-1.9,1.3-5.1,1.2-7.5c-0.2-4.4-0.4-8.8-0.6-13.2
				c-0.1-2.5-0.4-5-0.4-7.5c0.1-3.3,0.5-4.7,3-6.7c2.3-1.8,4.3-3.7,5.3-6.5c1.7-4.7,0.7-11.3-2.5-15.2c-3-3.6-7.8-4.5-12-2.5
				c-5.2,2.5-7.2,8.6-6.6,14c0.3,2.8,1.3,5.8,3,8.1c1.9,2.4,4.4,2.5,4.7,5.9c0.8,9.4-0.6,19.6-1.1,29C33.1,80.6,34.4,80.6,34.4,79.8
				L34.4,79.8z"/>
		</g>
	</g>
	<g>
		<path class="st10" d="M55.9,82.1c-0.5-10.2,1.5-20.5,0.6-30.6c0-0.5-0.1-1.1-0.5-1.5c-0.3-0.4-0.8-0.5-1.2-0.7
			c-1.8-0.9-3-2.7-3.5-4.6c-0.6-1.9-0.6-3.9-0.6-5.9c-0.1-5.1-0.2-10.2,0.9-15.2c0.1-0.3,0.1-0.6,0.4-0.8c0.4-0.3,1,0,1.3,0.4
			c0.2,0.4,0.2,1,0.2,1.5c-0.2,5.4,0.1,10.8,1,16.1c0.1,0.8,0.7,1.7,1.4,1.4c0.3-6.5,0.5-13,0.3-19.4c0.4-0.3,1-0.1,1.3,0.3
			c0.3,0.4,0.2,1,0.2,1.4c-0.2,5.7,0.4,11.5,1,17.2c0,0.2,0.1,0.5,0.2,0.6c0.3,0.2,0.7,0,0.8-0.2s0.2-0.6,0.2-0.9c0-6,0-12,0-18
			c0.4-0.5,0.3-0.2,0.6,0.3s0.3,1.2,0.3,1.8c-0.1,5.7,0.9,11.5,1,17.2c0.6,0.1,1.2-0.4,1.4-0.9s0.3-1.2,0.2-1.8
			c0-5.3-0.1-10.6-0.1-15.9c0-0.6,0.4-1.5,0.9-1.2c0.3,0.1,0.3,0.4,0.4,0.7c1,5.8,1.7,11.7,2.2,17.6c0.1,1.9,0.2,3.9-0.8,5.5
			c-1,1.7-3,2.6-4.9,3.3c-0.4,0.1-0.7,0.3-0.9,0.6c-0.2,0.3-0.2,0.6-0.2,0.9c-0.2,10.5,1.7,21,1.1,31.5c0,0.3,0,0.6-0.2,0.9
			c-0.2,0.3-0.6,0.4-1,0.5c-1.5,0.2-3.1-0.4-4.2-1.5"/>
		<g>
			<path class="st10" d="M56.6,82.1c-0.3-8.3,0.9-16.6,0.9-24.9c0-1.9,0.5-5.2-0.4-6.9c-0.2-0.3-0.4-0.7-0.6-0.9
				c-2-1-3.5-2.7-4.4-4.9c-0.3-1.2-0.5-2.3-0.5-3.5c-0.3-3.9-0.3-7.9,0.1-11.8c0.2-2.9,0.6-5,1.3-1c0.3,1.7,0.1,3.7,0.2,5.4
				c0.2,2.3-0.4,9,2.9,9.2c0.4,0,0.6-0.3,0.6-0.6c0.2-3.2,0.3-6.5,0.3-9.7c0-1.6,0-3.2,0-4.9c0-0.8-0.1-5.4,0.1-1.2
				c0.2,4.9-0.5,11.4,1.3,16.1c0.1,0.2,0.2,0.4,0.4,0.4c3.5,0.5,1.8-8.1,1.8-9.9c0-2.1,0.2-4.3,0-6.3c-0.4-4.1-0.3,0.1-0.3,1.4
				c0.2,4.8,0.8,9.5,0.9,14.3c0,0.4,0.4,0.7,0.8,0.6c4-1,2.1-8.5,2.1-11.3c0-0.5-0.4-5.7,0-6c0.4-0.6,0.6-0.4,0.5,0.6
				c0.2,1.6,0.5,3.1,0.7,4.7c0.6,4.7,1.8,9.7-0.3,14c-0.4,2.3-1.7,3.6-3.9,4c-0.2,0.1-0.4,0.2-0.6,0.4c-0.3,0.4-0.6,0.3-0.8,0.7
				c-1,2.1-0.2,6.4-0.1,8.5c0.2,3.7,0.5,7.4,0.7,11.1c0.1,1.9,0.2,3.7,0.3,5.6c0,1.2,0.1,2.5,0,3.7c0.5,2.6-0.9,3.6-4.4,3.1
				c-0.6-0.5-1.6,0.4-0.9,0.9c2.4,1.9,5.1,2.7,6.5-0.3c0.6-1.4,0.1-4,0.1-5.6c0-2.5-0.2-4.9-0.3-7.4c-0.2-4-0.6-8-0.8-12.1
				c-0.1-3.1-0.7-5.4,1.9-8c0.7-0.7,1.9-0.9,2.7-1.6c1.3-1.2,1.8-2.6,2.1-4.3c0.5-4-0.5-8.7-1-12.7c-0.4-2.8-0.3-6.3-1.6-8.8
				c-0.1-0.2-0.5-0.4-0.7-0.3c-1.3,0.5-0.8,0.5-1.4,1.8c-0.8,1.8,0,5.9,0.1,8c0,2.3,0.3,4.7,0.1,7c-0.4,3.9-0.6-0.5-0.7-2
				c-0.2-2.2-0.4-4.5-0.5-6.7c-0.2-2.5,0.3-5.2-0.8-7.5c-0.2-0.3-0.6-0.4-0.9-0.2c-1.6,1-0.7,4.6-0.7,6.2c0,2.4,0,4.8,0,7.2
				c0,2.4,0,6.3-0.5,1.2c-0.2-2.5-0.4-5.1-0.5-7.6c-0.1-1.7,0.5-4-0.1-5.7c-0.5-1.3-0.7-1.7-2.1-1.5c-0.3,0-0.5,0.4-0.5,0.6
				c0.1,5.2,0.9,11.4-0.2,16.5c-0.4,2.1-0.2,1-0.5-0.4c-0.4-1.6-0.5-3.5-0.6-5.2c-0.2-2.7-0.1-5.4-0.2-8.1c0-1.2,0.2-3.3-1.4-3.5
				c-2.3-0.3-2.2,3.9-2.3,5.1c-0.9,7-1.8,16,2.8,21.7c1.6,2,0.8-0.2,2.1,2.7c0.8,1.7,0.8,2.9,0.8,4.7c0,2.9-0.1,5.7-0.3,8.6
				c-0.3,5.8-0.8,11.5-0.6,17.2C55.3,82.9,56.6,82.9,56.6,82.1L56.6,82.1z"/>
		</g>
	</g>
</g>
</svg>
