<?xml version="1.0" encoding="utf-8"?>
<!-- Generator: Adobe Illustrator 19.2.1, SVG Export Plug-In . SVG Version: 6.00 Build 0)  -->
<svg version="1.1" xmlns="http://www.w3.org/2000/svg" xmlns:xlink="http://www.w3.org/1999/xlink" x="0px" y="0px"
	 viewBox="0 0 100 100" style="enable-background:new 0 0 100 100;" xml:space="preserve">
<style type="text/css">
	.st0{fill:#7DB942;}
	.st1{fill:#E8DC4E;}
	.st2{fill:#4293B7;}
	.st3{fill:#D1C3C3;}
	.st4{fill:#E33D3D;}
	.st5{fill:#EFEFEF;}
	.st6{fill:#333232;}
	.st7{fill:#D7C851;}
	.st8{fill:#875BA6;}
	.st9{fill:#E57C4D;}
	.st10{fill:#FFFFFF;}
	.st11{fill:#FFFFFF;stroke:#FFFFFF;stroke-width:5;stroke-linecap:round;stroke-linejoin:round;stroke-miterlimit:10;}
	.st12{fill:none;stroke:#4293B7;stroke-width:3;stroke-miterlimit:10;}
</style>
<g id="Layer_2">
</g>
<g id="Layer_1">
	<circle class="st2" cx="50" cy="50" r="50"/>
	<path class="st10" d="M90,49.3c-0.2-3.9-5.6-5.3-8.5-6.3c-6.1-2-11.9-5.4-17.7-8.3c-2.9-1.4-9-3.8-10.2,1
		c-2.7,4.4-4.3,9.3-6.5,13.9c-2,4.1-5.8,8-5.8,12.8c0,5,4.4,6.4,8.2,8.3c5.5,2.7,11,5.3,16.5,7.9c1.8,0.8,4.2,2.4,6.3,2.2
		c1.9-0.2,2.8-1.8,3.8-3.2c3.2-4.6,6.1-9.5,8.6-14.5c1.1-2.3,2.2-4.7,3.1-7.1C88.6,54.1,90.1,51.5,90,49.3z M58.1,49.2
		c-1.1-0.4-2-1.4-2.3-2.6c-0.1-0.4-0.2-0.9-0.2-1.3c0-0.8,0-1.6,0.4-2.4c0.7-1.6,2.5-2.6,4.2-2.4l-0.7-0.1c1.8,0.1,3.4,1.3,4.1,2.9
		c0.7,1.6,0.3,3.6-0.9,4.9C61.6,49.3,59.7,49.8,58.1,49.2z M60.2,60.6c-0.5-0.9-0.5-1.9-0.5-2.9c0-0.7,0-1.5,0.4-2.1
		c0.3-0.5,0.7-0.9,1.1-1.3c0.8-0.7,1.7-1.4,2.8-1.6l0,0c1.7-0.4,3.6,0.6,4.5,2.2c0.9,1.5,0.9,3.5,0.4,5.2c-0.2,0.6-0.4,1.2-0.8,1.7
		c-0.6,0.7-1.6,1.1-2.6,1.2c-1,0.1-2-0.2-2.9-0.6C61.6,61.9,60.7,61.4,60.2,60.6z M73.4,73c-0.9,0.9-2.2,1.5-3.4,1.5
		c-0.5,0-1,0-1.5-0.1c-0.4-0.1-0.9-0.2-1.3-0.3c-1.6-0.6-2.7-2.4-2.6-4.1c0.1-1.7,1.2-3.3,2.7-4.1c-0.1,0-0.2,0-0.2,0.1l0.3-0.1
		c0,0-0.1,0-0.1,0c1-0.3,2.1-0.4,3.1-0.3c0.5,0,1,0.1,1.4,0.3c0.5,0.2,0.9,0.6,1.2,1c0.7,0.8,1.3,1.6,1.5,2.6
		C74.7,70.7,74.3,72.1,73.4,73z"/>
	<g>
		<g>
			<path class="st10" d="M46.2,26c-0.5-0.7-1-1.4-1.7-1.9c-0.8-0.5-1.7-0.6-2.6-0.5c-3,0.2-5.6,1.9-8.1,3.5
				c-5.9,3.5-12.2,6.3-18.2,9.5c-1.6,0.8-3.3,1.9-3.7,3.7c-0.3,1.2,0.2,2.5,0.6,3.7c1.1,2.9,2.3,5.8,3.4,8.7
				c0.6,1.6,1.3,3.3,2.1,4.9c0.7,1.3,1.5,2.5,2.3,3.7c2.2,3.1,4.5,6.2,6.8,9.2c0.4,0.5,0.9,1.1,1.5,1.3c0.8,0.3,1.7,0,2.4-0.3
				c3.4-1.3,6.5-3,9.4-5.2l11.3-30.8C50.1,32.2,48.2,29,46.2,26z M25.9,47.1c-1,1.2-2.9,1.3-4.5,1.3c-0.3,0-0.6,0-0.9-0.1
				c-0.3-0.2-0.6-0.5-0.8-0.8C18.7,46,18,44,18.6,42.2c0.6-1.7,2.2-2.8,3.8-3.4l0.1,0.1c1.1-0.4,2.4,0.2,3.1,1.2
				c0.7,1,0.9,2.2,1,3.4C26.8,44.8,26.7,46.2,25.9,47.1z M35.4,62.5c-0.3,0.7-0.5,1.4-1.1,1.8C33.6,65,32.5,65,31.5,65
				c-0.5,0-1,0-1.5-0.1c-1.2-0.3-2.2-1.2-2.6-2.4c-0.5-1.1-0.5-2.4-0.2-3.6c0.2-1,0.7-2,1.6-2.3l-0.1-0.4c2.4-0.9,5.4,0.4,6.7,2.6
				c0.2,0.4,0.4,0.8,0.5,1.2C36,60.9,35.7,61.7,35.4,62.5z M44.7,35.9c-0.1,0.6-0.3,1.3-0.6,1.9c-0.1,0.3-0.3,0.7-0.5,0.9
				c-0.8,1.1-2.2,1.4-3.5,1.4c-1.1-0.1-2.1-0.4-3-0.9c-0.6-0.3-1.1-0.8-1.5-1.4c-1-1.5-0.5-3.5,0.1-5.3l0.2-0.4
				c1.6-0.8,3.3-1.6,5-1.3C43.2,31.1,45.1,33.6,44.7,35.9z"/>
		</g>
		<g>
			<path class="st10" d="M46.5,25.9c-2.3-3.2-5.5-2.9-8.9-1.3c-3.3,1.5-6.4,3.7-9.6,5.4c-3.9,2-7.8,3.8-11.7,5.8
				c-4.4,2.3-5.5,4.2-3.7,9c2.5,6.7,5,12.9,9.2,18.7c2,2.8,4.6,9.1,8.8,8.2c3.1-0.6,8.6-3.3,10.4-5.9c1.3-1.9,1.8-4.9,2.6-7.1
				c1.4-3.9,2.8-7.7,4.3-11.6c1.2-3.4,3.1-7,3.9-10.5C52.4,32.9,48.5,29,46.5,25.9c-0.2-0.3-0.7,0-0.5,0.3c1.4,2.1,5.3,6.7,5.5,9.2
				c0,0.5-0.5,1.1-0.6,1.6c-0.6,2.6-2,5.3-2.9,7.9c-2.3,6.4-4.7,12.8-7,19.1c-1.2,3.3-5,5.5-8.4,6.4c-2.2,1.5-4.3,0.9-6.4-1.7
				c-0.6-0.8-1.2-1.5-1.7-2.3c-0.9-1.3-1.9-2.6-2.8-3.9c-2.3-3.2-4.1-6.3-5.5-10c-1.2-3-3.4-6.7-3.8-9.9c-0.7-5.4,6.5-7.4,10.1-9.2
				c3.3-1.7,6.7-3.3,9.9-5.2c3.6-2.1,9.9-7.3,13.7-2.1C46.2,26.4,46.7,26.2,46.5,25.9z"/>
			<path class="st10" d="M25.7,46.9c-0.9,0.9-2,1.1-3.2,1.2c-1.6,0.1-2.8-0.9-3.4-2.4c-1.1-2.7,0.1-4.8,2.5-6.3
				C25.4,37.2,27.7,44.1,25.7,46.9c-0.2,0.3,0.2,0.6,0.4,0.3c1.2-1.7,1.1-4.4,0.3-6.2c-0.4-0.9-1-1.7-1.8-2.1
				c-0.4-0.2-1.9-0.2-2-0.2c-0.1-0.1-0.2-0.1-0.3-0.1c-3.2,1.3-5.1,4-3.7,7.4c0.6,1.4,1.2,2.6,2.8,2.7c1.7,0.1,3.4-0.2,4.7-1.4
				C26.4,47.1,26,46.7,25.7,46.9z"/>
			<path class="st10" d="M35.1,62.5c-0.6,1.6-1.8,2.2-3.4,2.3c-1.3,0-2.4-0.2-3.4-1.2c-1.4-1.6-1.7-5.7,0.6-6.7
				c0.1,0,0.2-0.2,0.1-0.3c-0.3-0.8,3.7,0.2,4.1,0.5C35.3,58.2,36,60.2,35.1,62.5c-0.1,0.3,0.4,0.5,0.5,0.1c0.8-2.2,0.5-4-1.4-5.5
				c-1.6-1.3-3.7-1.8-5.7-1.2c-0.1,0-0.2,0.2-0.2,0.3c0.1,0.2-0.7,0.8-0.9,1.1c-0.4,0.6-0.6,1.4-0.7,2.1c-0.2,1.7,0.1,3.5,1.4,4.8
				c1.1,1.1,2.7,1.2,4.2,1c1.7-0.2,2.5-1.1,3.2-2.6C35.8,62.3,35.3,62.1,35.1,62.5z"/>
			<path class="st10" d="M44.5,35.8c-0.5,2.4-1.7,4.1-4.3,4c-3.3-0.1-5.3-2.5-4.6-5.7c0.3-1.2,0.5-1.7,1.6-2.3
				c1.1-0.5,2.3-0.9,3.6-0.7C43.1,31.4,44.6,33.6,44.5,35.8c0,0.4,0.5,0.4,0.5,0.1c0.2-2.5-1.5-5-4.1-5.4c-1.6-0.2-3.2,0.4-4.6,1.1
				c-1.2,0.6-1.3,2-1.5,3.3c-0.3,3,1.7,5,4.6,5.4c3.2,0.5,5-1.4,5.6-4.3C45.1,35.6,44.5,35.5,44.5,35.8z"/>
		</g>
	</g>
	<line class="st12" x1="54.6" y1="29.7" x2="37.5" y2="80.7"/>
</g>
</svg>
