<?xml version="1.0" encoding="utf-8"?>
<!-- Generator: Adobe Illustrator 19.2.1, SVG Export Plug-In . SVG Version: 6.00 Build 0)  -->
<svg version="1.1" xmlns="http://www.w3.org/2000/svg" xmlns:xlink="http://www.w3.org/1999/xlink" x="0px" y="0px"
	 viewBox="0 0 100 100" style="enable-background:new 0 0 100 100;" xml:space="preserve">
<style type="text/css">
	.st0{fill:#7DB942;}
	.st1{fill:#E8DC4E;}
	.st2{fill:#4293B7;}
	.st3{fill:#D1C3C3;}
	.st4{fill:#E33D3D;}
	.st5{fill:#EFEFEF;}
	.st6{fill:#333232;}
	.st7{fill:#D7C851;}
	.st8{fill:#875BA6;}
	.st9{fill:#E57C4D;}
	.st10{fill:#FFFFFF;}
	.st11{fill:#FFFFFF;stroke:#FFFFFF;stroke-width:5;stroke-linecap:round;stroke-linejoin:round;stroke-miterlimit:10;}
	.st12{fill:none;stroke:#4293B7;stroke-width:3;stroke-miterlimit:10;}
</style>
<g id="Layer_2">
</g>
<g id="Layer_1">
	<circle class="st0" cx="50" cy="50" r="50"/>
	<path class="st10" d="M72.8,49.5c-0.2-6.5-0.3-6.1-0.3-13.1c0-2.5-0.2-5,0-7.5c0-0.5,1.4-4.4,0.7-5.4c-0.5-0.8-1.8-1.6-2.6-1.9
		c-1.3-0.4-4.4,0.3-5.8,0.3C62.3,22,59.7,22,57.2,22c-10.3,0-20.7-0.4-31,0.4c-0.4,0-0.7,0.4-0.6,0.8c0.4,2,0.2,3.5,1.9,4.2
		l-0.3,0.4c-0.4-0.2-1-0.1-1,0.5c-0.1,9.6-0.1,19.2-0.1,28.8c0,4.5,0,9,0,13.5c0,1.7-0.7,6.2,0.3,7.8c0.9,1.3,7.2-0.2,5.4,0
		c-4.4,0.3,8.7,0.4,13.1,0.6c9.4,0.3,18.8-0.4,28.2,0.4c0.3,0,0.6-0.3,0.6-0.6C73.6,69,73.2,59.3,72.8,49.5z M54.1,46.4
		c-4.2,0.1-8.5,0.7-12.7,0.4c-0.3,0-0.5,0-0.8,0c-0.1,0-0.2-0.1-0.4-0.1c-2.7-0.6-2.1-5.1,0.7-4.9c4.4,0.3,8.8-0.2,13.2-0.3
		C57.3,41.3,57.3,46.3,54.1,46.4z M62.1,35.7c-2.7,0.3-4.9,2.1-7.6,2.5c-1.9,0.3-3.2-0.3-5-0.7c-2.9-0.6-5.4,1-8.1,0.4
		c-0.5-0.1-2.7-1.5-2.6-1.5c-3,1.2-4.3-3.6-1.3-4.8c2-0.8,2.4,0.2,4.2,0.7c2.2,0.7,4.1-0.2,6.4-0.1c3.1,0.2,4.4,1.4,7.8,0.4
		c2.2-0.7,4-1.6,6.2-1.8C65.3,30.3,65.3,35.3,62.1,35.7z"/>
</g>
</svg>
