<?xml version="1.0" encoding="utf-8"?>
<!-- Generator: Adobe Illustrator 19.2.1, SVG Export Plug-In . SVG Version: 6.00 Build 0)  -->
<svg version="1.1" xmlns="http://www.w3.org/2000/svg" xmlns:xlink="http://www.w3.org/1999/xlink" x="0px" y="0px"
	 viewBox="0 0 100 100" style="enable-background:new 0 0 100 100;" xml:space="preserve">
<style type="text/css">
	.st0{fill:#7DB942;}
	.st1{fill:#E8DC4E;}
	.st2{fill:#4293B7;}
	.st3{fill:#D1C3C3;}
	.st4{fill:#E33D3D;}
	.st5{fill:#EFEFEF;}
	.st6{fill:#333232;}
	.st7{fill:#D7C851;}
	.st8{fill:#875BA6;}
	.st9{fill:#E57C4D;}
	.st10{fill:#FFFFFF;}
	.st11{fill:#FFFFFF;stroke:#FFFFFF;stroke-width:5;stroke-linecap:round;stroke-linejoin:round;stroke-miterlimit:10;}
	.st12{fill:none;stroke:#4293B7;stroke-width:3;stroke-miterlimit:10;}
</style>
<g id="Layer_2">
</g>
<g id="Layer_1">
	<circle class="st7" cx="50" cy="50" r="50"/>
	<g>
		<path class="st10" d="M34.4,68c0.5-1.7,1.1-3.4,0.9-5.2c-0.3-3.2-3-5.8-6.1-6.7c-2-0.6-4.2-0.6-6.1,0.4c-2,1.1-3.3,3.3-3.9,5.5
			c-0.6,2-0.6,4.4,0.7,6.1c0.9,1.2,2.4,1.9,3.9,2.2c1.5,0.3,3,0.3,4.5,0.3c1.3,0.1,2.7,0.2,3.9-0.3c1.2-0.5,2.2-1.8,1.9-3"/>
		<g>
			<path class="st10" d="M35,68.2c1.6-5.1,0.8-10.1-4.6-12.3c-4.6-1.9-9.2-0.2-11.2,4.3c-1.9,4.3-1.1,9.3,4,10.6
				c3.2,0.8,11.9,2,11.5-3.5c-0.1-0.8-1.3-0.8-1.3,0c0.3,4.3-10.2,2.6-11.8,1.5c-3.2-2.2-2.2-6.9-0.3-9.6c2.3-3.4,6.9-3.5,10.1-1.4
				c3.8,2.5,3.7,6.2,2.5,10.1C33.5,68.6,34.7,69,35,68.2L35,68.2z"/>
		</g>
	</g>
	<g>
		<path class="st10" d="M35.8,62.5C49,64,62.3,62.6,75.5,62.7c0.8,0,1.7,0,2.5,0.3c1.2,0.5,2.1,1.5,2.6,2.7c0.5,1.2,0.6,2.5,0.6,3.8
			c0,0.2,0,0.3-0.1,0.5c-0.1,0.2-0.4,0.2-0.6,0.3c-2.3,0.4-4.7,0.4-7.1,0.4c-3.7,0-7.3,0-11,0c-1.6,0-3.2,0-4.8-0.1
			c-1.4-0.1-2.9-0.4-4.3-0.6c-6.4-1.1-13-1.6-19.5-0.6"/>
		<g>
			<path class="st10" d="M35.8,63.1c7.5,0.8,15.1,0.7,22.6,0.5c3.8-0.1,7.6-0.2,11.3-0.3c1.6,0,4.1-0.5,5.7,0
				c6.4,3.2,6.8,5.4,1.4,6.7c-0.9,0-1.8,0.1-2.7,0.1c-7.3,0.1-14.5,0.2-21.7-0.9c-6.3-1-12.6-1.3-18.9-0.4c-0.8,0.1-0.5,1.3,0.3,1.2
				c10.2-1.4,20.1,1.4,30.3,1.4c4.8,0,9.8,0.3,14.6-0.2c2.4-0.3,2.7-0.2,3-2.3c1-7.8-8-6.9-12.9-6.9c-11,0.2-22,0.9-33-0.3
				C35,61.8,35,63.1,35.8,63.1L35.8,63.1z"/>
		</g>
	</g>
	<g>
		<g>
			<path class="st10" d="M36.5,49.9c0.1-0.2,0.1-0.4,0.1-0.7c-0.1-0.2-0.2-0.4-0.3-0.5c-1.5-1.8-2.8-4-3.3-6.3
				c-0.5-2.3-0.2-4.9,1.1-6.9c0.8-1.3,2.1-2.4,3.4-3.2c5.4-3.5,12.4-3.8,18.7-2.3c3.3,0.8,6.6,2.1,8.8,4.7c0.4,0.4,0.7,0.9,0.9,1.4
				c0.2,0.6,0.3,1.3,0.3,1.9c0,2-0.1,4-0.4,6.1c-0.2,1.5-0.5,3.1-1.3,4.4c-1.3,2.3-3.9,3.6-6.4,4.3c-4.8,1.3-9.9,0.7-14.7-0.3
				c-0.6-0.1-1.3-0.2-1.9-0.1c-0.4,0.1-0.7,0.4-1.1,0.6c-1.4,0.9-3,1.5-4.6,1.9C36,53.6,36.2,51.1,36.5,49.9z M45.8,45
				c-1,0.1-2,0.1-2.9,0.2c0.3-0.8,0.7-1.6,1-2.4c0.4-0.9,1.3-2.1,1.1-3.1c-0.2-0.9-1-1.3-1.8-1.2c-1.3,0.3-2.4,0.8-3.7,1
				c-1.6,0.2-0.9,2.7,0.7,2.4c0.5-0.1,1.1-0.2,1.6-0.4c0,0,0,0,0,0c-0.2,0.5-0.4,1-0.6,1.4c-0.5,1.1-0.9,2.1-1.3,3.2
				c-0.3,0.8,0.5,1.6,1.2,1.6c1.6,0,3.2-0.1,4.8-0.2C47.4,47.4,47.4,44.9,45.8,45z M53.1,43.7c-0.6,0-1.2,0-1.7,0.1c0,0,0,0,0,0
				c0.5-1.5,1.7-3,1.6-4.5c-0.1-0.9-0.8-1.5-1.7-1.5c-1.2,0.1-2.5,0.4-3.7,0.4c-1.6,0-1.6,2.5,0,2.5c0.9,0,1.7-0.2,2.6-0.3
				c-0.1,0.2-0.1,0.4-0.2,0.4c-0.2,0.5-0.4,1-0.6,1.6c-0.4,0.9-0.8,2-0.7,3c0.1,0.6,0.3,1,0.9,1.2c0.5,0.2,0.9,0.1,1.4-0.1
				c0.7-0.3,1.4-0.4,2.2-0.4C54.7,46.2,54.7,43.7,53.1,43.7z M60.4,42.9c-0.4,0-0.8,0-1.1,0.1c0.2-0.5,0.4-1.1,0.5-1.6
				c0.3-0.9,0.9-1.9,0.6-2.8c-0.2-0.8-0.8-1.1-1.6-1.2c-1.2-0.1-2.5,0.1-3.7,0.1c-1.6,0-1.6,2.5,0,2.5c0.8,0,1.7-0.2,2.5-0.2
				c-0.2,0.6-0.4,1.3-0.6,1.9c-0.3,0.9-0.9,2.1-0.8,3.1c0.3,2.4,2.9,0.6,4.1,0.6C62,45.5,62,43,60.4,42.9z"/>
		</g>
		<g>
			<path class="st10" d="M37.1,49.9c0.1-1.9-1.8-3.4-2.6-5.1c-2.8-6,0.3-11,6-13.4c6.3-2.7,23.4-3,24.9,6.5
				c0.7,4.2-0.4,10.2-4.1,12.6c-3.6,2.4-8.4,2.4-12.5,2c-2.4-0.2-5.1-1.2-7.6-0.9c-1.3,0.2-3.3,2.8-4.4,2.1
				c-0.5-0.4,0.1-2.8,0.3-3.8c0.2-0.8-1.1-1.2-1.2-0.3c-0.3,1.6-0.5,3.3-0.8,4.9c-0.1,0.5,0.3,0.9,0.8,0.8c2.4-0.7,4.8-2.4,7.2-2.4
				c2.8,0,5.7,1,8.5,1c3.9,0,8.5-0.5,11.6-3.2c4.9-4.2,5.4-14.7,0-18.5c-6.6-4.7-17.6-5-24.7-1.3c-3.4,1.8-6,4.5-6.4,8.4
				C32,41.2,32.3,43,33,44.6c0.6,1.5,3,3.8,2.8,5.3C35.8,50.7,37.1,50.7,37.1,49.9z"/>
			<path class="st10" d="M60.4,42.2c-0.5,0-0.8,0-1.3,0.1c0.3,0.3,0.5,0.5,0.8,0.8c0.6-1.6,2.1-4.2,0.7-5.7
				c-0.4-0.5-1.1-0.7-1.7-0.7c-1.2-0.1-2.9-0.1-4,0.2c-1.1,0.3-1.8,1.4-1.4,2.6c0.6,1.7,2.9,1.1,4.2,1c-0.2-0.3-0.4-0.5-0.6-0.8
				c-0.5,1.7-2.1,4.2-1.2,6c0.6,1.3,1.9,1.1,3.1,0.8c1.1-0.3,2.7-0.2,3.2-1.5c0.4-1.2-0.3-2.4-1.6-2.6c-0.8-0.1-1.2,1.1-0.3,1.2
				c0.8,0.2,0.9,0.9,0.2,1.2c-0.1,0.1-0.5,0-0.6,0.1c-0.5,0.2-1.2,0.5-1.7,0.5c-1.6,0-1-1.6-0.6-2.6c0.3-0.9,0.6-1.8,0.9-2.7
				c0.1-0.4-0.2-0.8-0.6-0.8c-0.7,0-1.9,0.4-2.5,0.2c-0.6-0.2-0.7-0.5-0.4-0.9c0.2-0.4,0.5-0.5,1-0.4c0.5,0,1-0.1,1.5-0.1
				c0.5,0,1.3-0.1,1.7,0c0.9,0.4,0.8,1.3,0.5,2c-0.3,0.9-0.6,1.8-1,2.7c-0.2,0.5,0.4,0.8,0.8,0.8c0.3,0,0.6,0,1-0.1
				C61.3,43.5,61.3,42.2,60.4,42.2z"/>
			<path class="st10" d="M53.1,43.1c-0.6,0-1.3,0-1.9,0.2c0.3,0.3,0.5,0.5,0.8,0.8c0.7-1.7,2.6-4.2,1.2-6c-1.2-1.5-4.2-0.7-5.8-0.4
				c-1.2,0.2-2,1.3-1.6,2.5c0.6,1.9,3.1,1.2,4.5,0.9c-0.3-0.3-0.5-0.5-0.8-0.8c-0.6,1.7-2.1,3.9-1.4,5.8c0.6,1.7,2.2,1.3,3.5,1
				c1.3-0.3,3,0,3.3-1.8C55.1,44.1,54.3,43.2,53.1,43.1c-0.8-0.1-0.8,1.2,0,1.3c0.4,0.1,0.7,0.6,0.5,1c-0.2,0.4-0.8,0.2-1.1,0.3
				c-0.9,0.2-2.9,0.9-3.2-0.6c-0.2-1.2,1.1-3.2,1.5-4.3c0.2-0.5-0.4-0.9-0.8-0.8c-0.8,0.1-2.7,0.8-2.9-0.3c-0.1-0.7,2.4-0.9,3-1
				c1.1-0.1,1-0.3,1.6,0.7c0.6,1,0.4,1.2,0,2.2c-0.3,0.7-0.7,1.4-1,2.1c-0.2,0.5,0.4,0.9,0.8,0.8c0.5-0.1,1.1-0.1,1.6-0.1
				C53.9,44.3,53.9,43.1,53.1,43.1z"/>
			<path class="st10" d="M45.8,44.3c-1,0.1-2,0.1-2.9,0.2c0.2,0.3,0.4,0.5,0.6,0.8c0.6-1.4,1.4-2.7,1.9-4.1c0.3-0.8,0.5-1.6,0.1-2.4
				c-1-1.9-3.4-0.7-4.9-0.3c-1.3,0.4-3,0.6-2.6,2.5c0.5,1.9,2.5,1.5,3.9,1.1c-0.2-0.3-0.5-0.6-0.7-0.9C40.8,42,40.4,43,40,44
				c-0.4,0.9-1.1,2.1-0.7,3.2c0.8,1.8,3.7,1.1,5.2,1c1.3-0.1,2.9-0.1,3.2-1.8C47.8,45.2,47,44.4,45.8,44.3c-0.8,0-0.8,1.2,0,1.3
				c0.8,0.9,0.6,1.3-0.7,1.3c-0.5,0-0.9,0.1-1.4,0.1c-1.2,0.1-1.8,0.4-2.6-0.6C40.6,46,40.5,45.5,41,45c0.2-0.6,0.5-1.2,0.7-1.8
				c0.2-0.5,0.4-1,0.7-1.5c0.3-0.5-0.2-1.1-0.7-0.9c-0.6,0.2-1,0.4-1.7,0.1c-0.8-0.4-0.6-0.5,0.1-0.9c0.4-0.2,1.1-0.3,1.5-0.4
				c1-0.3,1.1-0.5,2,0.2c1,0.7,0.8,0.7,0.4,1.6c-0.2,0.4-0.4,0.7-0.6,1.1c-0.4,0.8-0.8,1.7-1.1,2.6c-0.2,0.4,0.2,0.8,0.6,0.8
				c1,0,2-0.1,2.9-0.2C46.7,45.6,46.7,44.3,45.8,44.3z"/>
		</g>
	</g>
</g>
</svg>
