<?xml version="1.0" encoding="utf-8"?>
<!-- Generator: Adobe Illustrator 19.2.1, SVG Export Plug-In . SVG Version: 6.00 Build 0)  -->
<svg version="1.1" xmlns="http://www.w3.org/2000/svg" xmlns:xlink="http://www.w3.org/1999/xlink" x="0px" y="0px"
	 viewBox="0 0 100 100" style="enable-background:new 0 0 100 100;" xml:space="preserve">
<style type="text/css">
	.st0{fill:#7DB942;}
	.st1{fill:#E8DC4E;}
	.st2{fill:#4293B7;}
	.st3{fill:#D1C3C3;}
	.st4{fill:#E33D3D;}
	.st5{fill:#EFEFEF;}
	.st6{fill:#333232;}
	.st7{fill:#D7C851;}
	.st8{fill:#875BA6;}
	.st9{fill:#E57C4D;}
	.st10{fill:#FFFFFF;}
	.st11{fill:#FFFFFF;stroke:#FFFFFF;stroke-width:5;stroke-linecap:round;stroke-linejoin:round;stroke-miterlimit:10;}
	.st12{fill:none;stroke:#4293B7;stroke-width:3;stroke-miterlimit:10;}
</style>
<g id="Layer_2">
</g>
<g id="Layer_1">
	<circle class="st8" cx="50" cy="50" r="50"/>
	<g>
		<path class="st10" d="M37.7,60.4c0.6,0.8,1.3,1.7,1.9,2.5c0.7,1,1.5,2,1.8,3.2c0.2,0.8,0.2,1.5,0.2,2.3c0,4.3,0,8.6,0,12.9
			c7.4,0,14.7,0,22.1,0.2c0-2,0.1-3.9,0.4-5.9c0-0.2,0.1-0.5,0.2-0.6c0.1-0.2,0.3-0.2,0.6-0.3c6.4-2.4,11.1-8.9,11.4-15.7
			c-9.5,0.6-19,0.6-28.4,0.6c-3.4,0-6.9,0-10.3-0.4"/>
		<g>
			<path class="st10" d="M36.6,61.1c2.4,3.1,3.7,5.3,3.7,9.3c0.1,3.7,0,7.4,0,11.1c0,0.7,0.6,1.3,1.3,1.3c7.4,0,14.7,0.1,22.1,0.2
				c0.7,0,1.2-0.6,1.2-1.3c0-1.2-0.3-4.7,0.6-5.7c0.5-0.6,2.3-1.1,3-1.5c1.8-1.2,3.4-2.6,4.8-4.3c2.6-3.2,3.8-6.9,4.2-11
				c0.1-0.6-0.6-1.3-1.3-1.3c-12.7,0.8-26.1,1.5-38.7,0.2c-1.6-0.2-1.6,2.3,0,2.5c12.7,1.3,26,0.6,38.7-0.2
				c-0.4-0.4-0.8-0.8-1.3-1.3c-0.5,6.2-4,11.3-9.5,14.1c-3.6,1.8-3,4.2-3.1,8.4c0.4-0.4,0.8-0.8,1.3-1.3c-7.4-0.2-14.7-0.3-22.1-0.2
				c0.4,0.4,0.8,0.8,1.3,1.3c0-4.6,0.6-9.6,0-14.1c-0.4-3.1-2.2-5.1-4.1-7.5C37.8,58.5,35.6,59.8,36.6,61.1L36.6,61.1z"/>
		</g>
	</g>
	<g>
		<path class="st10" d="M30.6,53.5c3.9,0.1,7.9,0.2,11.8,0.2c0.1,0,0.3,0,0.4-0.1c0.1-0.1,0.1-0.3,0.2-0.4
			c0.6-5.7,1.4-11.3,2.6-16.9c0-0.2,0.1-0.4,0-0.5c-0.1-0.2-0.4-0.2-0.6-0.2c-5.6,0-11.1,0-16.7,0c2.3,5.5,3.2,11.6,2.6,17.6"/>
		<g>
			<path class="st10" d="M30.6,54.7c3.5,0.1,7,0.2,10.5,0.2c1.5,0,2.3,0.2,3-1.2c0.4-0.9,0.3-2.2,0.4-3.1c0.2-2.1,0.5-4.1,0.9-6.2
				c0.4-2.7,1.6-5.9,1.5-8.6c0-0.6-0.4-1-0.9-1.2c-2.3-0.7-5.5-0.2-7.9-0.2c-3.3,0-6.5,0-9.8,0c-0.7,0-1.5,0.8-1.2,1.6
				c2.2,5.6,3.1,11.3,2.6,17.2c-0.1,1.6,2.4,1.6,2.5,0c0.5-6.2-0.4-12.1-2.7-17.9c-0.4,0.5-0.8,1.1-1.2,1.6c2.8,0,5.6,0,8.4,0
				c2.5,0,6.2-0.6,8.6,0.1c-0.3-0.4-0.6-0.8-0.9-1.2c0.2,2.3-0.9,5.1-1.3,7.3c-0.3,2.1-0.6,4.1-0.9,6.2c-0.4,3.1-0.6,3.1-3.7,3.1
				c-2.6-0.1-5.3-0.1-7.9-0.2C28.9,52.2,28.9,54.7,30.6,54.7L30.6,54.7z"/>
		</g>
	</g>
	<g>
		<path class="st10" d="M45.3,35.7c0.7-1.3,1.1-2.7,1.2-4.2c0-0.5,0-1.1-0.2-1.6c-0.4-0.9-1.4-1.2-2.4-1.4c-1.9-0.4-3.9-0.4-5.9-0.5
			c-1.4,0-2.8,0-4.2-0.1c-2.3,0-4.5-0.1-6.8,0.4c-0.3,0.1-0.6,0.2-0.8,0.4c-0.2,0.3-0.2,0.6-0.2,0.9c0.1,2,1.1,3.8,2.1,5.6"/>
		<g>
			<path class="st10" d="M46.4,36.4c1-2.4,2.5-5.9,0.2-8c-2.4-2.2-7.8-1.5-10.7-1.6c-2.5,0-8.7-1-10.6,1.2c-1.8,2.1,0.7,6.1,1.7,8
				c0.8,1.4,2.9,0.2,2.2-1.3c-1.3-2.3-3.3-4.4,0.5-5.4c1.4-0.4,3.3-0.1,4.8-0.1c1.7,0,3.3,0,5,0.1c1.4,0,2.7,0.1,4.1,0.4
				c1.7,1.7,1.9,3.5,0.6,5.4C43.6,36.6,45.8,37.8,46.4,36.4L46.4,36.4z"/>
		</g>
	</g>
	<g>
		<path class="st10" d="M33.1,25.7c2.5-0.1,4.9,0,7.3,0.3"/>
		<g>
			<path class="st10" d="M33.1,27c2.5-0.1,4.9,0,7.3,0.3c1.6,0.2,1.6-2.3,0-2.5c-2.4-0.3-4.9-0.4-7.3-0.3
				C31.5,24.6,31.5,27.1,33.1,27L33.1,27z"/>
		</g>
	</g>
	<line class="st11" x1="50" y1="53.7" x2="79.3" y2="53.7"/>
</g>
</svg>
