<?xml version="1.0" encoding="utf-8"?>
<!-- Generator: Adobe Illustrator 19.2.1, SVG Export Plug-In . SVG Version: 6.00 Build 0)  -->
<svg version="1.1" id="Layer_1" xmlns="http://www.w3.org/2000/svg" xmlns:xlink="http://www.w3.org/1999/xlink" x="0px" y="0px"
	 viewBox="0 0 100 100" style="enable-background:new 0 0 100 100;" xml:space="preserve">
<style type="text/css">
	.st0{fill:#333232;}
</style>
<g>
	<g>
		<path class="st0" d="M45.3,11.1c-7.7,0.4-14.4,3.7-20.5,8.3c-5.7,4.3-11.5,9.2-13.4,16.4c-3.7,14.4,1.9,34.3,15.6,41.7
			c13.6,7.3,35.1,13.4,49.3,4.6c13.3-8.2,14.3-27.3,12.4-41.3c-2.4-17.5-20.9-28.6-37.6-29.1c-3.2-0.1-3.2,4.9,0,5
			c8.6,0.3,16.4,4,23.3,8.9c7.6,5.4,9.7,13,9.8,22c0.2,8.2,0,17.4-4.7,24.5c-5.1,7.8-14.6,9.8-23.2,9c-8.9-0.8-18.9-3.7-26.8-7.9
			C21.6,68.9,17.4,59.7,16,51c-1.5-9.3,0.1-17.5,7.2-23.8c6.2-5.5,13.5-10.7,22.1-11.1C48.5,16,48.5,11,45.3,11.1L45.3,11.1z"/>
	</g>
</g>
<g>
	<g>
		<path class="st0" d="M30.9,31.2c-1.7,2.2-0.8,5.7,1.7,7c2.4,1.3,6.2,0.9,7.5-1.7c1.5-3-1.5-6.8-4.6-6.8c-3.3,0-5.5,4-3.5,6.7
			c0.8,1.1,2.2,1.6,3.4,0.9c1.1-0.6,1.7-2.3,0.9-3.4c-0.3-0.4,0,0.2-0.2,0.5c-0.1,0.2-0.7,0.2-0.7,0.3c0,0,0.4,0.3,0.3,0.4
			c0.2-0.2,0-0.8,0.3-1.1c0.2-0.2,0.5-0.3,0.1-0.2c-0.1,0-0.4,0-0.1,0c-0.2,0-0.4,0-0.6,0c0.2,0-0.3-0.1-0.2,0
			c-0.1,0-0.2-0.2-0.2-0.1c0,0,0.2,0.3,0.2,0.3C35.1,34,35,33.8,35.1,34c-0.2-0.3,0.2-0.2-0.1,0c-0.2,0.2,0.2-0.3,0.2-0.3
			c0.8-1.1,0.2-2.8-0.9-3.4C33.1,29.6,31.7,30.1,30.9,31.2L30.9,31.2z"/>
	</g>
</g>
<g>
	<g>
		<path class="st0" d="M64.8,30.6c-2.7,0.9-4.3,4-2.7,6.6c1.3,2.2,4.3,3,6.7,2.3c2.7-0.8,3.7-4,2.2-6.3c-1.6-2.5-4.8-2.5-7.3-1.7
			c-1.3,0.4-2.1,1.7-1.7,3.1c0.3,1.3,1.8,2.2,3.1,1.7c0.4-0.1,0.9-0.3,1.3-0.4c0.1,0,0.5,0,0.3,0c-0.3,0,0.4,0.1,0.2,0
			c0.3,0.1,0,0.2,0-0.1c-0.2-0.6,0.2-0.9,0.7-1.2c-0.1,0.1-0.4,0-0.1,0c-0.2,0-0.4,0-0.5,0c0.4,0-0.6-0.1-0.4-0.1
			c-0.4,0-0.1-0.2,0.1,0.2c0,0.1,0,0.2,0,0.3c0,0.2-0.2,0.3-0.3,0.3c1.3-0.4,2.1-1.7,1.7-3.1C67.6,31.1,66.1,30.2,64.8,30.6
			L64.8,30.6z"/>
	</g>
</g>
<g>
	<g>
		<path class="st0" d="M39.8,70c1.1,3,3.6,3.6,6.4,4.9c2.9,1.3,5.8,2.6,9,3c5.6,0.6,11.3-2.1,12.3-8c0.5-3.1-4.3-4.5-4.8-1.3
			c-0.8,4.9-6,4.9-9.9,3.7c-0.8-0.3-7.7-2.4-8.1-3.5C43.6,65.7,38.7,67,39.8,70L39.8,70z"/>
	</g>
</g>
</svg>
