<?xml version="1.0" encoding="utf-8"?>
<!-- Generator: Adobe Illustrator 19.2.1, SVG Export Plug-In . SVG Version: 6.00 Build 0)  -->
<svg version="1.1" id="Layer_1" xmlns="http://www.w3.org/2000/svg" xmlns:xlink="http://www.w3.org/1999/xlink" x="0px" y="0px"
	 viewBox="0 0 100 100" style="enable-background:new 0 0 100 100;" xml:space="preserve">
<style type="text/css">
	.st0{fill:#333232;}
</style>
<g>
	<g>
		<g>
			<path class="st0" d="M48.1,14.2c-13.1,2-24.6,11-29.7,23.3c-5.7,13.7-4.3,30.9,8.2,40.2c6.2,4.6,13.7,6.6,21.2,7.6
				c7.2,1,14.8,1.4,21.5-2c12.6-6.4,17.3-21.7,14.5-34.9c-3-14.5-14.9-32.8-31.2-33.6c-3.2-0.2-3.2,4.8,0,5
				c15.7,0.8,26.8,22.1,27,35.9c0.1,7.5-2.7,15-8.4,20.1c-6.2,5.5-14.1,5.6-21.8,4.7c-8.1-0.9-16.6-3.2-22.7-9.1
				c-6.7-6.5-7.2-15.5-5.9-24.3C23,32.4,35,21.2,49.4,19C52.6,18.5,51.2,13.7,48.1,14.2L48.1,14.2z"/>
		</g>
	</g>
	<g>
		<g>
			<path class="st0" d="M39.9,45c3.2,0,3.2-5,0-5C36.6,40,36.6,45,39.9,45L39.9,45z"/>
		</g>
	</g>
	<g>
		<g>
			<path class="st0" d="M60.1,45c3.2,0,3.2-5,0-5C56.9,40,56.9,45,60.1,45L60.1,45z"/>
		</g>
	</g>
	<g>
		<g>
			<path class="st0" d="M47.6,49c-0.3,1.1-0.6,2.3-0.9,3.4c-0.3,1.4-0.7,2.8,0.2,4c1.6,2.1,5,1.2,7.1,0.4c1.1-0.4,2.3-1.7,1.7-3.1
				c-0.6-1.5-1.2-2.9-1.8-4.4c-0.5-1.2-1.7-2.1-3.1-1.7c-1.2,0.3-2.3,1.8-1.7,3.1c0.6,1.5,1.2,2.9,1.8,4.4c0.6-1,1.2-2.1,1.7-3.1
				c-0.6,0.2-1.3,0.4-1.9,0.6c-0.2,0-0.4,0.1-0.5,0.1c-0.2,0-0.4,0-0.5,0c-0.2,0-0.2,0,0,0c0.4,0.2,0.7,0.4,1.1,0.6
				c-0.1-0.1-0.1-0.1-0.2-0.2c0.2,0.4,0.4,0.7,0.6,1.1c-0.1,0.6-0.1,0.6,0,0.3c0.1-0.2,0.1-0.4,0.2-0.6c0.1-0.4,0.2-0.8,0.3-1.2
				c0.2-0.8,0.4-1.6,0.6-2.4C53.2,47.2,48.4,45.9,47.6,49L47.6,49z"/>
		</g>
	</g>
	<g>
		<g>
			<path class="st0" d="M37.7,64c1.1,0.4,2.3,3.5,3.2,4.4c1.1,1.2,2.5,2.2,3.9,3c3.5,1.9,7.5,2.4,11.4,1.8
				c8.4-1.2,13.2-6.1,14.3-14.3c0.4-3.2-4.6-3.2-5,0c-1,7.8-9.6,11.4-16.8,8.8c-4.6-1.7-5.3-7.1-9.7-8.5C36,58.2,34.7,63.1,37.7,64
				L37.7,64z"/>
		</g>
	</g>
</g>
</svg>
