<?xml version="1.0" encoding="utf-8"?>
<!-- Generator: Adobe Illustrator 19.2.1, SVG Export Plug-In . SVG Version: 6.00 Build 0)  -->
<svg version="1.1" id="Layer_1" xmlns="http://www.w3.org/2000/svg" xmlns:xlink="http://www.w3.org/1999/xlink" x="0px" y="0px"
	 viewBox="0 0 100 100" style="enable-background:new 0 0 100 100;" xml:space="preserve">
<style type="text/css">
	.st0{fill:#333232;}
</style>
<g>
	<g>
		<g>
			<path class="st0" d="M36.6,15.8c-15,0.5-23.1,14.9-23.6,28.5c-0.5,14.3,2.4,31.9,16.9,38.3c13.9,6.1,31.6,3.7,44.5-3.9
				c13.8-8.1,14.9-25,10.8-39.2c-2.3-8.1-6.9-15.3-13.8-20.2c-7.9-5.5-16.7-5.6-25.9-4.5c-3.2,0.4-3.2,5.4,0,5
				c8.9-1,17.3-1.2,24.6,4.8c6,4.9,9.5,12.1,11.1,19.6c1.6,8,2.1,18.9-3.5,25.6c-5,5.9-14.1,9-21.4,10.4c-7.5,1.4-15.8,1.2-23.1-1.6
				c-8.2-3.1-11.9-9.6-13.6-17.9c-2.8-14-2.9-39.3,17-39.9C39.8,20.7,39.8,15.7,36.6,15.8L36.6,15.8z"/>
		</g>
	</g>
	<g>
		<g>
			<path class="st0" d="M33.4,44.6c2.1,0.1,4.2,0.3,6.2,0.4c3.2,0.2,3.2-4.8,0-5c-2.1-0.1-4.2-0.3-6.2-0.4
				C30.2,39.4,30.2,44.4,33.4,44.6L33.4,44.6z"/>
		</g>
	</g>
	<g>
		<g>
			<path class="st0" d="M59.3,44c1.4-0.2,2.8-0.4,4.2-0.7c1.3-0.2,2.1-1.9,1.7-3.1c-0.4-1.4-1.7-2-3.1-1.7c-1.4,0.2-2.8,0.4-4.2,0.7
				c-1.3,0.2-2.1,1.9-1.7,3.1C56.6,43.6,58,44.2,59.3,44L59.3,44z"/>
		</g>
	</g>
	<g>
		<g>
			<path class="st0" d="M33.4,58.6c2.3,7.7,10.2,12,17.9,12.6c9.6,0.8,13.6-5.9,15.4-14.2c0.7-3.1-4.1-4.5-4.8-1.3
				c-1.4,6.4-3.7,11.7-11.5,10.4c-5.2-0.8-10.6-3.5-12.2-8.8C37.3,54.2,32.5,55.5,33.4,58.6L33.4,58.6z"/>
		</g>
	</g>
</g>
</svg>
