<?xml version="1.0" encoding="utf-8"?>
<!-- Generator: Adobe Illustrator 19.2.1, SVG Export Plug-In . SVG Version: 6.00 Build 0)  -->
<svg version="1.1" id="Layer_1" xmlns="http://www.w3.org/2000/svg" xmlns:xlink="http://www.w3.org/1999/xlink" x="0px" y="0px"
	 viewBox="0 0 100 100" style="enable-background:new 0 0 100 100;" xml:space="preserve">
<style type="text/css">
	.st0{fill:#333232;}
</style>
<g>
	<g>
		<g>
			<path class="st0" d="M25.1,23.9c-4.4,14-5.7,29.7,1.2,43.2C31.6,77.6,43.3,88.2,56,86.2c6.1-1,13.6-4.3,17.6-9.1
				c4.3-5.2,4.5-13.2,4.8-19.6c0.4-7.4,1.5-16.7-1.1-23.8c-2.2-5.9-7.4-10.6-12.5-14c-12.4-8.3-30-8.6-40,3.6c-2,2.5,1.5,6,3.5,3.5
				c10.4-12.7,28.4-8.9,39.1,1.3c6.3,6,6.2,12.6,6.2,20.7c0,7.3,1,18.2-3.4,24.4c-4.3,6.2-15.3,9.6-22.2,7.4
				c-6.4-2-11.7-6.8-15.3-12.2c-8.5-12.9-7.3-29-2.9-43.1C30.9,22.1,26,20.8,25.1,23.9L25.1,23.9z"/>
		</g>
	</g>
	<g>
		<g>
			<path class="st0" d="M37,41.5c2.2-0.1,4.5-0.2,6.7-0.3c3.2-0.2,3.2-5.2,0-5c-2.2,0.1-4.5,0.2-6.7,0.3
				C33.8,36.6,33.8,41.6,37,41.5L37,41.5z"/>
		</g>
	</g>
	<g>
		<g>
			<path class="st0" d="M59,41.5c1.8,0,3.5,0,5.2,0c3.2,0,3.2-5,0-5c-1.7,0-3.5,0-5.2,0C55.8,36.5,55.8,41.5,59,41.5L59,41.5z"/>
		</g>
	</g>
	<g>
		<g>
			<path class="st0" d="M41.8,61.9C43.6,68.7,47.4,75,55.4,74c7.6-0.9,9.6-11,9-17.3c-0.3-3.2-5.3-3.2-5,0
				c0.3,3.8-0.1,11.6-4.9,12.4c-5.2,0.8-6.9-4.7-7.9-8.5C45.8,57.5,41,58.8,41.8,61.9L41.8,61.9z"/>
		</g>
	</g>
</g>
</svg>
