<?xml version="1.0" encoding="utf-8"?>
<!-- Generator: Adobe Illustrator 19.2.1, SVG Export Plug-In . SVG Version: 6.00 Build 0)  -->
<svg version="1.1" id="Layer_1" xmlns="http://www.w3.org/2000/svg" xmlns:xlink="http://www.w3.org/1999/xlink" x="0px" y="0px"
	 viewBox="0 0 100 100" style="enable-background:new 0 0 100 100;" xml:space="preserve">
<style type="text/css">
	.st0{fill:#333232;}
</style>
<g>
	<g>
		<g>
			<path class="st0" d="M47.6,16c-12.5-0.4-28.7,9.1-31.7,21.8c-3.1,13.1-1.9,30.3,9.7,38.9c6.1,4.5,13.6,6.3,21,7.2
				c7.8,1,15.9,1.5,23.1-2.1c14.2-7,16-23.9,15.6-38.1c-0.2-7.2-1.5-16.2-6.7-21.6c-5.6-5.9-16.2-7-23.9-6.7c-3.2,0.1-3.2,5.1,0,5
				c7.4-0.3,18.1,0.7,22.1,8c3.8,7,3.8,15.5,3.3,23.3c-0.5,7.6-1.3,15.8-6.9,21.5c-6.2,6.4-14.5,6.9-22.9,6.1
				c-7.8-0.7-16.1-2.1-22.5-7.2c-6.5-5.2-8-12.9-8-20.7c0-7.8,0.3-15.7,6.5-21.2c5.8-5.2,13.3-9.4,21.3-9.2
				C50.8,21.1,50.8,16.1,47.6,16L47.6,16z"/>
		</g>
	</g>
	<g>
		<g>
			<path class="st0" d="M35.6,45.4c3.2,0,3.2-5,0-5C32.4,40.4,32.4,45.4,35.6,45.4L35.6,45.4z"/>
		</g>
	</g>
	<g>
		<g>
			<path class="st0" d="M64.3,45.7c3.2,0,3.2-5,0-5C61.1,40.7,61.1,45.7,64.3,45.7L64.3,45.7z"/>
		</g>
	</g>
	<g>
		<g>
			<path class="st0" d="M33.3,62.7c8.4,16.4,32.2,13.6,36.9-4c0.6-2.2-1.8-3.8-3.7-2.8C58,60,45.6,62.6,37.1,57
				c-2.7-1.8-5.2,2.5-2.5,4.3c10,6.6,24.4,3.8,34.4-1.2c-1.2-0.9-2.4-1.9-3.7-2.8C61.7,70.9,44,72.6,37.6,60.1
				C36.1,57.3,31.8,59.8,33.3,62.7L33.3,62.7z"/>
		</g>
	</g>
</g>
</svg>
