<?xml version="1.0" encoding="utf-8"?>
<!-- Generator: Adobe Illustrator 19.2.1, SVG Export Plug-In . SVG Version: 6.00 Build 0)  -->
<svg version="1.1" id="Layer_1" xmlns="http://www.w3.org/2000/svg" xmlns:xlink="http://www.w3.org/1999/xlink" x="0px" y="0px"
	 viewBox="0 0 100 100" style="enable-background:new 0 0 100 100;" xml:space="preserve">
<style type="text/css">
	.st0{fill:#333232;}
</style>
<g>
	<g>
		<g>
			<path class="st0" d="M31.8,22.2c-5.3,2.9-10.1,6.1-12.2,12.1c-2.4,6.6-3,15-1.9,21.9c2.2,14.1,12.6,21.2,25.9,23.5
				c6.9,1.2,12.9,1.5,19.3-1.8c6-3.1,11.8-7.2,15.5-12.8c7.1-10.7,5.6-25.1-3-34.4c-5.1-5.5-12.1-8-19.1-10c-7-2-14.2-2.4-20.6,1.5
				c-2.7,1.7-0.2,6,2.5,4.3c6.3-3.9,13.4-2.1,20,0c6.4,2.1,12.2,4.8,16,10.7c8.6,13.1,1.4,27.4-10.8,34.7
				c-7.2,4.3-13.6,4.1-21.5,2.3c-6.5-1.5-12.7-4.2-16.2-10.1c-3.4-5.9-3.8-12.9-3-19.5c0.5-4.2,1.1-9.3,4-12.6
				c2.1-2.4,5.1-3.9,7.8-5.5C37.1,25,34.6,20.7,31.8,22.2L31.8,22.2z"/>
		</g>
	</g>
	<g>
		<g>
			<path class="st0" d="M39.5,44.3c3.2,0,3.2-5,0-5C36.3,39.3,36.3,44.3,39.5,44.3L39.5,44.3z"/>
		</g>
	</g>
	<g>
		<g>
			<path class="st0" d="M59.8,44.8c3.2,0,3.2-5,0-5C56.5,39.8,56.5,44.8,59.8,44.8L59.8,44.8z"/>
		</g>
	</g>
	<g>
		<g>
			<path class="st0" d="M39.6,60.6c2.6,5.2,5.9,9.6,12.2,9.5c5.6-0.1,8.5-5.6,9.3-10.6c0.5-3.1-4.3-4.5-4.8-1.3
				c-0.5,3.1-1.8,7.4-5.7,6.9c-3.4-0.4-5.2-4.2-6.6-7C42.5,55.2,38.2,57.7,39.6,60.6L39.6,60.6z"/>
		</g>
	</g>
</g>
</svg>
