<?xml version="1.0" encoding="utf-8"?>
<!-- Generator: Adobe Illustrator 19.2.1, SVG Export Plug-In . SVG Version: 6.00 Build 0)  -->
<svg version="1.1" id="Layer_1" xmlns="http://www.w3.org/2000/svg" xmlns:xlink="http://www.w3.org/1999/xlink" x="0px" y="0px"
	 viewBox="0 0 100 100" style="enable-background:new 0 0 100 100;" xml:space="preserve">
<style type="text/css">
	.st0{fill:#333232;}
</style>
<g>
	<g>
		<g>
			<path class="st0" d="M47.9,12.4c-15.7,3-29.7,10.9-33.2,27.6c-1.6,7.6-2.6,16.1-1.1,23.8c1.2,6.6,4.4,14.7,10.5,18.3
				c6.8,4.1,16.4,4.9,24.1,5.3c8,0.5,15.9,0.4,22.5-4.8c11.9-9.1,17.5-26.1,16.2-40.7C86,33.4,83.4,27,76.5,21.8
				c-7-5.3-14.9-9.7-23.8-7.6c-2.7,0.6-1.6,5,1.1,4.2c8.4-2,17.9,3.9,23.5,9.7c5.9,6.1,6,17.2,4.7,25.1c-1.3,8-4.7,15.8-10.1,21.9
				c-6.4,7.2-13.8,8.1-23,7.6c-7.6-0.4-20-0.9-25.5-7.1c-6-6.8-6.7-16.4-5.9-25c0.7-8.7,2-17.5,8.5-23.9c6.1-6.1,14.6-8.8,22.9-10.3
				C51.8,16.2,50.6,12,47.9,12.4L47.9,12.4z"/>
		</g>
	</g>
	<g>
		<g>
			<path class="st0" d="M35.2,35.7c-1.9,0-3.1,2-3.2,3.8c-0.1,1.9,1.2,3.2,2.9,3.5c1.6,0.4,3.4,0.3,4.5-1.1c1.1-1.1,1.4-3.4,0.8-4.9
				c-0.7-1.6-3.2-2.3-4.9-1.9c-1.5,0.5-2.5,1.8-2.8,3.4c-0.4,1.7,0.2,3.4,1.7,4.3c1.3,0.8,3,0.8,4.4,0.6c1.1-0.1,2.2-0.9,2.2-2.2
				c0-1.1-1-2.3-2.2-2.2c-0.6,0.1-1.3,0.1-1.9,0.1c-0.2,0-0.2,0,0,0c-0.2,0-0.3-0.1-0.4-0.1c0.2-0.1,0.5,0.5,0.4,0.5
				c0,0-0.1,0.5,0-0.1c0.1-0.5,0.1-0.1-0.1,0c-0.2,0.1-0.3,0.2-0.4,0.2c0.1,0,0.2,0,0.3,0c-0.2,0-0.1,0.1,0.2,0.1
				c0.4,0.2,0.4,0.1-0.1-0.1c-0.2-0.4-0.4-0.6-0.5-1s0,0.1,0,0.3c0,0.1,0,0.4,0,0.4c-0.1,0,0.4-0.4,0.3-0.3c0.3-0.3,0.4,0-0.1-0.2
				c-0.1,0-0.4,0-0.2,0c-0.5,0,0-0.1,0,0.2c0.3,0.2,0.4,0.5,0.3,0.9c0-0.1,0.1-0.2,0.1-0.3c0.4-0.5-0.2,0.2-0.4,0.3
				c-0.4,0.1-0.7,0.2-1.1,0.3c0.1,0,0.1,0,0.2,0C38.1,40.1,38.1,35.7,35.2,35.7L35.2,35.7z"/>
		</g>
	</g>
	<g>
		<g>
			<path class="st0" d="M62.7,34.9c-1.5-0.2-3,0.2-3.8,1.6c-0.8,1.3-0.6,2.8,0,4.2c1.1,2.3,3.7,3.8,6.2,2.6c2.7-1.3,2.7-5.1,0.3-6.6
				c-2.4-1.6-5.1-0.4-6.6,1.8c-0.7,1-0.2,2.5,0.8,3c1.1,0.6,2.3,0.2,3-0.8c0,0,0.2-0.1,0.3-0.2c-0.2,0.2,0.3-0.1,0.1-0.1
				c-0.1,0,0.2,0.1,0.2,0c0,0-0.2-0.1-0.3-0.2c-0.1-0.3,0.1-0.5,0.3-0.8c0.1-0.1,0.2,0,0.3-0.1c-0.2,0.1-0.3-0.1-0.1,0
				c0.2,0.1-0.1-0.1-0.1-0.1c0.1,0.2-0.1-0.1-0.1-0.1c0.1,0.1-0.2-0.4-0.2-0.4c-0.2-0.2,0.2-0.2-0.1,0.1c-0.4,0.4,0.5,0.7-1.2,0.5
				c1.1,0.2,2.4-0.3,2.7-1.5C64.5,36.6,63.9,35,62.7,34.9L62.7,34.9z"/>
		</g>
	</g>
	<g>
		<g>
			<path class="st0" d="M30.5,55c2,11.2,9.8,19.4,21.8,18.5c10.7-0.8,18.6-7.2,17.9-18.4c-0.2-2.8-4.6-2.8-4.4,0
				c0.2,3.5-0.2,7.4-2.9,10c-3,2.7-8.1,4.1-12.1,4.1c-9.5,0-14.5-6.5-16-15.3C34.3,51,29.9,52.2,30.5,55L30.5,55z"/>
		</g>
	</g>
</g>
</svg>
