<?xml version="1.0" encoding="utf-8"?>
<!-- Generator: Adobe Illustrator 19.2.1, SVG Export Plug-In . SVG Version: 6.00 Build 0)  -->
<svg version="1.1" id="Layer_1" xmlns="http://www.w3.org/2000/svg" xmlns:xlink="http://www.w3.org/1999/xlink" x="0px" y="0px"
	 viewBox="0 0 100 100" style="enable-background:new 0 0 100 100;" xml:space="preserve">
<style type="text/css">
	.st0{fill:#333232;}
</style>
<g>
	<g>
		<path class="st0" d="M52.3,15.4c-7.4-1.3-14.2,1.1-20.2,5.2c-6.5,4.4-9.4,9.7-12.5,16.8C16.3,45.1,14,51.5,14.4,60
			c0.4,7.7,4.7,13.3,10.5,18.2c10.3,8.7,27.6,16,40.8,10.1c13.4-6,20.7-24.3,20.7-38.1c0-8.5-2.8-16.4-8-23.1
			c-4.5-5.8-10.5-14.5-18.9-11.8c-3.1,1-1.7,5.8,1.3,4.8c5-1.6,9.2,4.7,11.9,7.9c2.3,2.8,4.6,5.8,6.1,9.2c3.3,7.4,3.3,15.8,1.1,23.5
			c-1.9,7-5.5,14.5-11,19.5c-6.7,6.1-15.5,5.8-23.7,3.4c-6.9-2-13.3-5.6-18.5-10.5c-3-2.8-6-6-7-10.2c-0.9-3.9-0.7-9.1,0.2-13
			c0.8-3.7,2.8-7.3,4.3-10.8c1.4-3.3,2.7-6.9,5-9.7c4.9-5.9,14-10.6,21.7-9.2C54.1,20.8,55.5,16,52.3,15.4L52.3,15.4z"/>
	</g>
</g>
<g>
	<g>
		<path class="st0" d="M42.2,37.4c-7-0.6-16.9,0.9-16.6,10c0.1,3.2,5.1,3.2,5,0c-0.1-5.9,7.7-5.3,11.6-5
			C45.4,42.6,45.4,37.6,42.2,37.4L42.2,37.4z"/>
	</g>
</g>
<g>
	<g>
		<path class="st0" d="M59,42.7c2.8-0.6,4.9-1.6,7.4-0.1c1.9,1.2,3.6,2.4,4.5,4.6c1.3,2.9,5.6,0.4,4.3-2.5c-1.3-3.1-4.2-5.2-7-6.8
			c-3.6-2-6.9-0.9-10.6,0C54.5,38.6,55.9,43.4,59,42.7L59,42.7z"/>
	</g>
</g>
<g>
	<g>
		<path class="st0" d="M37.5,49c3.2,0,3.2-5,0-5C34.3,44,34.3,49,37.5,49L37.5,49z"/>
	</g>
</g>
<g>
	<g>
		<path class="st0" d="M64.2,49c3.2,0,3.2-5,0-5C60.9,44,60.9,49,64.2,49L64.2,49z"/>
	</g>
</g>
<g>
	<g>
		<path class="st0" d="M27.9,64.3c5.7,9,13.2,12,23.5,13.3c8.8,1.1,20.5-4.3,22.4-13.8c0.6-3.1-4.2-4.5-4.8-1.3
			c-0.8,4.3-4.2,6.6-7.9,8.5c-4.1,2.1-7.6,2-12,1.2c-7.6-1.3-12.6-3.8-16.8-10.5C30.5,59.1,26.2,61.6,27.9,64.3L27.9,64.3z"/>
	</g>
</g>
</svg>
