<?xml version="1.0" encoding="utf-8"?>
<!-- Generator: Adobe Illustrator 19.2.1, SVG Export Plug-In . SVG Version: 6.00 Build 0)  -->
<svg version="1.1" id="Layer_1" xmlns="http://www.w3.org/2000/svg" xmlns:xlink="http://www.w3.org/1999/xlink" x="0px" y="0px"
	 viewBox="0 0 100 100" style="enable-background:new 0 0 100 100;" xml:space="preserve">
<style type="text/css">
	.st0{fill:#333232;}
</style>
<g>
	<g>
		<g>
			<path class="st0" d="M48.2,18C34.9,17.5,21.7,21.3,18,35.5c-3.5,13.7-2.8,29.8,7.9,40.1c9.4,9.1,27.6,14.4,39.8,8
				C79.9,76.3,85,59.9,83.4,44.8c-1.5-13.9-12.4-33.6-29.1-30.5c-3.2,0.6-1.8,5.4,1.3,4.8c8.4-1.5,15.7,6.8,19.2,13.5
				c3.4,6.7,4.4,14.5,3.7,21.9c-0.8,8.3-3.7,16-10.2,21.4c-6.8,5.7-15.1,6-23.4,4c-7.4-1.7-14.3-5.7-18.7-12
				c-4.6-6.5-4.9-13.6-4.4-21.3C22,39.7,22.8,31.5,29,27c5.4-4,12.7-4.2,19.2-4C51.4,23.1,51.4,18.1,48.2,18L48.2,18z"/>
		</g>
	</g>
	<g>
		<g>
			<path class="st0" d="M37.2,44.7c3.2,0,3.2-5,0-5C33.9,39.7,33.9,44.7,37.2,44.7L37.2,44.7z"/>
		</g>
	</g>
	<g>
		<g>
			<path class="st0" d="M60.7,44.2c3.2,0,3.2-5,0-5C57.4,39.2,57.4,44.2,60.7,44.2L60.7,44.2z"/>
		</g>
	</g>
	<g>
		<g>
			<path class="st0" d="M32.9,38.4c1.2-0.1,2.3-0.2,3.5-0.3c1.3-0.1,2.6-1.1,2.5-2.5c-0.1-1.3-1.1-2.6-2.5-2.5
				c-1.2,0.1-2.3,0.2-3.5,0.3c-1.3,0.1-2.6,1.1-2.5,2.5C30.5,37.1,31.5,38.5,32.9,38.4L32.9,38.4z"/>
		</g>
	</g>
	<g>
		<g>
			<path class="st0" d="M60.9,37.4c0.7,0.1,1.5,0.2,2.2,0.3c0.6,0.1,1.4-0.3,1.8-0.7c0.4-0.4,0.8-1.1,0.7-1.8c0-0.6-0.2-1.3-0.7-1.8
				c-0.5-0.5-1.1-0.6-1.8-0.7c-0.7-0.1-1.5-0.2-2.2-0.3c-0.6-0.1-1.4,0.3-1.8,0.7c-0.4,0.4-0.8,1.1-0.7,1.8c0,0.6,0.2,1.3,0.7,1.8
				C59.7,37.2,60.2,37.3,60.9,37.4L60.9,37.4z"/>
		</g>
	</g>
	<g>
		<g>
			<path class="st0" d="M39.9,62.9c3.4,0,6.9-0.1,10.3-0.1c0.5,0,8-0.5,7.7-0.8c1.4,1.5-2.6,4.6-3.1,4.8c-1.1,0.3-2.7,0-3.8-0.1
				c-3.7-0.3-5.9-2.2-8-5.2c-1.8-2.6-6.1-0.1-4.3,2.5c2.8,4,6.2,7.2,11.3,7.6c4.7,0.4,9.4,0.6,11.6-4.3c1.3-2.8,3-9.1-1.4-10
				c-2.7-0.6-6.4,0.4-9.2,0.5c-3.7,0-7.4,0.1-11.1,0.1C36.7,57.9,36.7,62.9,39.9,62.9L39.9,62.9z"/>
		</g>
	</g>
</g>
</svg>
