<?xml version="1.0" encoding="utf-8"?>
<!-- Generator: Adobe Illustrator 19.2.1, SVG Export Plug-In . SVG Version: 6.00 Build 0)  -->
<svg version="1.1" id="Layer_1" xmlns="http://www.w3.org/2000/svg" xmlns:xlink="http://www.w3.org/1999/xlink" x="0px" y="0px"
	 viewBox="0 0 100 100" style="enable-background:new 0 0 100 100;" xml:space="preserve">
<style type="text/css">
	.st0{fill:#333232;}
</style>
<g>
	<g>
		<g>
			<path class="st0" d="M33.9,26.7c-12.7,6.5-11,25.4-4.8,36c6.2,10.5,23.7,18.2,33.9,9.6c9.8-8.2,15.6-23.6,11.2-36.1
				c-4.8-13.6-25.4-14.3-36.9-10.5c-3,1-1.7,5.8,1.3,4.8c8.7-2.8,26.8-3.4,30.8,7c3.5,9.2-0.4,20.8-6.6,27.9c-4.4,5-9.2,7-15.7,4.5
				c-4.7-1.8-10-4.6-12.9-8.8c-5.6-8-8.1-24.9,2.2-30.2C39.3,29.5,36.8,25.2,33.9,26.7L33.9,26.7z"/>
		</g>
	</g>
	<g>
		<g>
			<path class="st0" d="M41,43.4c3.2,0,3.2-5,0-5C37.7,38.4,37.7,43.4,41,43.4L41,43.4z"/>
		</g>
	</g>
	<g>
		<g>
			<path class="st0" d="M57.6,43.9c3.2,0,3.2-5,0-5C54.4,38.9,54.4,43.9,57.6,43.9L57.6,43.9z"/>
		</g>
	</g>
	<g>
		<g>
			<path class="st0" d="M40.7,60.3c1.5,1.4,3,3.2,5,4.1c1.9,0.8,4.1,0.6,6.1,0.6c4.3,0,6.8-2.8,9-6.2c1.7-2.7-2.6-5.3-4.3-2.5
				c-1.6,2.5-2.8,3.8-5.8,3.8c-1.4,0-2.6,0.1-3.8-0.7c-1-0.6-1.8-1.7-2.6-2.5C41.9,54.5,38.4,58,40.7,60.3L40.7,60.3z"/>
		</g>
	</g>
</g>
</svg>
