<?xml version="1.0" encoding="utf-8"?>
<!-- Generator: Adobe Illustrator 19.2.1, SVG Export Plug-In . SVG Version: 6.00 Build 0)  -->
<svg version="1.1" id="Layer_1" xmlns="http://www.w3.org/2000/svg" xmlns:xlink="http://www.w3.org/1999/xlink" x="0px" y="0px"
	 viewBox="0 0 100 100" style="enable-background:new 0 0 100 100;" xml:space="preserve">
<style type="text/css">
	.st0{fill:#333232;}
</style>
<g>
	<g>
		<g>
			<path class="st0" d="M43,14.3c-7.1,1.1-15.7,2.2-21.5,6.9c-5.5,4.5-7.7,12.6-8.7,19.3c-2.2,14.9,3.8,28.3,16.7,36.1
				c12.8,7.8,30.8,13.3,43.9,3.6C85.3,71.6,90,56,86.6,41.9c-4-16.6-21.1-29.7-38.5-25.8c-2.8,0.6-1.6,5,1.2,4.4
				c8.8-2,18.9,2.2,25.3,8.2c6.3,5.9,9,15.9,8.6,24.3c-0.8,16.9-14.9,31.5-32.4,27.4c-15.3-3.7-32-12.1-33.8-29.5
				c-0.8-7.1,0.6-15.7,4.2-22c4.5-7.8,15-8.8,23-10.1C47,18.2,45.8,13.8,43,14.3L43,14.3z"/>
		</g>
	</g>
	<g>
		<g>
			<path class="st0" d="M37.9,38.2c0-0.4,0-0.8,0-1.1c-0.1-0.8,0.4-0.1-0.5,0.3c-0.4,0.1-0.8,0.2-1.1,0.3c-0.6,0-0.3-0.2-0.1,0.1
				c0.1,0.1,0.2,0.3,0.3,0.4c0.1,0.1,0.2,0.4,0.2,0.5c0,0,0.5-0.7,0.6-0.7c0.4,0,0.8,0,1.2,0c-0.4-0.1-0.7-0.5-0.9-0.8
				c-0.5-0.5,0.2-0.2-0.1-0.1c-0.1,0.1-0.6,0.2-0.2,0.3c0.4,0,0,0,0-0.1c0-0.7,0-1.3,0-2c0.1,0,0.1,0-0.2,0.1
				c-0.8,0-1.6,0.2-2.3,0.4c-1.2,0.2-1.9,1.7-1.6,2.8c0.4,1.3,1.6,1.7,2.8,1.6c1.8-0.3,3.9-0.4,4.9-2.2c1.1-2-0.3-4.4-2.4-4.9
				c-1.8-0.5-4,0.2-5,1.9c-1,1.7-0.5,3.8,0.7,5.3c1.2,1.5,3.4,2.9,5.3,1.7c2-1.3,1.9-3.7,1-5.6c-0.8-1.6-2.3-3.3-4.2-3.2
				c-2.6,0.1-3,3-2.9,5c0.1,1.2,1,2.3,2.3,2.3C36.8,40.4,38,39.4,37.9,38.2L37.9,38.2z"/>
		</g>
	</g>
	<g>
		<g>
			<path class="st0" d="M56.7,36.1c-2.3,3.7,2.3,9.4,6.3,6.8c1.9-1.2,2.2-3.6,1.2-5.5c-1-1.9-3-2.7-5-3.1c-1.2-0.3-2.4,0.4-2.8,1.6
				c-0.3,1.1,0.4,2.5,1.6,2.8c0.7,0.2,1.6,0.3,2.1,0.7c0,0-0.1-0.2,0.1,0.2c0,0,0-0.1,0-0.1c0,0.4,0,0.3,0.1-0.1
				c0.1-0.1,0.2-0.2,0.4-0.2c0.4-0.1,0.4,0.4,0.2-0.1c0,0-0.3-0.5-0.3-0.5c-0.3-0.7,0-0.2,0-0.1C62.1,35.8,58.2,33.6,56.7,36.1
				L56.7,36.1z"/>
		</g>
	</g>
	<g>
		<g>
			<path class="st0" d="M32.6,57.5c0.8,4.6,2.1,8.9,6.2,11.4c4.2,2.6,9.7,3.6,14.6,3.3c10.3-0.6,18.7-6,19.3-16.7
				c0.1-1.7-2-2.8-3.4-2C64,56.9,57.9,58.9,51.5,59c-2.8,0-5.7-0.1-8.4-1.1c-2.7-1-4.9-3.1-7.4-4.5c-2.6-1.4-4.9,2.5-2.3,3.9
				c2.8,1.5,5.2,3.8,8.2,4.9c3,1.1,6.7,1.3,9.9,1.3c7.2-0.1,14.1-2.3,20.1-6.1c-1.1-0.7-2.3-1.3-3.4-2c-0.5,8.8-8.4,12.2-16.4,12.2
				c-3.1,0-6.7-0.6-9.5-2c-3.8-2.1-4.7-5.4-5.4-9.4C36.5,53.4,32.1,54.6,32.6,57.5L32.6,57.5z"/>
		</g>
	</g>
</g>
</svg>
