<?xml version="1.0" encoding="utf-8"?>
<!-- Generator: Adobe Illustrator 19.2.1, SVG Export Plug-In . SVG Version: 6.00 Build 0)  -->
<svg version="1.1" id="Layer_1" xmlns="http://www.w3.org/2000/svg" xmlns:xlink="http://www.w3.org/1999/xlink" x="0px" y="0px"
	 viewBox="0 0 100 100" style="enable-background:new 0 0 100 100;" xml:space="preserve">
<style type="text/css">
	.st0{fill:#333232;}
</style>
<g>
	<g>
		<path class="st0" d="M33.1,16.7c-14,5.3-15.9,22.5-17.4,35.4c-0.8,6.4-1.5,13.5,2.8,18.9c4.5,5.7,12.1,9.6,18.6,12.5
			c11.6,5.1,29.4,10.9,39-0.7C85.6,71.4,88.7,55.6,86.1,41c-3.1-17.3-25.3-23-40.3-24.1c-3.2-0.2-3.2,4.8,0,5
			c8.4,0.6,16.6,2.8,24,6.7c3.2,1.7,6.7,3.5,8.8,6.6c2.4,3.6,2.9,8.3,3,12.5c0.3,8.8-0.6,16-4.6,23.9c-3.7,7.3-7.9,13.5-17,13
			c-7.5-0.4-15.3-2.8-22.1-6c-6-2.8-15.5-7.2-17.5-14.1c-2.1-7.2,0.5-16.9,2-24c1.5-7.5,4-16,11.8-19C37.4,20.4,36.1,15.6,33.1,16.7
			L33.1,16.7z"/>
	</g>
</g>
<g>
	<g>
		<path class="st0" d="M39,43.5c3.2,0,3.2-5,0-5C35.8,38.5,35.8,43.5,39,43.5L39,43.5z"/>
	</g>
</g>
<g>
	<g>
		<path class="st0" d="M58.8,42.7c3.2,0,3.2-5,0-5C55.6,37.7,55.6,42.7,58.8,42.7L58.8,42.7z"/>
	</g>
</g>
<g>
	<g>
		<path class="st0" d="M38.3,60.8c-0.6-0.1,1.3,3.4,1.5,3.8c1,1.4,2.1,2.7,3.4,3.8c2.6,2.3,6.1,3.9,9.5,4.2
			c8.3,0.7,9.7-7.7,11.4-13.9c0.9-3.1-4-4.4-4.8-1.3c-0.7,2.6-1.1,6.1-2.5,8.4c-2.1,3.3-6.4,1.6-9-0.1c-2.8-1.8-4-4.1-5.4-7
			c-0.7-1.4-1.2-2.2-2.8-2.6C36.5,55.3,35.1,60.1,38.3,60.8L38.3,60.8z"/>
	</g>
</g>
</svg>
