<?xml version="1.0" encoding="utf-8"?>
<!-- Generator: Adobe Illustrator 19.2.1, SVG Export Plug-In . SVG Version: 6.00 Build 0)  -->
<svg version="1.1" xmlns="http://www.w3.org/2000/svg" xmlns:xlink="http://www.w3.org/1999/xlink" x="0px" y="0px"
	 viewBox="0 0 100 100" style="enable-background:new 0 0 100 100;" xml:space="preserve">
<style type="text/css">
	.st0{fill:#7DB942;}
	.st1{fill:#4293B7;}
	.st2{fill:#E8DC4E;}
	.st3{fill:#EFEFEF;}
	.st4{fill:#422B1D;}
	.st5{fill:#333232;}
</style>
<g id="Layer_2">
	<path class="st0" d="M78.6,46.1c0-1.8-0.1-3.6-0.4-5.4c-0.2-1.3-2.1-1.7-2.9-0.8c-0.7,0.9-1.3,1.8-1.9,2.7
		c-0.4-0.4-0.9-0.5-1.4-0.4c0.2-0.4,0.4-0.8,0.5-1.2c0-0.1,0.1-0.1,0.1-0.2c0.7,0.1,1.4-0.1,1.9-0.7c0.9-1.2,1.8-2.4,2.6-3.6
		c0.7,0,1.5-0.4,1.8-1.2c1-2.8,1.4-5.4,1.2-8.3c-0.1-1.1-1.1-2.1-2.2-1.7c-0.1,0-0.2,0.1-0.2,0.1c0-0.5,0-1,0-1.5
		c0.1-1.8-2.4-2.3-3.3-0.9c-0.1,0.1-0.1,0.2-0.2,0.3c-0.3-1.3-1.7-2-2.9-0.9c-0.9,0.8-1.7,1.6-2.5,2.5c0.1-2.7,0.1-5.4,0-8
		c0-1.3-1.5-2.3-2.6-1.5c-0.2,0.1-0.4,0.3-0.6,0.4c-3.1-1.3-7-1.8-9.2,1.2c-0.9,0.4-1.6,1-2.2,1.7c-0.4-0.1-0.8-0.2-1.2-0.1
		c-3,0.6-5.7,1.5-8.2,2.9c-2.9-1.6-6.8-0.9-8.2,2.7c-0.6,1.5-1.2,5.1-0.9,8.1c-0.5-0.1-1.1,0-1.6,0.4c-0.9,0.8-1.6,1.7-2.4,2.6
		c-0.3,0.2-0.6,0.5-0.8,0.8c-0.3-1.6-2.2-1.9-3.2-0.6c-1.7,2.3-2.4,4.5-2.3,7.4c0,1.9,2.3,2.2,3.3,0.9c0.1-0.1,0.2-0.2,0.3-0.4
		c0.7,0.3,1.6,0.1,2.1-0.7c0.3-0.6,0.7-1.2,1-1.7c-0.5,2.8-0.7,5.6-0.6,8.4c0,0.7,0.6,1.4,1.2,1.6c-0.2,0.8-0.4,1.6-0.7,2.4
		c-0.3,1,0.5,1.9,1.3,2.2c-0.7,1.3-1.5,2.6-2.2,3.9c-1,1.8,1.3,3.3,2.7,2.1c-0.4,0.8-0.7,1.5-1.1,2.3c-0.8,1.7,1.3,3.6,2.7,2.1
		c0.3-0.3,0.6-0.7,1-1c-0.3,1.6,1.6,3.3,2.9,1.7c0.1-0.1,0.2-0.2,0.3-0.4c0,0,0,0,0,0c0,0,0,0,0,0c0.9-1.2,1.8-2.4,2.7-3.6
		c-0.6,1.7-1.1,3-1.2,3.4c-0.5,1.4,1.3,2.8,2.6,2c0.4-0.3,0.7-0.5,1.1-0.8c0.1,1.4,2.4,2,3.3,0.6c0.5-0.8,1-1.5,1.5-2.3
		c0.5,0.3,1.2,0.4,1.7,0c0.7,0.1,1.4-0.1,1.8-0.8c0.8-1.3,1.5-2.5,2.3-3.8c0.1,0.1,0.2,0.3,0.3,0.4c-0.6,1.3-1.2,2.7-1.8,4
		c-0.9,2,2,3.8,3,1.8c0.6-1.1,1.1-2.2,1.7-3.3c0,1.2,0.9,1.7,1.8,1.6c-0.2,0.8-0.4,1.6-0.6,2.4C59.3,69.5,62,70.8,63,69
		c1.1-2.1,2.2-4.2,3.2-6.4c0.4,0.5,1,0.8,2.1,0.7c1.8-0.2,3.2-2.7,4.3-5.3c0.8,0.3,1.7,0.1,2.1-0.7c0.8-1.8,1.6-3.5,2.4-5.3
		c0.6-0.1,1.1-0.5,1.3-1.1c0.6-1.8,0.6-1.8,0.7-3.7C79,46.8,78.8,46.4,78.6,46.1z M37,36.2C37,36.2,37,36.2,37,36.2
		c-0.2,0.1-0.4,0.2-0.7,0.3c0.1-0.3,0.1-0.6,0.2-0.9C36.7,35.8,36.9,36,37,36.2z M75.1,47.8c0,0.1-0.1,0.2-0.1,0.3
		c-0.1-0.1-0.2-0.2-0.3-0.3c0,0,0,0,0,0c0.2-0.4,0.3-0.8,0.5-1.1C75.1,47,75.1,47.4,75.1,47.8z M76.6,29.5c0,0.5-0.1,1-0.2,1.4
		c-0.5-0.7-1.4-1-2.2-0.7c0.2-0.3,0.3-0.7,0.5-1C75.3,29.7,76,29.8,76.6,29.5z M62.8,51.5c0,0,0,0.1-0.1,0.1c-0.1,0-0.1-0.1-0.2-0.1
		C62.7,51.5,62.7,51.5,62.8,51.5z M65.5,25.3c0,0.1,0,0.3,0,0.4c0,0-0.1,0-0.1,0.1C65.4,25.7,65.4,25.5,65.5,25.3z M56.5,23.3
		c0.3,0.4,0.7,0.7,1.2,1c-0.6,0.8-1.1,1.7-1.7,2.5c0-1,0-1.9,0-2.3c0-0.3,0.1-0.6,0.1-1C56.3,23.4,56.4,23.4,56.5,23.3z M48.5,43.8
		c0.1-0.1,0.2-0.3,0.3-0.4c0,0.2,0,0.5,0,0.7c-0.2,0.3-0.4,0.5-0.5,0.8C48.3,44.5,48.4,44.1,48.5,43.8z M66.6,34.4
		c-0.4-0.2-0.8-0.3-1.3-0.4c0.5-0.3,1-0.6,1.5-1c0.1,0.2,0.2,0.5,0.3,0.7C66.9,33.9,66.7,34.1,66.6,34.4z M35.3,41.6
		c0.2-0.2,0.3-0.4,0.5-0.6c-0.2,0.6-0.4,1.2-0.7,1.8C35.2,42.4,35.2,42,35.3,41.6z M44.8,34.1c0,0,0.1,0,0.1,0
		c-0.1,0.2-0.2,0.5-0.3,0.7C44.6,34.5,44.7,34.3,44.8,34.1z M68.1,56.6c-0.1-0.2-0.3-0.4-0.4-0.5c0.4-0.2,0.8-0.5,1.2-0.8
		c-0.1,0.4-0.3,0.8-0.4,1.2C68.3,56.6,68.2,56.6,68.1,56.6C68.1,56.6,68.1,56.6,68.1,56.6z M47.9,25c-0.1-0.3-0.3-0.7-0.5-1
		c0.9-0.4,1.9-0.8,2.9-1.2C49.4,23.5,48.6,24.2,47.9,25z M44.8,26c-0.1,0.1-0.3,0.2-0.5,0.2c-0.2,0-0.5,0-0.7,0
		c0.1,0,0.1-0.1,0.2-0.1C44.3,26.1,44.7,26.1,44.8,26z M42.6,50.7c0.4-1-0.1-2.1-1-2.5c0.2-0.4,0.4-0.8,0.7-1.1
		c0,0.9,0.7,1.4,1.5,1.5c-0.1,0.3-0.1,0.7-0.2,1c-0.3,0.1-0.5,0.3-0.7,0.7C42.8,50.4,42.7,50.5,42.6,50.7z M47.8,57.9
		c0.6-0.6,1.3-1.1,1.9-1.5c0.4,0,0.8-0.1,1.1-0.3c-0.3,0.6-0.6,1.1-0.9,1.7c-0.7-0.2-1.6-0.1-2.1,0.7c-0.1,0.1-0.2,0.3-0.3,0.4
		C47.6,58.6,47.7,58.3,47.8,57.9z"/>
	<g>
		<g>
			<path class="st5" d="M52,70.9c0.9-0.5,2.1-0.9,3-0.9c1.3-0.1,2.5-1,2.5-2.5c0-1.2-1.1-2.6-2.5-2.5c-2,0.2-3.8,0.7-5.5,1.6
				c-1.2,0.6-1.6,2.3-0.9,3.4C49.3,71.2,50.8,71.6,52,70.9L52,70.9z"/>
		</g>
	</g>
	<g>
		<g>
			<path class="st5" d="M49.3,85.5c2.3,0.3,4.3,0,6.4-0.9c1.2-0.6,1.5-2.3,0.9-3.4c-0.7-1.2-2.2-1.5-3.4-0.9
				c-0.7,0.4-1.8,0.5-2.5,0.4c-1.3-0.2-2.7,0.3-3.1,1.7C47.3,83.6,48,85.3,49.3,85.5L49.3,85.5z"/>
		</g>
	</g>
	<g>
		<g>
			<path class="st4" d="M55.2,79.3c0.1-3-0.6-5.8-1.8-8.5c-0.6-1.2-2.3-1.5-3.4-0.9c-1.3,0.7-1.5,2.2-0.9,3.4c0.9,1.9,1.2,3.9,1.1,6
				C50.1,82.6,55.1,82.6,55.2,79.3L55.2,79.3z"/>
		</g>
	</g>
</g>
<g id="Layer_1">
	<g>
		<g>
			<path class="st5" d="M51.3,83c0.1-4.9,0.2-9.7,0.3-14.6c0-1.3-1.2-2.6-2.5-2.5c-4.1,0.4-7.7,2.9-11.9,1.1
				c-4.9-2.1-6.3-8.5-1.2-11.3c1.3-0.7,1.7-2.9,0.5-3.9c-2.2-1.8-3.9-3.7-5.2-6.2c-1.3-2.5-4.1-10.9,1.5-10.9c1,0,2.2-0.8,2.4-1.8
				c0.5-2.7,1.1-6.4,2.8-8.6c1.3-1.6,3.2-2.1,5.3-2.1c0.4,0,0.9,0.6,1.5,0.5c1.5-0.1,2.2-0.6,3.4-1.4c2.8-2.1,5.3-4,8.6-5.1
				c3.2-1.1,8.2-2.7,10.4,1c0.9,1.5,0.4,3.6,1.9,4.9c1.2,1.1,2.4,0.8,3.8,1c4.9,0.7,5.8,2.6,6.2,7c0.2,2.8,0.2,5.8-2.2,7.9
				c-1.3,1.2-2.9,1.3-3.7,3.2c-1.5,3.8,2.2,4.7,3.5,7.5c0.9,1.9,0.6,5.5-1.6,6.8c-0.5,0.3-1.7,0.1-2.4,0.4c-1.2,0.5-2.3,1.1-2.8,2.4
				c-1.2,2.9,0.5,4.7-4.2,6.1c-3,0.9-7,0.5-10.1,0.3c-1.3-0.1-2.6,1.2-2.5,2.5c0.4,5.2,0.6,10.5,0.6,15.8c0,3.2,5,3.2,5,0
				c0-5.3-0.2-10.5-0.6-15.8c-0.8,0.8-1.7,1.7-2.5,2.5c5.1,0.3,14,1.1,17.8-3.4c0.6-0.7,1.1-1.6,1.4-2.4c0.2-0.8-0.2-2.3,0.1-2.8
				c0.5-0.8,3.6-1.3,4.7-2.3c3.4-3.1,3.1-9.7,1-13.5c-0.4-0.8-1.7-1.7-2-2.4c-0.2-0.3-0.4-0.3-0.4,0.2c0.6-0.2,1.1-0.5,1.6-0.9
				c1.7-1.1,2.8-2.9,3.5-4.9c1.4-4.2,1-10.3-1.1-14.2c-1.1-2-2.8-3.7-4.9-4.5c-2.6-1-4.1,0.4-5.3-2.5c-2.3-5.4-5.3-6.5-11.1-5.7
				c-2.6,0.3-5.1,1-7.5,2c-1.5,0.6-3,1.4-4.3,2.2c-1.1,0.7-3.5,3.2-4.9,3.4c0.8,0.2,1.6,0.4,2.4,0.6c-9.1-8.1-14.8,5.8-16.2,13.1
				c0.8-0.6,1.6-1.2,2.4-1.8c-5.6,0-8.6,4.8-8.3,10.1c0.3,6.1,3.8,11.8,8.5,15.6c0.2-1.3,0.3-2.6,0.5-3.9c-5.4,2.9-7.4,9.6-4.3,15
				c1.5,2.7,4.1,4.7,7,5.7c4.9,1.6,8.1-0.7,12.9-1.1c-0.8-0.8-1.7-1.7-2.5-2.5c-0.1,4.9-0.2,9.7-0.3,14.6
				C46.2,86.2,51.2,86.2,51.3,83L51.3,83z"/>
		</g>
	</g>
</g>
</svg>
