<?xml version="1.0" encoding="utf-8"?>
<!-- Generator: Adobe Illustrator 19.2.1, SVG Export Plug-In . SVG Version: 6.00 Build 0)  -->
<svg version="1.1" xmlns="http://www.w3.org/2000/svg" xmlns:xlink="http://www.w3.org/1999/xlink" x="0px" y="0px"
	 viewBox="0 0 100 100" style="enable-background:new 0 0 100 100;" xml:space="preserve">
<style type="text/css">
	.st0{fill:#7DB942;}
	.st1{fill:#4293B7;}
	.st2{fill:#E8DC4E;}
	.st3{fill:#EFEFEF;}
	.st4{fill:#422B1D;}
	.st5{fill:#333232;}
</style>
<g id="Layer_2">
</g>
<g id="Layer_1">
	<g>
		<g>
			<path class="st5" d="M47.5,58.2c-3.7-5.4-5.5-11.3-13-12.1c-5.3-0.5-10.3,2.5-12.6,7.2c-2.6,5.3-0.7,11.8,3.3,15.8
				c4.6,4.6,11.1,6,17.3,6.3c9.1,0.4,18.3,0.3,27.4,0.4c5.9,0.1,15.9,2.4,20.1-3c8.7-11.4-2.7-27-13.4-31.8
				C70.3,38.2,63,38,56.6,41.2C48.9,45,46.2,52.4,44.3,60.3c-0.8,3.1,4.1,4.5,4.8,1.3c1.5-6.2,3.3-12.5,9.4-15.8
				c5.6-3,12.3-2.4,17.8,0.6c5.4,2.9,10.1,8.1,11.3,14.2c0.9,4.6,0.1,9.3-4.9,10.5c-3.1,0.7-7.4-0.1-10.6-0.1
				c-6.4-0.1-12.9-0.2-19.3-0.3c-5.8-0.1-12.3,0.5-17.9-1.4c-6.3-2.2-12.8-10.4-6.4-16.1c2.7-2.5,6.7-2.5,9.6-0.3
				c2.6,1.9,3.5,5.4,5.3,8C45,63.4,49.4,60.9,47.5,58.2L47.5,58.2z"/>
		</g>
	</g>
	<g>
		<g>
			<path class="st5" d="M53.2,49.5c0.7-7.6-1.2-16.6-9.2-19.5c-7.9-2.9-17.1,3.5-22.2,9c-2.2,2.4,1.3,5.9,3.5,3.5
				c3.5-3.8,9.9-9,15.5-8.1c7.1,1.2,7.9,9.3,7.4,15.1C48,52.7,53,52.7,53.2,49.5L53.2,49.5z"/>
		</g>
	</g>
	<g>
		<g>
			<path class="st5" d="M25.5,39.8c-2.4-3.2-6.5-3.9-10.3-3.1c-4.7,0.9-6,4.9-6.2,9.2c-0.2,4,1.3,7.9,5.4,9.2
				c3.1,0.9,6.7,0.6,9.9,0.6c3.2,0,3.2-5,0-5c-2.7,0-8.7,0.9-10-1.7c-0.7-1.5-0.6-4.8,0.2-6.3c0.8-1.6,5.5-2.1,6.7-0.4
				C23.1,44.9,27.5,42.4,25.5,39.8L25.5,39.8z"/>
		</g>
	</g>
</g>
</svg>
