<?xml version="1.0" encoding="utf-8"?>
<!-- Generator: Adobe Illustrator 19.2.1, SVG Export Plug-In . SVG Version: 6.00 Build 0)  -->
<svg version="1.1" xmlns="http://www.w3.org/2000/svg" xmlns:xlink="http://www.w3.org/1999/xlink" x="0px" y="0px"
	 viewBox="0 0 100 100" style="enable-background:new 0 0 100 100;" xml:space="preserve">
<style type="text/css">
	.st0{fill:#7DB942;}
	.st1{fill:#4293B7;}
	.st2{fill:#E8DC4E;}
	.st3{fill:#EFEFEF;}
	.st4{fill:#422B1D;}
	.st5{fill:#333232;}
</style>
<g id="Layer_2">
	<g>
		<g>
			<path class="st4" d="M50.3,79.7C51.4,67.9,53,56,60.2,46.1c1.9-2.6-2.4-5.1-4.3-2.5C48.2,54.1,46.5,67,45.3,79.7
				C45,82.9,50,82.9,50.3,79.7L50.3,79.7z"/>
		</g>
	</g>
	<g>
		<g>
			<path class="st0" d="M85.5,56.3c0.3-3.9-0.1-7.4-1.4-11.2c-0.8-2.4-4-2.4-4.8,0c-0.6,1.7-1.3,3.3-2.3,4.9c1.4,0,2.9,0,4.3,0
				c-1.2-2.5-1.8-4.5-2-7.2c-0.2-1.9-2-3-3.8-2.2c-1.8,0.9-2.9,2-4.1,3.6c1.5,0.2,3,0.4,4.6,0.6c-0.5-2.2-0.6-6-3.1-7
				c-0.8-0.3-2-0.3-2.8,0.1C70,38,69.1,38.8,69,38.8c-1.3,0-1-1.8-0.5-3.2c-1.6-0.2-3.3-0.4-4.9-0.7c-0.1,1.1-0.2,2.1-0.4,3.2
				c-0.2,1.9,2.3,3.1,3.8,2.2c4.8-3,8.6-6.9,11.4-11.8c-1.5-0.6-3-1.3-4.6-1.9c-0.2,1.5-0.5,3-0.7,4.5c-0.3,2.2,2.3,4.5,4.2,2.4
				c1.5-1.7,3-3.4,4.3-5.2c-1.5-0.2-3-0.4-4.6-0.6c1.1,3.8,6.3,6.4,7.7,1.3c0.4-1.5-0.8-3.3-2.4-3.2c-2.9,0.2-5.3,1.5-8.1,2.3
				c-0.4,0.1-3.7,1.3-3.8,1.2c-0.3-0.2,1.1-4.6,1.1-4.9c0.7-2.5-2.4-4-4.2-2.4c-1,0.9-1.9,1.7-2.9,2.6c1.4,0.6,2.8,1.2,4.3,1.8
				c0.3-2.7,0.6-5.5,0.9-8.2c0.2-2-2.3-3-3.8-2.2c-1.6,0.9-2.8,1.8-4.1,3c1.4,0.4,2.8,0.7,4.2,1.1c0.1-0.3,0.2-0.6,0.2-0.9
				c-1.6,0-3.2,0-4.8,0c1.4,7.1,2.6,14.2,3.6,21.4c1.6-0.4,3.2-0.9,4.8-1.3c-1-2.4-1.7-6.5-4.4-7.7c-3-1.4-4.8,1.6-6.5,3.6
				c1.4,0.8,2.8,1.6,4.2,2.4c0.8-4,1.2-7.9,1.4-11.9c0.1-2.6-3.4-3.3-4.7-1.3c-2.2,3.5-3.3,7.2-4.2,11.2c1.6,0.2,3.3,0.4,4.9,0.7
				c-0.4-3.3-0.2-7.2-1.7-10.2c-0.5-1.1-1.8-1.3-2.8-1.1c-1.5,0.3-2.6,1.2-3.7,2.1c1.4,0.6,2.8,1.2,4.3,1.8
				c-0.1-2.1,0.1-4.5-0.6-6.5c-0.4-1.1-1.3-1.7-2.4-1.8c-2.1-0.2-3.5,1.8-4.9,3.2c1.4,0.4,2.8,0.7,4.2,1.1c-0.4-1.6-0.6-3.1-1.5-4.5
				c-0.4-0.7-1.3-1.3-2.2-1.2c-2.6,0.3-4.1,2.6-5.9,4.3c1.4,0.4,2.8,0.7,4.2,1.1c-0.7-2.6-1.3-6.2-4.8-5.1c-0.8,0.2-1.3,0.9-2,1.3
				c-0.2,0.4-0.3,0.7-0.5,1.1c-0.2-0.2-0.5-0.4-0.8-0.5c-2,0.2-2.4-0.6-4.3,0.8c-2.6,1.9-0.1,6.2,2.5,4.3c0.7-0.5-1.3,0,0.7,0.1
				c0.6,0,1.1,0.4,1.8,0.3c1.3-0.1,3.5-2.6,4-2.6c-0.7-0.4-1.4-0.8-2.2-1.2c0.3,0.9,0.5,1.9,0.8,2.9c0.5,1.9,2.9,2.4,4.2,1.1
				c0.7-0.7,1.5-1.4,2.2-2.2c1.5-1.1,1.5-1.4,0.2-0.7c-0.7-0.4-1.4-0.8-2.2-1.2c0.4,1.1,0.7,2.1,1,3.3c0.5,1.9,2.9,2.4,4.2,1.1
				c0.7-0.4,1.2-1,1.4-1.7c-0.8-0.6-1.6-1.2-2.4-1.8c0.5,1.4,0.3,3.7,0.4,5.2c0.1,2.3,2.6,3.1,4.3,1.8c0.5-0.3,1-0.6,1.5-0.8
				c-0.9-0.4-1.9-0.8-2.8-1.1c1,1.9,0.7,5.5,1,7.7c0.3,2.6,4.2,3.6,4.9,0.7c0.8-3.6,1.7-6.9,3.7-10c-1.6-0.4-3.1-0.8-4.7-1.3
				c-0.2,3.6-0.6,7.1-1.3,10.6c-0.4,2.3,2.4,4.5,4.2,2.4c2.1-2.4,1.5-0.6,2.6,1.8c1.2,3,5.3,1.9,4.8-1.3c-1-7.2-2.2-14.3-3.6-21.4
				c-0.5-2.6-4-2.1-4.8,0c-0.5,1.4-0.5,2.1-0.2,3.6c0.3,1.9,3,2.3,4.2,1.1c0.9-1,1.9-1.7,3.1-2.3c-1.3-0.7-2.5-1.4-3.8-2.2
				c-0.3,2.7-0.6,5.5-0.9,8.2c-0.2,2.3,2.8,3.1,4.3,1.8c1-0.9,1.9-1.7,2.9-2.6c-1.4-0.8-2.8-1.6-4.2-2.4c-0.7,2.6-3.2,8.6,0,10.6
				c4.2,2.7,11.4-2.7,15.5-2.9c-0.8-1.1-1.6-2.1-2.4-3.2c0.6-0.4,1.3-0.9,1.9-1.3c-0.6-2.2-3.3-2.2-4.6-0.6
				c-1.1,1.5-2.3,2.9-3.6,4.2c1.4,0.8,2.8,1.6,4.2,2.4c0.2-1.5,0.5-3,0.7-4.5c0.4-2.6-3.1-4.6-4.6-1.9c-2.4,4.3-5.4,7.5-9.6,10.1
				c1.3,0.7,2.5,1.4,3.8,2.2c0.1-1.1,0.2-2.1,0.4-3.2c0.3-2.9-4.1-3.2-4.9-0.7c-1.2,3.8-1.6,8.8,3.1,10.3c1.3,0.4,3,0.4,4.1-0.5
				c0.6-0.5,2.4-3.7-0.6-2c-0.2,0.1,0.9,4,1,4.2c0.5,2.3,3.4,2.2,4.6,0.6c0.8-0.6,1.5-1.2,2.3-1.8c-1.3-0.7-2.5-1.4-3.8-2.2
				c0.3,3.5,1.1,6.5,2.7,9.7c0.8,1.7,3.4,1.5,4.3,0c1.2-1.9,2.1-3.9,2.8-6.1c-1.6,0-3.2,0-4.8,0c1.1,3.3,1.5,6.4,1.2,9.8
				C80.2,59.5,85.2,59.5,85.5,56.3L85.5,56.3z"/>
		</g>
	</g>
	<g>
		<g>
			<path class="st2" d="M88,87.8c0.2-1.1,0.4-2.2,0.6-3.3c0.4-2.4-2.3-4.3-4.2-2.4c-3,2.9-7.4,1.1-11,0.8c-2.9-0.3-5.8-0.2-8.7,0
				c-6.2,0.5-12.3,1.7-18.4,2.2c-6.2,0.6-12,0.1-18-1.8c-5-1.5-9.6-2.8-14.8-1.7c-2.9,0.6-2,4.7,0.7,4.9c7.8,0.6,15.6,0.4,23.4,0.4
				c8.7,0,17,1.1,25.6,2.3c6,0.9,29.7,4.6,27.9-6.8c-0.5-3.2-5.3-1.8-4.8,1.3c0.3,1.7-15,1.5-16.7,1.3c-6.2-0.6-12.2-2-18.4-2.6
				c-12.3-1.3-24.7,0.1-37-0.9c0.2,1.6,0.4,3.3,0.7,4.9c6.6-1.5,13.1,2.5,19.6,3.4c6.1,0.9,12.3,0.2,18.4-0.6
				c6.6-0.9,13.2-2,19.8-1.6c5.6,0.4,10.9,2.1,15.4-2.2c-1.4-0.8-2.8-1.6-4.2-2.4c-0.2,1.1-0.4,2.2-0.6,3.3
				C82.6,89.7,87.4,91,88,87.8L88,87.8z"/>
		</g>
	</g>
</g>
<g id="Layer_1">
	<g>
		<g>
			<path class="st5" d="M60.5,38.8c-3.9-6.3-10-11-17.2-12.6c-6-1.3-10.8-1.6-14.7,3.6c1.5,0.2,3,0.4,4.6,0.6
				c-1.3-5.8,5.9-9,10.3-9.6c6-0.8,12.4,1.4,14.8,7.4c0.9,2.3,4,2.5,4.8,0c2.2-6.4,1.2-13.1-3-18.5c-0.9,1.2-1.9,2.4-2.8,3.7
				c6.6,1.3,11.4,5.9,12.9,12.5c0.3,1.3,1.8,2.1,3.1,1.7c6.2-1.9,12.4,0.6,14.7,6.8c1-1,2.1-2.1,3.1-3.1c-6.6-2.4-13.8-0.6-18.5,4.6
				c-1.1,1.2-0.9,3.1,0.5,3.9c2,1.2,4.5,2,6.3,3.5c2.7,2.2,3.2,5.3,3.5,8.6c0.7,5.5,1,11-1,16.3c1.5-0.2,3-0.4,4.6-0.6
				c-1.7-3.9-2.4-8.1-4.6-11.8c-1.9-3.4-4.6-6.4-7.6-8.9c-1.4-1.1-2.9-2.1-4.4-3c-1.4-0.7-3.6-1.1-4.8-2.1c-0.5-0.4-0.8-1.4-1.4-1.9
				c-0.6-0.5-2.9-1.2-3-1.4c-1.7-2.7-6.1-0.2-4.3,2.5c1,1.5,3,2.1,4.1,3c0.9,0.7,1.1,1.5,2.3,2.1c1.9,1,4,1.6,5.9,2.7
				c3.7,2.3,6.9,5.5,9,9.3c2.1,3.7,2.9,7.9,4.6,11.8c1,2.2,3.9,1.2,4.6-0.6c2.6-6.7,2-14.3,0.7-21.3c-1.4-7.4-5.9-9.1-11.8-12.7
				c0.2,1.3,0.3,2.6,0.5,3.9c3.6-4,8.7-5.1,13.7-3.3c1.7,0.6,3.7-1.4,3.1-3.1C89.3,24.4,80.8,20,71.8,22.8c1,0.6,2.1,1.2,3.1,1.7
				c-1.8-8.1-8.2-14.3-16.3-16c-1.9-0.4-4.3,1.8-2.8,3.7c3.4,4.4,4.3,9.4,2.5,14.6c1.6,0,3.2,0,4.8,0c-3.4-8.4-11.7-12.4-20.6-11
				C34.9,17,26.3,23,28.3,31.7c0.5,2.3,3.4,2.2,4.6,0.6c2.5-3.4,8.3-1.8,11.8-0.5c4.9,1.7,8.8,5.2,11.5,9.5
				C57.8,44.1,62.2,41.6,60.5,38.8L60.5,38.8z"/>
		</g>
	</g>
	<g>
		<g>
			<path class="st5" d="M61.2,42.7c-4.7,5-8.6,10.1-10.1,16.9c-1.5,6.9-1.1,14.1-1.9,21c-0.4,3.2,4.6,3.2,5,0
				c0.7-6,0.4-12.1,1.4-18.1c1.1-6.7,4.6-11.5,9.2-16.4C67,43.9,63.5,40.4,61.2,42.7L61.2,42.7z"/>
		</g>
	</g>
	<g>
		<g>
			<path class="st5" d="M48,80.7c-0.1-6.8,0.9-13.4,2.5-19.9c1.3-5.6,2.3-14.7,8.9-16.4c3.1-0.8,1.8-5.6-1.3-4.8
				c-7,1.8-9.4,8.3-11.1,14.7c-2.3,8.7-4.1,17.5-4,26.6C43,83.9,48,83.9,48,80.7L48,80.7z"/>
		</g>
	</g>
	<g>
		<g>
			<path class="st5" d="M44.5,83.7c2.4,2.1,6,1.7,7.7-1c0.7-1.1,0.3-2.8-0.9-3.4c-1.2-0.7-2.7-0.3-3.4,0.9c-0.2,0.3,0,0.1,0.1-0.1
				c-0.2,0.2-0.1,0,0.1-0.1c-0.3,0.2-0.1,0,0.1,0c-0.1,0-0.6,0.2-0.2,0.1c0.3-0.1,0,0-0.1,0c-0.3-0.1,0.4,0,0.1,0
				c-0.2,0-0.3-0.2-0.1,0c0.4,0.3-0.4-0.5,0.2,0.1c-1-0.9-2.6-1-3.5,0C43.6,81.1,43.4,82.8,44.5,83.7L44.5,83.7z"/>
		</g>
	</g>
	<g>
		<g>
			<path class="st5" d="M10.9,86.1c2.7-2.6,4.5-3.7,8.2-2.2c1.4,0.6,1.8,1,3.3,1.2c3.6,0.5,7.1-1.8,10.6-0.9
				c2.9,0.7,5.2,2.7,8.4,2.5c3.2-0.2,5.7-2.2,9-2.3c4.3-0.2,8.6,0.6,12.8,0.8c4.3,0.2,8.4-0.6,12.6-0.5c2.5,0,5.3,1.1,7.7-0.2
				c0.6-0.4,1.2-1.4,1.8-1.6c1.5-0.6,4.7,0.4,6.2,0.6c-0.8-0.8-1.7-1.7-2.5-2.5C89,82.3,89,83.6,89,84.9c-1.3,1.4-2.5,2.8-3.8,4.2
				c-1,0.3-3.5-1.3-4.6-1.6c-2.6-0.6-4.5-0.1-7,0.5c-4,0.9-7.6,0.2-11.6,0.2c-3.1,0-6.2,1-9.3,0.9c-6.5-0.2-14.9,0.4-21-1.9
				c-2.7-1-4.9-2.8-7.9-3c-4.3-0.3-7.3,2.2-11.6-0.5c-2.7-1.7-5.2,2.6-2.5,4.3c2.7,1.7,5.6,2.5,8.8,2.1c3.4-0.5,5.7-0.8,9,0.7
				c1.7,0.8,3.5,1.5,5.3,1.9c4.2,0.9,8.5,0.8,12.8,0.9c4.2,0.1,8,0.6,12.2-0.1c4.7-0.7,9.4,0.4,14.1-0.1c1.8-0.2,3.5-1,5.2-1.2
				c2.5-0.3,4.5,1.1,6.8,1.7c8.9,2.3,10-6.4,10.2-12.9c0.1-1.5-1.2-2.3-2.5-2.5c-3.2-0.4-6.3-1.5-9.2,0.1c-1.8,1-1.5,1.3-4.1,1.2
				c-1.4-0.1-2.8-0.2-4.2-0.1c-4.9,0.3-9.6,0.6-14.5,0.2c-4-0.3-8.3-1.1-12.3-0.3c-1.3,0.2-2.3,0.8-3.5,1.1
				c-3.2,0.9-4.4,0.7-7.5-0.6c-3-1.2-5.3-1.3-8.5-0.7C25.1,80,23,80,20.4,78.9c-1.4-0.6-2.6-1.1-4.2-1.1c-3.6,0-6.4,2.5-8.9,4.9
				C5,84.9,8.5,88.4,10.9,86.1L10.9,86.1z"/>
		</g>
	</g>
</g>
</svg>
