<?xml version="1.0" encoding="utf-8"?>
<!-- Generator: Adobe Illustrator 19.2.1, SVG Export Plug-In . SVG Version: 6.00 Build 0)  -->
<svg version="1.1" xmlns="http://www.w3.org/2000/svg" xmlns:xlink="http://www.w3.org/1999/xlink" x="0px" y="0px"
	 viewBox="0 0 100 100" style="enable-background:new 0 0 100 100;" xml:space="preserve">
<style type="text/css">
	.st0{fill:#7DB942;}
	.st1{fill:#4293B7;}
	.st2{fill:#E8DC4E;}
	.st3{fill:#EFEFEF;}
	.st4{fill:#422B1D;}
	.st5{fill:#333232;}
</style>
<g id="Layer_2">
</g>
<g id="Layer_1">
	<g>
		<g>
			<path class="st5" d="M13.3,54.1c0.8-4.4,7.3,1.5,8.3,2.3c1.4,1.1,2.9,2.1,4.6,2.9c2.9,1.4,6,2.1,9.2,1.7c3.6-0.5,6.8-2.3,9.9-4
				c4.4-2.5,8.8-4.5,13.7-5.8c3.1-0.8,1.8-5.6-1.3-4.8c-5.3,1.4-10.1,3.6-14.9,6.3c-6.4,3.6-11.6,4.5-17.9-0.1
				c-3-2.2-6-5.4-10.1-5.2c-3.2,0.1-5.8,2.3-6.4,5.4C7.9,55.9,12.7,57.3,13.3,54.1L13.3,54.1z"/>
		</g>
	</g>
	<g>
		<g>
			<path class="st5" d="M46.7,66.6c-4-0.9-8.3,1.7-7.6,6.3c0.9,5.4,7.7,5.9,12,5.1c7.3-1.3,13.4-6.2,20.5-7.9
				c5.4-1.3,8.7-0.6,13.5,2.1c2.5,1.5,4.9,2.5,7.9,2.5c3.2,0,3.2-5,0-5c-4.3,0-7.3-3.6-11.2-4.8c-3.7-1.2-7.8-0.5-11.5,0.4
				c-4,1-7.8,2.6-11.5,4.4c-2.2,1.1-4.4,2.3-6.7,2.9c-1.3,0.4-2.7,0.7-4.1,0.7c-2.1,0.6-3,0-2.7-1.9C48.5,72.1,49.8,67.3,46.7,66.6
				L46.7,66.6z"/>
		</g>
	</g>
	<g>
		<g>
			<path class="st5" d="M86,26.7c-5.2,0.1-9.3-3.5-14.3-4.1c-4-0.4-7.4,1.7-10.4,4c-3.6,2.7-7.2,7.2-11.6,8.5
				c-6.5,1.9-11.5-6.2-15.5-10.5c-2.2-2.3-5.7,1.2-3.5,3.5c3.5,3.8,7.4,9.8,12.2,12C47,42,51.7,40,55.2,37.8
				c4.3-2.8,7.9-7.5,12.7-9.5c5.4-2.3,12.2,3.5,18.2,3.4C89.2,31.6,89.2,26.6,86,26.7L86,26.7z"/>
		</g>
	</g>
</g>
</svg>
