<?xml version="1.0" encoding="utf-8"?>
<!-- Generator: Adobe Illustrator 19.2.1, SVG Export Plug-In . SVG Version: 6.00 Build 0)  -->
<svg version="1.1" xmlns="http://www.w3.org/2000/svg" xmlns:xlink="http://www.w3.org/1999/xlink" x="0px" y="0px"
	 viewBox="0 0 100 100" style="enable-background:new 0 0 100 100;" xml:space="preserve">
<style type="text/css">
	.st0{fill:#7DB942;}
	.st1{fill:#4293B7;}
	.st2{fill:#E8DC4E;}
	.st3{fill:#EFEFEF;}
	.st4{fill:#422B1D;}
	.st5{fill:#333232;}
</style>
<g id="Layer_2">
	<g>
		<g>
			<path class="st0" d="M20.7,80.7c-0.1-2.8,0.1-5.5,0.5-8.3c0.3-1.9-3.2-2.4-3.4-0.5c-0.4,3,0,12.9,5.5,10.5
				c5.1-2.2,3.6-14.2,3-18.3c-0.3-2.1-3.3-1.4-3.4,0.5c-0.2,2-0.3,4.1-0.5,6.1c1.2,0,2.3,0,3.5,0c-0.6-5.9-1.2-11.8-1.9-17.7
				c-0.2-1.8-2.9-2.5-3.4-0.5c-1.2,5-1.9,10.1-2,15.3c1.2,0,2.3,0,3.5,0c-0.1-6.9-0.2-13.8,0.9-20.6c-1.1,0.1-2.1,0.3-3.2,0.4
				c1.7,3.4,2.2,6.9,1.5,10.6c0.9-0.3,1.7-0.7,2.6-1c-1.2-0.6-1.1-9.6-1.2-11c-0.2-2.2-3.5-2.3-3.5,0c0.2,9.7-0.3,19.4-1.3,29
				c-0.2,1.6,2,2.2,3,1.2c2.9-2.9,5.4-5.9,7.8-9.2c1-1.4-1-3.4-2.4-2.4c-1.9,1.4-3.4,2.9-4.4,5c-1.4,3-0.1,6.2-1.3,9
				c1.1-0.1,2.1-0.3,3.2-0.4c-3.2-4.5,0.5-8.6,4.6-10.6c-0.9-0.3-1.7-0.7-2.6-1c0.3,1.5,0.7,12-4.2,9.3c-0.1,1.1-0.3,2.1-0.4,3.2
				c2.4-0.9,4.8-1.5,7.4-1.7c1.1-0.1,2.2-0.1,3.2,0c-1.8,0.8-3.4,0.6-4.7-0.6c-0.3,1.1-0.6,2.2-0.9,3.3c5.6-0.4,11.2-0.5,16.8-0.3
				c2.3,0.1,2.2-3.4,0-3.5c-4.9-0.2-9.7-0.2-14.5,0.5c-1.8,0.2-1.5,3,0,3.4c8,2.2,16,2.3,24.1,0.6c1.8-0.4,1.6-2.9,0-3.4
				c-1.7-0.5-2.9-0.5-4.5,0.2c-1.7,0.7-1.7,3.5,0.5,3.4c9.4-0.3,18.7-0.8,28-1.7c2.2-0.2,2.3-3.5,0-3.5c-1.1,0-2.3,0-3.4,0
				c-2.3,0-2.2,3.3,0,3.5c0.4,0,9.9,0.4,9.5-1.3c0.6,2.2,3.7,1.2,3.4-0.9c-0.8-5-1.4-10-1.7-15c-0.1-2.1-2.7-2.2-3.4-0.5
				c-1.1,2.7-2.1,5.5-2.7,8.3c-0.2,1-0.7,7.6-0.8,7.7c0.7,0.4,1.4,0.8,2.2,1.2c-0.7-4.8-1.4-9.6-2-14.4c-0.2-1.8-2.9-2.5-3.4-0.5
				c-0.4,1.3-0.7,2.6-1.1,4c1.1,0,2.2,0,3.4,0c-0.9-5.2-1.8-10.5-2.7-15.7c-0.3-2-3.4-1.5-3.4,0.5c0,2.1,0.2,4,0.6,6.1
				c0.4,1.9,3.6,1.5,3.4-0.5c-0.4-4.3-1.4-8.4-2.6-12.6c-0.5-1.9-3.5-1.6-3.4,0.5c0.2,7.9,1.3,15.6,3.2,23.2c0.3,1,1.6,1.7,2.6,1
				c1.9,0.4,2.3,0.9,1.2,1.6c-0.8,0.8-1.7,1.5-2.6,2c-1.6,1-3.3,1.8-5.1,2.4c0.7,0.9,1.3,1.7,2,2.6c2-3.2,4.5-5.7,7.7-7.7
				c-0.7-0.1-1.4-0.2-2.1-0.3c-0.5,0.1-1,0.2-1.5,0.3c0.6,1,1.1,1.9,1.7,2.9c4.4-3.9,1.5,1.9,0.8,3.7c-0.6,1.5,1.3,2.7,2.6,2
				c2-1.2,4.3-2.8,4.2-5.4c-0.1-1.9-1.5-3.7-3.4-3.9c-2.6-0.2-5.5,2.7-7.7,3.7c-5,2.3-10.2,3.5-15.7,3.7c0.4,1,0.8,2,1.2,3
				c3.8-3.2,7.8-5.8,12.2-8.1c2-1.1,0.2-4-1.8-3c-3,1.5-6.1,3.1-9.1,4.6c-2,1-0.3,3.9,1.8,3c5-2.3,9.7-4.9,14.2-8.1
				c1.8-1.3,0.2-4.2-1.8-3c-4.1,2.5-8,5.3-11.7,8.4c-1.5,1.3,0.2,3.2,1.7,2.9c4.1-0.7,8.3-1.3,12.4-2c2-0.3,1.5-3.4-0.5-3.4
				c-6.1-0.1-12.1-0.5-18.2-1.3c0,1.2,0,2.3,0,3.5c3.7-0.4,6.9-1.4,10.1-3.3c1.6-0.9,0.8-3.1-0.9-3.3c-3.8-0.4-7.2,0-10.8,1.3
				c0.3,1.1,0.6,2.2,0.9,3.4c3.5-1.3,6.7-3,9.8-5c1.2-0.8,1.1-2.9-0.4-3.2c-1.9-0.4-3.5-0.5-5.4-0.3c0.2,1.1,0.3,2.3,0.5,3.4
				c2.3-0.6,3.9-1.5,5.8-2.9c0.8-0.7,0.6-2.3-0.4-2.7c-3-1.3-5.7-2-9-2c0.5,0.9,1,1.8,1.5,2.6c2.1-4.2,2.5-8.3,1.2-12.8
				c-0.7-2.2-3.7-1.2-3.4,0.9c0.5,3.2,1.2,6.3,2.2,9.4c0.5,1.5,3.1,1.8,3.4,0c0.3-1.8,0.4-3.4,0.2-5.2c-0.2-1.6-2.4-2.6-3.3-0.9
				c-1.9,3.7-2.8,7.4-2.8,11.6c0,1.9,3.1,2.5,3.4,0.5c0.8-4.3,1.5-8.5,2-12.8c0.3-2.3,0.7-4.4-1.2-6c-0.9-0.8-2.7-0.6-2.9,0.8
				c-1.6,8.3-2,16.7-1.1,25.1c0.2,1.8,2.9,2.5,3.4,0.5c0.8-3.2,0.8-5.9-0.3-9.1c-0.4-1.4-2.5-1.8-3.2-0.4c-2.3,4.4-4.6,8.9-6.8,13.5
				c-1,2,1.8,3.6,3,1.8c1.5-2.2,3.1-3.4,5.7-4.2c-0.6-1-1.1-1.9-1.7-2.9c-2.3,2.7-6.9,2.8-10.2,3.4c-3.7,0.7-7.4,1.3-11.2,1.8
				c-2,0.3-1.4,3.4,0.5,3.4c6.1,0.2,11.8-0.7,17.6-2.6c1.9-0.6,1.5-3.3-0.5-3.4c-7.6-0.5-15.3-0.9-22.9-1.4c0,1.2,0,2.3,0,3.5
				c5.1-0.6,10.2-1.1,15.4-1.7c2.2-0.2,2.3-3.6,0-3.5c-4.6,0.1-8.8,1.3-13.2,2.8c0.6,1,1.1,1.9,1.7,2.9c1.6-1.8,5.8-5.5,4.8-8.3
				c-1-2.9-5.7-2.1-7.8-1.4c0.7,0.7,1.4,1.4,2.2,2.2c1-3.1,1.8-6.3,2.3-9.5c-1.1-0.2-2.3-0.3-3.4-0.5c0.2,2.9,0.1,5.6-0.3,8.5
				c-0.2,1.8,2.2,3.3,3.2,1.3c3-5.9,4.6-12.1,4.9-18.7c0.1-2.1-2.8-2.2-3.4-0.5c-1.9,5-2.9,10-3.2,15.3c1.2,0,2.3,0,3.5,0
				c-0.1-5.6-0.2-11.2-0.2-16.8c0-1.9-3.1-2.5-3.4-0.5c-0.9,5.7-0.8,11.3,0.2,17c0.3,1.7,3,1.6,3.4,0c1.3-5.9,2-11.8,2.2-17.8
				c-1.2,0-2.3,0-3.5,0c-0.1,7.8-0.2,15.5,0.6,23.3c0.7-0.6,1.5-1.1,2.2-1.7c-3.1-0.7-6.5-2.6-9.6-1c-2,1-3.3,3.4-2.3,5.6
				c2.7,6.2,13.4-2.3,16.2-4.3c1.1-0.8,1.2-2.9-0.4-3.2c-3.3-0.5-14.8-3.7-16,1c-1.9,6.9,13.6,3.2,13.3,6.2c-0.2,2,2.9,2.3,3.4,0.5
				c1.1-4.1,2.5-8,4.4-11.8c-1-0.6-2-1.2-3-1.8c-1.8,3.8-2.6,7.5-2.6,11.7c0,1.4,1.9,2.4,3,1.2c3.8-4.2,5.5-9.3,4.8-15
				c-0.3-1.9-2.7-2.4-3.4-0.5c-2,5.2-2.8,10.4-2.7,15.9c0,2,2.8,2.3,3.4,0.5c1.5-4.7,2.3-9.3,2.4-14.2c-1.2,0-2.3,0-3.5,0
				c0,3.9,0.1,7.8,0.1,11.7c0,1.8,2.4,2.3,3.3,0.9c1.4-2.2,2.9-3.8,5-5.3c-0.9-0.5-1.8-1-2.6-1.5c0.4,3.1-0.2,5.6-2.2,8.1
				c1,0.3,1.9,0.5,2.9,0.8c0.2-1.4,0.3-2.9,0.5-4.3c-1.1-0.3-2.2-0.6-3.3-0.9c-0.3,6.5,8.5,8.3,13.5,8.1c2.2-0.1,2.3-3.6,0-3.5
				c-2.7,0.1-10.3-0.5-10-4.6c0.1-1.8-2.4-2.4-3.3-0.9c-1.4,2.4-1.6,4.3-0.9,7c0.3,1.2,2.1,1.8,2.9,0.8c2.6-3.1,3.8-6.5,3.3-10.6
				c-0.1-1.2-1.4-2.4-2.6-1.5c-2.6,1.8-4.6,3.9-6.3,6.6c1.1,0.3,2.2,0.6,3.3,0.9c0-3.9-0.1-7.8-0.1-11.7c0-2.3-3.5-2.3-3.5,0
				c-0.1,4.6-0.8,8.9-2.3,13.3c1.1,0.2,2.3,0.3,3.4,0.5c-0.1-5.2,0.7-10.1,2.6-15c-1.1-0.2-2.3-0.3-3.4-0.5
				c0.6,4.8-0.5,8.9-3.8,12.5c1,0.4,2,0.8,3,1.2c0-3.6,0.6-6.7,2.1-9.9c0.9-2-2.1-3.8-3-1.8c-2,4.1-3.5,8.3-4.7,12.7
				c1.1,0.2,2.3,0.3,3.4,0.5c0.3-3.3-2.1-4.7-5.1-4.9c-1.1-0.1-2.3,0.2-3.5,0.1c-0.5,0-6.5-0.5-3.9,0c3.5,0.6,7.2,0.5,10.7,1
				c-0.1-1.1-0.3-2.1-0.4-3.2c-2.4,1.7-4.8,3.4-7.5,4.7c-0.6,0.3-1.2,0.6-1.8,0.8c-1.9,0.8-1.4,0.6,1.4-0.7c1.3-0.1,3.2,1,4.5,1.3
				c1,0.2,2.3-0.5,2.2-1.7c-0.8-7.7-0.7-15.5-0.6-23.3c0-2.3-3.4-2.2-3.5,0c-0.2,5.7-0.9,11.3-2.1,16.8c1.1,0,2.2,0,3.4,0
				c-0.9-5.1-1-10-0.2-15.1c-1.1-0.2-2.3-0.3-3.4-0.5c0.1,5.6,0.2,11.2,0.2,16.8c0,2.3,3.4,2.2,3.5,0c0.3-5,1.3-9.7,3.1-14.4
				c-1.1-0.2-2.3-0.3-3.4-0.5c-0.3,6-1.7,11.6-4.4,17c1.1,0.4,2.1,0.9,3.2,1.3c0.4-3.2,0.6-6.2,0.4-9.4c-0.1-1.8-3.1-2.5-3.4-0.5
				c-0.6,3.2-1.3,6.4-2.3,9.5c-0.4,1.2,0.9,2.6,2.2,2.2c3.4-1.9,4.2-1.8,2.4,0.3c-0.9,1.3-1.8,2.5-2.9,3.6c-1,1.2-0.1,3.5,1.7,2.9
				c4-1.4,7.9-2.6,12.2-2.7c0-1.2,0-2.3,0-3.5c-5.1,0.6-10.2,1.1-15.4,1.7c-2.2,0.2-2.3,3.4,0,3.5c7.6,0.5,15.3,0.9,22.9,1.4
				c-0.2-1.1-0.3-2.3-0.5-3.4c-5.4,1.8-10.9,2.6-16.7,2.5c0.2,1.1,0.3,2.3,0.5,3.4c5-0.7,10-1.5,14.9-2.5c3.1-0.6,5.9-1.1,8-3.6
				c1-1.2,0.1-3.5-1.7-2.9c-3.4,1.1-5.8,2.9-7.8,5.8c1,0.6,2,1.2,3,1.8c2.2-4.5,4.5-9,6.8-13.5c-1.1-0.1-2.1-0.3-3.2-0.4
				c0.8,2.5,0.9,4.6,0.3,7.2c1.1,0.2,2.3,0.3,3.4,0.5C58.4,65,58.6,57,60.2,48.9c-1,0.3-1.9,0.5-2.9,0.8c1.9,1.6-1.3,12.9-1.7,15.4
				c1.1,0.2,2.3,0.3,3.4,0.5c0-3.6,0.7-6.6,2.3-9.8c-1.1-0.3-2.2-0.6-3.3-0.9c0.2,1.4,0.2,2.8-0.1,4.3c1.1,0,2.2,0,3.4,0
				c-1-3.1-1.7-6.2-2.2-9.4c-1.1,0.3-2.2,0.6-3.4,0.9c1.1,3.6,0.8,6.8-0.9,10.1c-0.6,1.2,0.1,2.6,1.5,2.6c2.6,0.1,4.8,0.5,7.2,1.5
				c-0.1-0.9-0.2-1.8-0.4-2.7c-1.2,1.1-2.6,1.7-4.2,2c-1.9,0.5-1.5,3.7,0.5,3.4c1.5-0.3,3-0.3,4.5,0.2c-0.1-1.1-0.3-2.1-0.4-3.2
				c-2.8,1.9-5.7,3.4-8.9,4.7c-2.1,0.8-1.2,4.1,0.9,3.4c3.3-1.1,6.4-1.5,9.8-1.1c-0.3-1.1-0.6-2.2-0.9-3.3c-2.7,1.6-5.3,2.5-8.4,2.8
				c-2.3,0.3-2.2,3.2,0,3.5c6,0.8,12.1,1.2,18.2,1.3c-0.2-1.1-0.3-2.3-0.5-3.4c-4.1,0.7-8.3,1.3-12.4,2c0.6,1,1.1,1.9,1.7,2.9
				c3.5-2.9,7.1-5.5,11-7.8c-0.6-1-1.2-2-1.8-3c-4.5,3.2-9.2,5.9-14.2,8.1c0.6,1,1.2,2,1.8,3c3-1.5,6.1-3.1,9.1-4.6
				c-0.6-1-1.2-2-1.8-3c-4.6,2.4-8.9,5.3-12.9,8.7c-1.2,1-0.2,3.1,1.2,3c4.3-0.2,8.4-0.8,12.5-2.2c1.7-0.6,3.4-1.2,5-2
				c1-0.5,2-1,2.9-1.5c0.5-0.3,0.9-0.5,1.4-0.8c1.4-1,1.1-0.4-0.9,1.9c0.9,0.7,1.7,1.3,2.6,2c0.9-2.2,2.8-7.1,0.5-9.1
				c-2.2-1.9-5.5,0.5-7.1,1.9c-1.4,1.3,0.1,3.2,1.7,2.9c3.1-0.6,5.9-3.4,3-6.2c-0.5-0.5-1.5-0.7-2.1-0.3c-3.7,2.3-6.7,5.3-9,9
				c-0.8,1.2,0.5,3.1,2,2.6c3.8-1.3,11-4.4,11.7-9.1c0.8-5-4.8-5.4-7.9-3.3c0.9,0.3,1.7,0.7,2.6,1c-1.8-7.3-2.8-14.7-3.1-22.3
				c-1.1,0.2-2.3,0.3-3.4,0.5c1.1,3.9,2.2,7.6,2.5,11.7c1.1-0.2,2.3-0.3,3.4-0.5c-0.5-1.7-0.6-3.4-0.5-5.2c-1.1,0.2-2.3,0.3-3.4,0.5
				c0.9,5.2,1.8,10.5,2.7,15.7c0.3,1.8,2.9,1.6,3.4,0c0.4-1.3,0.7-2.6,1.1-4c-1.1-0.2-2.3-0.3-3.4-0.5c0.6,5.1,1.4,10.2,2.2,15.3
				c0.1,0.9,1.3,1.5,2.2,1.2c1.9-0.6,2.2-1.7,2.5-3.6c1-5.2,1.3-9.9,3.3-14.8c-1.1-0.2-2.3-0.3-3.4-0.5c0.3,5.4,0.9,10.7,1.8,16
				c1.1-0.3,2.2-0.6,3.4-0.9c-0.4-1.4-1.1-1.9-2.5-2c-3.3-0.4-6.9,1.1-10.3,0.8c0,1.2,0,2.3,0,3.5c1.1,0,2.3,0,3.4,0
				c0-1.2,0-2.3,0-3.5c-9.3,0.9-18.7,1.5-28,1.7c0.2,1.1,0.3,2.3,0.5,3.4c0.9-0.1,1.8-0.1,2.7-0.2c0-1.1,0-2.2,0-3.4
				c-7.5,1.6-14.9,1.4-22.3-0.6c0,1.1,0,2.2,0,3.4c4.5-0.6,9.1-0.5,13.6-0.4c0-1.2,0-2.3,0-3.5c-5.6-0.2-11.2-0.1-16.8,0.3
				c-1.8,0.1-2.3,2.2-0.9,3.3c2.9,2.2,10,2.1,9.8-3c-0.3-5.9-12-2-14.8-1c-1.3,0.5-1.8,2.4-0.4,3.2c5,2.7,9.4-1.7,9-6.9
				c-0.3-3.8-4.4-7.1-8-4.2c-3.3,2.8-1.6,8.2,2.6,8.8c6.5,1,6.8-6.6,5.8-10.9c-0.3-1.2-1.6-1.5-2.6-1c-5.8,2.8-10.3,9.3-5.9,15.4
				c0.9,1.3,2.6,1,3.2-0.4c1.8-4.4-0.9-8.3,4.1-11.9c-0.8-0.8-1.6-1.6-2.4-2.4c-2.2,3.1-4.6,5.9-7.2,8.5c1,0.4,2,0.8,3,1.2
				c1-9.7,1.4-19.3,1.3-29c-1.2,0-2.3,0-3.5,0c0.3,3.6,0.3,7.5,1,11c0.3,1.6,0.5,2.2,2,3c0.9,0.5,2.3,0.1,2.6-1
				c0.9-4.7,0.4-9-1.8-13.3c-0.6-1.3-3-1.1-3.2,0.4c-1.1,7.2-1.1,14.3-1,21.6c0,2.3,3.4,2.3,3.5,0c0.1-4.9,0.7-9.6,1.9-14.3
				c-1.1-0.2-2.3-0.3-3.4-0.5c0.6,5.9,1.2,11.8,1.9,17.7c0.2,2.2,3.3,2.3,3.5,0c0.2-2,0.3-4.1,0.5-6.1c-1.1,0.2-2.3,0.3-3.4,0.5
				c0.5,3.4,0.5,6.7,0,10.1c-0.2,1.1-0.2,3.1-1,2.9c-1.1-0.3-0.7-4.9-0.7-5.2c-1.1-0.2-2.3-0.3-3.4-0.5c-0.4,2.8-0.5,5.5-0.5,8.3
				C17.3,83,20.8,83,20.7,80.7L20.7,80.7z"/>
		</g>
	</g>
</g>
<g id="Layer_1">
	<g>
		<g>
			<path class="st5" d="M17.7,86.3c5.8-1.4,11.7-0.6,17.6-0.3c5.9,0.4,11.3-0.5,17-1.1c5.6-0.6,11.3-0.4,17-0.6
				c5.1-0.1,13.1-1.7,17.5,1.3c2.7,1.8,5.2-2.5,2.5-4.3c-4.5-3-10.1-2.2-15.3-2.1c-6.5,0.1-13,0.1-19.5,0.5
				C48.1,80,41.9,81.4,35.3,81c-6.4-0.4-12.6-1.1-18.9,0.4C13.3,82.2,14.6,87,17.7,86.3L17.7,86.3z"/>
		</g>
	</g>
	<g>
		<g>
			<path class="st5" d="M89.4,82.7c-2.1-9.5-1.8-19.8-3.1-29.6c-1.2-9.2-2.8-18.4-4.4-27.5c-0.5-3-4.7-1.9-4.9,0.7
				c-0.7,7.2-0.6,14.5-0.2,21.7c0.2,3.5,0.4,6.9,0.7,10.4c0.1,1.6,0.2,3.3,0.4,4.9c0.1,1-0.5,3.5,0.9,3c1,0.6,2.1,1.2,3.1,1.7
				c-4-13.7-7-27.7-8.9-41.9c-0.3-2.5-4.3-2.2-4.8,0c-1.8,7-2.3,14.1-2.3,21.2c0,3.6,0.1,7.3,0,10.9c0,3.7,0.5,8.3-1.5,11.6
				c1.5,0.2,3,0.4,4.6,0.6c-2.5-8.2-4.3-16.5-5.3-25c-0.9-7.8-1.1-15.6-2.9-23.2c-0.5-2.4-4.3-2.4-4.8,0c-1.7,7.2-2,14.6-2.2,22
				c-0.1,3.6-0.2,7.2-0.5,10.7c-0.2,2.1-0.5,4.2-0.9,6.3c-0.2,1.2-0.7,5.7-1.6,6.5c0.8,0,1.7,0,2.5,0c-1.8-0.8-1.9-9-2.1-10.7
				c-0.4-3.6-0.8-7.2-1.3-10.8c-0.8-6.9-1.6-13.8-2.4-20.8c-0.3-2.5-4.5-3.7-4.9-0.7c-1,6.6-1.2,13.2-1.3,19.9
				c-0.1,7.2,0.5,15.9-2.8,22.5c1.6,0.4,3.1,0.8,4.7,1.3c-1.9-14.4-3.8-28.7-5.7-43.1c-0.3-2.5-4.3-3.7-4.9-0.7
				c-1.4,7.2-2.2,14.4-2.7,21.6c-0.3,3.8-0.5,7.7-0.7,11.5c-0.2,2.9,0.5,8.5-1.4,10.8c1.4,0.4,2.8,0.7,4.2,1.1
				c-3.7-13.2-4.7-27.5-6.7-41.1c-0.4-2.6-4.1-2.1-4.8,0c-2.6,8.1-2.5,16.7-3.5,25.1c-1.1,9.4-2.8,18.8-4.4,28.2
				c-0.5,3.1,4.3,4.5,4.8,1.3c1.4-8.6,3-17.2,4.1-25.8c1.2-9.1,0.9-18.7,3.8-27.5c-1.6,0-3.2,0-4.8,0c2,13.6,3,27.9,6.7,41.1
				c0.5,1.7,2.9,2.6,4.2,1.1c4.1-4.7,2.8-13.3,3.2-19.1c0.5-9.1,1.2-18.1,2.9-27c-1.6-0.2-3.3-0.4-4.9-0.7
				c1.9,14.4,3.8,28.7,5.7,43.1c0.3,2.2,3.4,3.7,4.7,1.3c2.9-5.8,3.1-12.8,3.3-19.2c0.3-8.1,0-16.3,1.2-24.4
				c-1.6-0.2-3.3-0.4-4.9-0.7c1.1,9.2,2.2,18.5,3.3,27.7c0.5,4,0.9,8,1.6,12c0.5,2.7,0.6,5.7,3.4,6.9c0.8,0.3,1.8,0.6,2.5,0
				c4.9-3.7,4.8-14.1,5.2-19.8c0.6-9.6,0.1-19.3,2.4-28.7c-1.6,0-3.2,0-4.8,0c1.8,8,1.9,16.3,3,24.4c1.1,8.1,2.8,16,5.2,23.8
				c0.6,2,3.5,2.5,4.6,0.6c3.3-5.6,2.2-13.4,2.1-19.6c-0.1-8.6,0-17,2.1-25.4c-1.6,0-3.2,0-4.8,0C70,41.6,73,55.6,77,69.3
				c0.4,1.2,1.8,2.2,3.1,1.7c5.5-2.1,2.5-12.1,2.2-16.5c-0.7-9.4-1.1-18.9-0.2-28.3c-1.6,0.2-3.3,0.4-4.9,0.7c1.7,10,3.5,20,4.7,30
				c1.1,8.9,0.8,18.3,2.7,27C85.3,87.1,90.1,85.8,89.4,82.7L89.4,82.7z"/>
		</g>
	</g>
</g>
</svg>
