<?xml version="1.0" encoding="utf-8"?>
<!-- Generator: Adobe Illustrator 19.2.1, SVG Export Plug-In . SVG Version: 6.00 Build 0)  -->
<svg version="1.1" xmlns="http://www.w3.org/2000/svg" xmlns:xlink="http://www.w3.org/1999/xlink" x="0px" y="0px"
	 viewBox="0 0 100 100" style="enable-background:new 0 0 100 100;" xml:space="preserve">
<style type="text/css">
	.st0{fill:#7DB942;}
	.st1{fill:#4293B7;}
	.st2{fill:#E8DC4E;}
	.st3{fill:#EFEFEF;}
	.st4{fill:#422B1D;}
	.st5{fill:#333232;}
</style>
<g id="Layer_2">
	<g>
		<g>
			<path class="st3" d="M46.5,74.1c0.8-2.1,1.9-4,3.2-5.9c-1.5-0.6-3-1.3-4.6-1.9c-0.9,3.3-1,6.1-0.5,9.4c0.2,1.5,2.4,2.4,3.7,1.5
				c5-3.5,8.3-8.1,9.8-14c-1.6-0.2-3.3-0.4-4.9-0.7c0,2.7,0.2,5.3,0.8,8c0.4,2,3.7,2.5,4.6,0.6c2.5-5.4,4-10.8,4.6-16.7
				c-1.6,0.4-3.1,0.8-4.7,1.3c-0.2-0.2-0.4-0.3-0.6-0.5c0.2,0.8,0.4,1.6,0.6,2.4c0.1-0.2,7.3-3,8.5-3.5c2.2-0.9,1.2-3.9-0.6-4.6
				C65.9,49.4,69,37.7,69,36.3c0.1-3.2-4.9-3.2-5,0c-0.1,5.7-7.7,15,1,18.1c-0.2-1.5-0.4-3-0.6-4.6c-3.3,1.5-9.6,2.6-10.8,6.5
				c-0.3,0.8,0,1.8,0.6,2.4c3.8,3.7,11.9-0.4,8.5-5.6c-1.4-2.2-4.4-1.2-4.7,1.3c-0.5,5-1.7,9.7-3.9,14.2c1.5,0.2,3,0.4,4.6,0.6
				c-0.5-2.3-0.6-4.3-0.6-6.6c0-2.8-4.2-3.4-4.9-0.7c-1.2,4.6-3.6,8.3-7.5,11.1c1.2,0.5,2.4,1,3.7,1.5C49,72,49.2,70,49.9,67.6
				c0.8-2.8-3-4.2-4.6-1.9c-1.5,2.2-2.7,4.5-3.7,7.1C40.5,75.8,45.3,77.1,46.5,74.1L46.5,74.1z"/>
		</g>
	</g>
</g>
<g id="Layer_1">
	<g>
		<g>
			<path class="st5" d="M30.7,72.8c11.4,0.5,20.2-9.6,26.2-18.2c7.7-10.9,9.4-22.3,9.9-35.4c-1.4,0.6-2.8,1.2-4.3,1.8
				c4.8,5,5.6,12.3,6,18.9c0.4,7.2-0.1,14.7-3.5,21.2c-2.7,5.3-7.6,10-13.6,11.3c-7.4,1.6-15.5-1.8-22.3-4.4c-3-1.1-4.3,3.7-1.3,4.8
				c7.9,3,17,6.5,25.6,4.2c6.9-1.9,12.6-7.2,15.9-13.4c4-7.5,4.7-16.3,4.1-24.6c-0.5-7.8-1.7-15.7-7.4-21.5
				c-1.6-1.6-4.2-0.3-4.3,1.8c-0.4,10.6-1.3,20.7-7.2,29.9c-5.1,7.9-13.3,19.1-23.9,18.6C27.4,67.7,27.5,72.7,30.7,72.8L30.7,72.8z"
				/>
		</g>
	</g>
</g>
</svg>
