<?xml version="1.0" encoding="utf-8"?>
<!-- Generator: Adobe Illustrator 19.2.1, SVG Export Plug-In . SVG Version: 6.00 Build 0)  -->
<svg version="1.1" xmlns="http://www.w3.org/2000/svg" xmlns:xlink="http://www.w3.org/1999/xlink" x="0px" y="0px"
	 viewBox="0 0 100 100" style="enable-background:new 0 0 100 100;" xml:space="preserve">
<style type="text/css">
	.st0{fill:#7DB942;}
	.st1{fill:#4293B7;}
	.st2{fill:#E8DC4E;}
	.st3{fill:#EFEFEF;}
	.st4{fill:#422B1D;}
	.st5{fill:#333232;}
</style>
<g id="Layer_2">
	<g>
		<g>
			<path class="st1" d="M49.1,26.7c0.2,1,0.3,2,0.5,3c0.2,2.7,4.1,3.5,4.9,0.7c0.5-1.7,1-3.5,1.6-5.2c-1.6-0.2-3.3-0.4-4.9-0.7
				c0,2.3,0.1,4.6,0.1,6.8c0.1,2.7,4.5,3.6,4.9,0.7c0.3-1.9,0.6-3.8,0.9-5.8c-1.6,0-3.2,0-4.8,0c0.9,5.5,2.3,10.8,4.4,16
				c1.1,2.7,4.6,2.2,4.9-0.7c0.3-2.5,0.6-4.9,0.9-7.4c-1.6,0.2-3.3,0.4-4.9,0.7c0.9,2.5,1.8,5,2.8,7.4c1.1,3,5.5,1.9,4.8-1.3
				c-1.4-6-4.2-11.2-8.4-15.8c-1.3-1.4-3.7-0.7-4.2,1.1c-1.4,5.7,0.3,12.5-3,17.6c1.6,0.4,3.1,0.8,4.7,1.3c0-2.6-0.1-5.2-0.1-7.8
				c0-3.2-4.8-3.2-5,0c-0.3,5.9-1,11.7-1.9,17.5c-0.4,2.8-0.6,5.8-1.4,8.6c-0.4,1.5,0.2,1.6-1,1.5c-1.9-0.2-2.8-4.1-2.9-5.5
				C41,49.4,47.2,38.5,54,31.6c-1.3-1-2.6-2-3.9-3c-1.5,2.4-2.5,4.7-2.9,7.6c-0.2,1.4,0.6,3.4,2.4,3.2c4-0.4,7.5-1.6,10.8-4
				c-1.1-1.1-2.3-2.3-3.4-3.4c-1.8,3.2-3.7,6.4-5.5,9.5c-1,1.8,0.7,4.4,2.8,3.7c2.8-1,5.4-2.2,8-3.7c-1-1.3-2-2.6-3-3.9
				c-2.5,2.5-4.9,5-7.4,7.5c-1.8,1.9,0.1,4.7,2.4,4.2c4-0.8,7.4-2.3,10.6-4.8c-1.1-1.1-2.3-2.3-3.4-3.4c-1.8,2.9-3.9,5.5-6.3,7.9
				c-2,1.9,0.6,5.6,3,3.9c2.5-1.7,5-3.5,7.5-5.2c-0.8-1.4-1.7-2.9-2.5-4.3c-2.9,2-5.6,4.2-8.2,6.5c-2.3,2,0.6,5,3,3.9
				c4-1.8,7.4-4.2,10.5-7.2c2.4-2.3-1.1-5.4-3.5-3.5c-2.6,2-4.7,4.3-6.7,7.1c-1.5,2.1,1.4,4.6,3.4,3.4c2.9-1.7,5.6-3.5,8.3-5.4
				c2.5-1.9,0.2-6.2-2.5-4.3c-4.5,3.1-9.3,5.7-14.4,7.7c0.9,1.2,1.9,2.4,2.8,3.7c0.5-0.6,1.1-1.2,1.6-1.8c-1-1.3-2-2.6-3-3.9
				c-1.5,1.5-2.9,3-4.4,4.5c-2.2,2.3,1.2,5.8,3.5,3.5c2.2-2.2,4.6-4.1,7.2-5.8c-1.2-0.9-2.4-1.9-3.7-2.8c-2.2,5.6-5.4,10.7-8.6,15.8
				c-1.3,2.1,1.3,4.8,3.4,3.4c6.2-4,12-8.5,17.5-13.4c-1.2-1.2-2.4-2.4-3.5-3.5c-3.7,3.7-7.3,7.3-11,11c1.2,1.2,2.4,2.4,3.5,3.5
				c4-4.2,8.5-7.7,13.4-10.8c-1.1-1.1-2.3-2.3-3.4-3.4c-1.5,3.3-3.5,5.9-6.2,8.3c1.3,1,2.6,2,3.9,3c1.3-2.7,3-4.8,5.3-6.7
				c-1.3-1-2.6-2-3.9-3c-1.7,3-3.4,6-5.1,9c-1.5,2.6,1.8,4.7,3.9,3c1.9-1.5,3.4-3.1,4.8-5.1c1.8-2.4-1.9-4.8-3.9-3
				c-3.2,2.8-5.9,5.9-8.2,9.5c-1.5,2.4,2,5.1,3.9,3c2.1-2.2,4.2-4.4,6.3-6.6c-1.4-0.8-2.8-1.6-4.2-2.4c-0.9,2.9-2.2,5.5-3.9,8
				c-1.6,2.3,2,5.1,3.9,3c1.3-1.5,2.7-2.6,4.4-3.6c-1.1-1.1-2.3-2.3-3.4-3.4c-0.9,1.4-3.6,5.4-4.4,6.4c1.8-2-0.6-5.7-3-3.9
				c-2.3,1.7-5.5,3.9-8.5,3.7c0.7,0.4,1.4,0.8,2.2,1.2c0.3-0.7,0.6-1.3,0.9-2c-1.4-0.8-2.8-1.6-4.2-2.4c-0.8,2.7-3.4-1.2-3.8-1.4
				c-0.8-0.3-1.4-0.5-2.3-0.6c-2.9-0.2-3.2,4-0.7,4.9c4.7,1.6,18,5.5,17.8-3.4c0-1.5-1.6-3-3.2-2.4c-2.5,1-4.6,2.2-6.7,3.9
				c1.4,0.8,2.8,1.6,4.2,2.4c0.5-1.9,1.2-3.1,2.5-4.5c-1.4-0.6-2.8-1.2-4.3-1.8c0,2.6-0.6,6.5,2.7,7.5c2.9,0.8,6.2-2.2,8-4.2
				c2.2-2.4-1.4-5.9-3.5-3.5c-0.3,0.4-0.6,0.7-1,1.1c-1.7,0.4-2.2,1.1-1.4,2.1c0.4,1.1,0.5,1.1,0.3-0.1c0-0.9,0-1.9-0.1-2.8
				c0-2.1-2.7-3.3-4.3-1.8c-2,2-3.1,4-3.8,6.7c-0.7,2.6,2.3,4,4.2,2.4c1.3-1.2,2.8-2,4.4-2.6c-1.1-0.8-2.1-1.6-3.2-2.4
				c0,1.9-10.5-1.1-11.5-1.4c-0.2,1.6-0.4,3.3-0.7,4.9c-0.5,0,1.4,2.1,1.9,2.4c1.2,0.7,2.5,1,3.9,0.9c2.7-0.3,4.5-2.4,5.2-4.9
				c0.7-2.5-2.4-4.1-4.2-2.4c-2.2,2-4,6.5-1,8.7c3.3,2.5,10-2,12.6-3.8c-1-1.3-2-2.6-3-3.9c-2,2.3-1.5,5.6,1.6,6.5
				c4.3,1.3,8.6-3.7,10.6-6.8c1.4-2.2-1.3-4.6-3.4-3.4c-2.1,1.2-3.8,2.6-5.5,4.4c1.3,1,2.6,2,3.9,3c2-2.9,3.4-5.8,4.4-9.2
				c0.7-2.4-2.5-4.2-4.2-2.4c-2.1,2.2-4.2,4.4-6.3,6.6c1.3,1,2.6,2,3.9,3c2.1-3.3,4.5-6,7.4-8.5c-1.3-1-2.6-2-3.9-3
				c-1.2,1.7-2.4,2.8-4,4.1c1.3,1,2.6,2,3.9,3c1.7-3,3.4-6,5.1-9c1.5-2.6-1.8-4.8-3.9-3c-2.6,2.2-4.5,4.6-6,7.7
				c-1.3,2.6,1.8,4.9,3.9,3c3-2.6,5.3-5.6,7-9.3c1-2.1-1.1-4.8-3.4-3.4c-5.3,3.3-10.1,7.1-14.4,11.5c-2.2,2.3,1.3,5.8,3.5,3.5
				c3.7-3.7,7.3-7.3,11-11c2.3-2.3-1.2-5.7-3.5-3.5c-5.2,4.6-10.6,8.8-16.5,12.6c1.1,1.1,2.3,2.3,3.4,3.4c3.5-5.5,6.8-10.9,9.1-17
				c0.8-2-1.9-4-3.7-2.8c-3,2-5.7,4.1-8.2,6.6c1.2,1.2,2.4,2.4,3.5,3.5c1.5-1.5,2.9-3,4.4-4.5c1.9-2-0.6-5.5-3-3.9
				c-1.5,1-2.5,2-3.4,3.6c-1,1.7,0.7,4.5,2.8,3.7c5.5-2.1,10.7-4.8,15.6-8.2c-0.8-1.4-1.7-2.9-2.5-4.3c-2.7,2-5.4,3.7-8.3,5.4
				c1.1,1.1,2.3,2.3,3.4,3.4c1.7-2.4,3.6-4.3,5.9-6.1c-1.2-1.2-2.4-2.4-3.5-3.5c-2.9,2.7-5.9,4.8-9.5,6.4c1,1.3,2,2.6,3,3.9
				c2.3-2,4.7-3.9,7.2-5.7c2.6-1.8,0.1-6.2-2.5-4.3c-2.5,1.7-5,3.5-7.5,5.2c1,1.3,2,2.6,3,3.9c2.8-2.7,5.1-5.6,7.1-8.9
				c1.2-2-1.4-5-3.4-3.4c-2.9,2.2-5.9,3.6-9.4,4.3c0.8,1.4,1.6,2.8,2.4,4.2c2.5-2.5,4.9-5,7.4-7.5c2-2-0.6-5.4-3-3.9
				c-2.2,1.3-4.4,2.3-6.8,3.2c0.9,1.2,1.9,2.4,2.8,3.7c1.8-3.2,3.7-6.4,5.5-9.5c1.2-2-1.3-4.9-3.4-3.4c-2.5,1.8-5.1,3-8.3,3.3
				c0.8,1.1,1.6,2.1,2.4,3.2c0.4-2.4,1.1-4.3,2.4-6.4c1.5-2.4-2-5-3.9-3c-5.5,5.6-9.6,12.3-11.8,19.9c-1.7,5.9-3.2,14,1.3,19.1
				c3.2,3.6,8.8,4.9,10.6-0.4c1.5-4.7,1.7-10.4,2.4-15.2c0.6-4.7,1.1-9.4,1.4-14.1c-1.7,0-3.3,0-5,0c0,2.6,0.1,5.2,0.1,7.8
				c0,2.5,3.3,3.3,4.7,1.3c3.7-5.8,1.9-12.4,3.5-18.8c-1.4,0.4-2.8,0.7-4.2,1.1c3.6,3.9,5.9,8.4,7.1,13.6c1.6-0.4,3.2-0.9,4.8-1.3
				c-0.9-2.5-1.8-5-2.8-7.4c-1-2.7-4.6-2.1-4.9,0.7c-0.3,2.5-0.6,4.9-0.9,7.4c1.6-0.2,3.3-0.4,4.9-0.7c-2-5.2-3.5-10.5-4.4-16
				c-0.4-2.4-4.4-2.4-4.8,0c-0.3,1.9-0.6,3.8-0.9,5.8c1.6,0.2,3.3,0.4,4.9,0.7c0-2.3-0.1-4.6-0.1-6.8c-0.1-2.8-4.1-3.4-4.9-0.7
				c-0.5,1.7-1,3.5-1.6,5.2c1.6,0.2,3.3,0.4,4.9,0.7c-0.1-1.8-0.2-2.6-0.7-4.3C53.2,22.2,48.3,23.6,49.1,26.7L49.1,26.7z"/>
		</g>
	</g>
</g>
<g id="Layer_1">
	<g>
		<g>
			<path class="st5" d="M50.9,9.5c0.3,5.5-0.9,9.4-3.6,14.1c-1.9,3.5-3.8,7.1-5.8,10.5c-3.6,6.2-8.1,11.4-9,18.8
				C31,65.7,38.2,77.8,51.7,79c6.1,0.5,12.7-1.6,17.4-5.5c5.2-4.4,6.5-11.7,6.7-18.1c0.2-7.6-3.2-13.1-7.1-19.5
				c-2.2-3.6-4.5-7.1-6.7-10.7c-2.6-4.4-6.4-9.7-6.1-15c0.1-3.2-4.9-3.2-5,0c-0.3,6,3.4,11.8,6.4,16.8c3.3,5.7,7.1,11.2,10.3,16.9
				c3.7,6.4,4.4,13.9,1.6,21c-2.7,6.9-11.4,10.2-18.4,9c-15.3-2.5-16.1-20-9.1-30.6c3.5-5.3,6.5-10.8,9.5-16.3
				c3.3-6,5.1-10.5,4.6-17.4C55.7,6.3,50.7,6.3,50.9,9.5L50.9,9.5z"/>
		</g>
	</g>
</g>
</svg>
