<?xml version="1.0" encoding="utf-8"?>
<!-- Generator: Adobe Illustrator 19.2.1, SVG Export Plug-In . SVG Version: 6.00 Build 0)  -->
<svg version="1.1" xmlns="http://www.w3.org/2000/svg" xmlns:xlink="http://www.w3.org/1999/xlink" x="0px" y="0px"
	 viewBox="0 0 100 100" style="enable-background:new 0 0 100 100;" xml:space="preserve">
<style type="text/css">
	.st0{fill:#7DB942;}
	.st1{fill:#4293B7;}
	.st2{fill:#E8DC4E;}
	.st3{fill:#EFEFEF;}
	.st4{fill:#422B1D;}
	.st5{fill:#333232;}
</style>
<g id="Layer_2">
	<g>
		<g>
			<path class="st0" d="M47,58.4c-2.1-5.1-4.6-8.9-10-10.8c-7.6-2.7-15.3-5.1-16.8-14.2c-0.8,0.8-1.6,1.6-2.4,2.4
				c4.1,0.8,9.4,7.3,13,1.9c-1.2-0.5-2.4-1-3.6-1.5c-0.8,1.9-1.6,3.6-2.6,5.4c1.2,0.2,2.4,0.3,3.6,0.5c-0.3-2.3-0.6-4.5-0.9-6.8
				c-0.2-1.2-2-1.8-2.9-1.2c-2.2,1.5-5.8,5.5-3.8,8.5c2.1,3,8.4,0.7,10.9-0.1c-0.8-0.6-1.7-1.3-2.5-1.9c-0.1,0.7-0.1,1.5-0.2,2.2
				c-0.4,1.6,1,2.7,2.4,2.4c-0.2,0,2.8-0.7,2.2-0.9c-2.1-0.6-2.1,2.8-2.3,3.9c-0.5,2.3,2.3,3.3,3.6,1.5c1.2-1.7,2.5-3.4,3.7-5.1
				c-1.2-0.3-2.5-0.7-3.7-1c0.1,1.2,0.2,2.4,0.3,3.6c0.1,1.8,2,2.5,3.4,1.4c1.2-1,2.3-2,3.5-2.9c-1.1-0.5-2.3-0.9-3.4-1.4
				c0,2.2,0.3,3.7,1.2,5.7c1,2.3,4.4,0.3,3.4-2c-0.2-1.2-0.4-2.5-0.6-3.7c0-1.8-2.1-2.5-3.4-1.4c-1.2,1-2.3,2-3.5,2.9
				c1.1,0.5,2.3,0.9,3.4,1.4c-0.1-1.2-0.2-2.4-0.3-3.6c-0.2-2-2.5-2.6-3.7-1c-1.2,1.7-2.5,3.4-3.7,5.1c1.2,0.5,2.4,1,3.6,1.5
				c0.4-2,2.2-6.2,0.5-8.2c-1.8-2.1-3.4,0-5.3,0.3c0.8,0.8,1.6,1.6,2.4,2.4c0.4-1.6,0.5-1.6,0.3-3.3c-0.1-1.2-1.2-2.4-2.5-1.9
				c-2.4,0.8-10.6,3.4-4.1-1.1c-1-0.4-1.9-0.8-2.9-1.2c0.3,2.3,0.6,4.5,0.9,6.8c0.2,1.7,2.9,1.9,3.6,0.5c1.1-2.1,2.1-4.2,3-6.4
				c0.9-2.2-2.5-3.3-3.6-1.5c0.3-0.4-7.8-3.6-8.5-3.7c-1.6-0.3-2.7,0.9-2.4,2.4c0.9,5.5,4.3,10,9.1,12.9c2.4,1.5,5.1,2.4,7.8,3.3
				c5.1,1.7,7.7,3.7,9.9,8.9C44.2,61.7,48,60.7,47,58.4L47,58.4z"/>
		</g>
	</g>
	<g>
		<g>
			<path class="st0" d="M60.5,56.2c0-4.9,0-9.7,0-14.6c0-3-3.9-3.2-4.9-0.7c-0.7,1.9-1.2,3.7-1.5,5.7c1.6,0.2,3.3,0.4,4.9,0.7
				c-0.2-3.5-0.4-7.1-0.6-10.6c-0.1-2.5-3.2-3.3-4.7-1.3c-1.3,1.8-2.3,3.7-3.3,5.7c1.5,0.6,3,1.3,4.6,1.9c0.5-2.1,2.3-6.2,5-6.4
				c-0.7-0.4-1.4-0.8-2.2-1.2c0.1,0.8,0.3,1.6,0.4,2.5c0.2,2.5,3.3,3.4,4.7,1.3c1.7-2.6,3.5-5,5.5-7.3c-1.2-1.2-2.4-2.4-3.5-3.5
				c-2.1,2.5-3.8,5.1-5.1,8.1c-0.5,1.1-0.5,2.8,0.9,3.4c3.8,1.7,7.5-0.5,11.1-1.7c-0.9-1.2-1.9-2.4-2.8-3.7
				c-1.9,3.2-3.7,6.5-5.6,9.7c-0.8,1.5,0,3.2,1.5,3.7c0.7,0.2,1.4,0.5,2.1,0.7c-0.5-1.2-1-2.4-1.5-3.7c-0.6,1.1-2,4.9-4.1,4
				c-0.4,1.6-0.8,3.1-1.3,4.7c2.6,0,4.8-0.9,5.4-3.7c0.6-3.1-4.2-4.5-4.8-1.3c-0.2,0-0.4,0-0.5,0c-2.3,0-3.6,3.6-1.3,4.7
				c5.9,2.7,8.1-0.8,10.9-5.8c0.8-1.5,0-3.1-1.5-3.7c-0.7-0.2-1.4-0.5-2.1-0.7c0.5,1.2,1,2.4,1.5,3.7c1.9-3.2,3.7-6.5,5.6-9.7
				c1-1.8-0.7-4.4-2.8-3.7c-1.3,0.4-5.9,2.9-7.3,2.3c0.3,1.1,0.6,2.3,0.9,3.4c1.1-2.6,2.5-4.9,4.3-7.1c2.1-2.4-1.4-6-3.5-3.5
				c-2.3,2.6-4.4,5.4-6.3,8.3c1.6,0.4,3.1,0.8,4.7,1.3c-0.1-1.7-0.2-3.5-1.1-5c-0.4-0.7-1.3-1.3-2.2-1.2c-5.2,0.3-8.8,5.5-9.8,10.1
				c-0.6,2.6,3.3,4.6,4.6,1.9c1-2,2-3.9,3.3-5.7c-1.6-0.4-3.1-0.8-4.7-1.3c0.2,3.5,0.4,7.1,0.6,10.6c0.2,2.6,4.5,3.6,4.9,0.7
				c0.3-2,0.8-3.8,1.5-5.7c-1.6-0.2-3.3-0.4-4.9-0.7c0,4.9,0,9.7,0,14.6C55.5,59.5,60.5,59.5,60.5,56.2L60.5,56.2z"/>
		</g>
	</g>
	<g>
		<g>
			<path class="st4" d="M43.4,76.2c0.6-0.6,4.6-2.1,2.9-2.6c0.5,0.1,1.1,1,1.9,1.2c0.7,0.2,1.3,0.2,2-0.1c3.1-1-0.1-1.1-0.1-1.1
				c0,1,0.8,2.2,1.8,2.4c1.4,0.3,2.6,0.4,4,0.1c0.8-0.2,4.1-0.8,2.7-1.7c0.7,0.4,1,2.1,1.9,2.7c1,0.7,1.6,0.7,2.8,0.8
				c-0.7-1.3-1.4-2.5-2.2-3.8c-0.2,0.4-0.4,0.8-0.7,1.3c-1.5,2.8,2.8,5.4,4.3,2.5c0.2-0.4,0.4-0.8,0.7-1.3c0.9-1.7-0.2-3.7-2.2-3.8
				c0.3,0-1.7-3-2.5-3.2c-2.7-0.7-4.7,2.1-7.5,1.5c0.6,0.8,1.2,1.6,1.8,2.4c0-2-0.2-3.9-2.3-4.7c-0.7-0.3-1.1-0.4-1.9-0.3
				c-0.8,0.1-2.2,1.5-1.4,1.3c0.6,0.5,0.7,0.4,0.1-0.2c-0.3-0.3-0.7-0.5-1.1-0.6c-0.7-0.3-1.3-0.3-2.1-0.2c-2.5,0.2-4.9,2.2-6.6,3.8
				C37.5,74.8,41,78.3,43.4,76.2L43.4,76.2z"/>
		</g>
	</g>
</g>
<g id="Layer_1">
	<g>
		<g>
			<path class="st5" d="M53.4,64.2c1.1-3.5,2.8-8.1,2.5-11.8c-0.4-4.2-3.9-6.7-3.2-11.3c0.7-5,5.5-8.8,10.1-10.4
				c4.3-1.5,9.3-0.4,13.9-1.3c-0.6-1.5-1.3-3-1.9-4.6c-8.4,5.5-2.8,16.8-6.6,24.3c-3.1,6-8.2,0.4-11.9,3.6c-1.4,1.2-1.7,3.9-2.2,5.5
				c-0.8,2.9-1.7,5.8-2.5,8.8c-0.9,3.1,3.9,4.4,4.8,1.3c1.1-3.8,1.7-9.2,3.8-12.5c-0.7,0.4-1.4,0.8-2.2,1.2c3.5-0.3,6.6,1.1,10-0.6
				c2.2-1,3.7-2.8,4.7-5c1.1-2.5,1.3-5.2,1.6-7.9c0.3-3.9-0.7-11.9,3.1-14.4c2.4-1.6,0.9-5.1-1.9-4.6c-5.4,1-10.7-0.3-15.8,2.1
				c-3.7,1.7-7.3,4.4-9.6,7.8c-2.3,3.4-2.9,7.7-1.9,11.7c0.7,3,2.8,5.4,2.6,8.6c-0.1,2.7-1.3,5.6-2,8.2C47.6,66,52.5,67.3,53.4,64.2
				L53.4,64.2z"/>
		</g>
	</g>
	<g>
		<g>
			<path class="st5" d="M34.2,82.5c10.3-5.2,26.2-3.9,36.8-0.3c1.8,0.6,3.6-1.3,3.1-3.1c-2.7-9.1-14.3-13.4-22.9-14.4
				c-4.3-0.5-8.2,1.6-11.6,4.2c-1.9,1.5-2.2,3.4-3.7,5.1c-1.7,1.9-3.5,2.3-4.7,4.8c-1.4,2.9,2.9,5.4,4.3,2.5
				c1.2-2.4,3.9-3.7,5.5-5.9c2.4-3.6,6.4-6.4,10.9-5.6C58,71,67.3,73.8,69.3,80.5c1-1,2.1-2.1,3.1-3.1c-12.1-4.2-29-5.1-40.7,0.8
				C28.8,79.7,31.3,84,34.2,82.5L34.2,82.5z"/>
		</g>
	</g>
	<g>
		<g>
			<path class="st5" d="M72.3,25.7c-3.8,2.3-7.1,3.3-9.9,7c-3.1,4.1-4.6,9-6,13.8c-0.9,3.1,3.9,4.4,4.8,1.3c1.2-4,2.4-8.3,4.9-11.7
				c2.4-3.3,5.5-4.1,8.8-6.1C77.6,28.4,75.1,24.1,72.3,25.7L72.3,25.7z"/>
		</g>
	</g>
	<g>
		<g>
			<path class="st5" d="M50.7,65.1c-0.9-9.3-4.2-19.9-10.7-26.8c-2.6-2.8-5.8-5.3-9.4-6.7c-5.5-2.1-10.7-2.2-15.7-5.9
				c-1.9-1.4-4.1,0.9-3.7,2.8c1.9,8.1,3.9,15.6,11.3,20.1c4,2.4,8.3,4.5,12.5,6.4c2.2,1,4.8,1.9,6.6,3.6c1.9,1.8,2.8,4.4,3.7,6.7
				c1.1,3,6,1.7,4.8-1.3c-1.2-3.2-2.5-6.5-5-8.9c-2.9-2.8-7.2-4.1-10.8-5.8c-4.1-2-9.6-4-12.8-7.4c-3.3-3.5-4.5-10-5.5-14.6
				c-1.2,0.9-2.4,1.9-3.7,2.8c6.7,5.1,15.6,4.2,21.9,9.7c6.9,6,10.5,16.4,11.4,25.4C46,68.3,51,68.3,50.7,65.1L50.7,65.1z"/>
		</g>
	</g>
	<g>
		<g>
			<path class="st5" d="M13.3,32.3c5.1,6,11.4,10.5,18.8,13.1c2.4,0.9,3.4-3,1.1-3.8c-6.7-2.5-12.4-6.6-17-12.1
				C14.5,27.6,11.7,30.4,13.3,32.3L13.3,32.3z"/>
		</g>
	</g>
</g>
</svg>
