<?xml version="1.0" encoding="utf-8"?>
<!-- Generator: Adobe Illustrator 19.2.1, SVG Export Plug-In . SVG Version: 6.00 Build 0)  -->
<svg version="1.1" xmlns="http://www.w3.org/2000/svg" xmlns:xlink="http://www.w3.org/1999/xlink" x="0px" y="0px"
	 viewBox="0 0 100 100" style="enable-background:new 0 0 100 100;" xml:space="preserve">
<style type="text/css">
	.st0{fill:#7DB942;}
	.st1{fill:#4293B7;}
	.st2{fill:#E8DC4E;}
	.st3{fill:#EFEFEF;}
	.st4{fill:#422B1D;}
	.st5{fill:#333232;}
</style>
<g id="Layer_2">
	<g>
		<g>
			<path class="st2" d="M31,40.4c2.6-1,5.1-2,7.7-3c-1-1-2.1-2.1-3.1-3.1c-1.6,3.9-3.5,7.5-5.8,11c-1.5,2.4,2,5.1,3.9,3
				c2.8-2.9,5.7-5.9,8.5-8.8c-1.3-1-2.6-2-3.9-3c-2.3,4.7-4.6,9.5-6.9,14.2c-1,2.1,1.2,4.8,3.4,3.4c8.4-5.1,15-12.3,19.3-21.2
				c1.4-2.9-2.7-5.3-4.3-2.5c-3.8,6.4-8.4,12.1-13.9,17.1C33.5,49.6,37,53,39.4,51c5.4-4.6,11-9,16.7-13.3c-1.2-0.9-2.4-1.9-3.7-2.8
				c-1.5,6.8-8.5,13.2-13,18.3c-1.7,2,0.6,5.7,3,3.9c5.5-4,10.9-7.9,16.4-11.9c-1-1.3-2-2.6-3-3.9c-5.4,5.8-10.8,11.5-17.5,15.9
				c1,1.3,2,2.6,3,3.9c4.8-4.8,10.1-9.1,15.8-12.9c-1.1-1.1-2.3-2.3-3.4-3.4c-3,4.9-6.3,9.5-10,14c-1.7,2,0.5,5.6,3,3.9
				c5.5-3.7,11-7.4,16.4-11.1c-1-1.3-2-2.6-3-3.9c-4.3,4-8.7,7.9-13,11.9c-1.7,1.5-0.3,4.2,1.8,4.3c5.3,0.2,9.5-2.2,13.8-5.1
				c-1-1.3-2-2.6-3-3.9c-2.8,2.5-5.4,5.2-7.8,8.1c-1.5,1.8-0.1,5,2.4,4.2c4.2-1.3,8.2-2.9,12.1-4.7c-1.3-0.7-2.5-1.4-3.8-2.2
				c-0.6,0.9-1.2,1.8-1.8,2.7c1.4,0.8,2.8,1.6,4.2,2.4c1.4-3.8,2.4-7.8,3-11.8c0.4-2.6,1.3-6.9,0.4-9.5c-1.8-5.3-9-2.8-12.7-1.4
				c1,1,2.1,2.1,3.1,3.1c1.2-3.4,2.3-6.9,3.5-10.3c0.8-2.3-1.9-3.6-3.7-2.8c-3.3,1.5-6.2,3.3-9.1,5.6c1.4,0.6,2.8,1.2,4.3,1.8
				c0-2.7,0.4-5.1,1.3-7.6c0.7-1.9-1.3-3.5-3.1-3.1C45,31,40.8,36.7,37,42.6c-1.5,2.4,2,5.1,3.9,3c1.8-2,3.2-4,4.4-6.4
				c1.1-2.3-1.1-4.6-3.4-3.4c-6,2.9-10.6,7.4-13.9,13.2c-0.9,1.6,0.2,3.8,2.2,3.8c2.4,0,5.3-0.5,7.6,0c-0.6-0.6-1.2-1.2-1.7-1.7
				c0.5,1.3-2.5,6.2-3.1,7.5c-1,2.1,0.6,4,2.8,3.7c1.9-0.3,3.8-0.5,5.8-0.8c-0.9-1.2-1.9-2.4-2.8-3.7c-1,1.9-1.7,3.7-2.1,5.8
				c-0.4,1.7,0.7,3,2.4,3.2c4,0.4,7.5-0.4,10.9-2.4c-1-1.3-2-2.6-3-3.9c-0.6,0.7-1.1,1.4-1.7,2.1c-2,2.5,1.5,6.1,3.5,3.5
				c0.6-0.7,1.1-1.4,1.7-2.1c1.6-2.1-0.4-5.5-3-3.9c-2.7,1.6-5.3,2.1-8.4,1.8c0.8,1.1,1.6,2.1,2.4,3.2c0.4-1.7,0.8-3,1.6-4.6
				c1.1-2.1-0.7-4-2.8-3.7c-1.9,0.3-3.8,0.5-5.8,0.8c0.9,1.2,1.9,2.4,2.8,3.7c1.3-2.9,5.2-8.1,3.6-11.4c-1.6-3.4-7.8-1.9-10.7-1.9
				c0.7,1.3,1.4,2.5,2.2,3.8c2.9-5.1,6.8-8.8,12.1-11.4c-1.1-1.1-2.3-2.3-3.4-3.4c-1,2-2.1,3.8-3.6,5.4c1.3,1,2.6,2,3.9,3
				c3.1-4.7,6.4-9.6,12.1-11.1c-1-1-2.1-2.1-3.1-3.1c-1.1,3-1.5,5.8-1.5,9c0,2.3,2.6,3.1,4.3,1.8c2.5-2,5.2-3.5,8.1-4.8
				c-1.2-0.9-2.4-1.9-3.7-2.8c-1.2,3.4-2.3,6.9-3.5,10.3c-0.6,1.7,1.3,3.7,3.1,3.1c1.2-0.4,5.5-2.3,6.7-1.5c0.2,0.1-0.3,3.9-0.4,4.4
				c-0.4,4.7-1.6,9.3-3.2,13.7c-0.9,2.6,2.4,3.8,4.2,2.4c2.2-1.7,3-3.6,3.3-6.2c0.3-2.1-2.3-2.8-3.8-2.2c-3.6,1.6-7.2,3-10.9,4.2
				c0.8,1.4,1.6,2.8,2.4,4.2c2.4-2.9,5-5.5,7.8-8.1c2.1-1.9-0.7-5.5-3-3.9c-3.5,2.4-6.9,4.6-11.2,4.4c0.6,1.4,1.2,2.8,1.8,4.3
				c4.3-4,8.7-7.9,13-11.9c2.1-1.9-0.7-5.5-3-3.9c-5.5,3.7-11,7.4-16.4,11.1c1,1.3,2,2.6,3,3.9c3.9-4.8,7.5-9.7,10.7-15
				c1.3-2.1-1.3-4.8-3.4-3.4c-6,4-11.6,8.5-16.8,13.7c-2,2,0.6,5.5,3,3.9c7-4.6,12.8-10.6,18.5-16.7c1.8-2-0.6-5.7-3-3.9
				c-5.5,4-10.9,7.9-16.4,11.9c1,1.3,2,2.6,3,3.9c5-5.7,12.5-12.9,14.2-20.5c0.4-1.9-1.8-4.2-3.7-2.8c-6.1,4.5-12,9.2-17.7,14
				c1.2,1.2,2.4,2.4,3.5,3.5c5.9-5.3,10.7-11.3,14.7-18.1c-1.4-0.8-2.9-1.7-4.3-2.5c-4,8.1-9.8,14.7-17.5,19.4
				c1.1,1.1,2.3,2.3,3.4,3.4c2.3-4.7,4.6-9.5,6.9-14.2c1.2-2.4-1.9-5.2-3.9-3c-2.8,2.9-5.7,5.9-8.5,8.8c1.3,1,2.6,2,3.9,3
				c2.5-3.9,4.5-8,6.3-12.2c0.7-1.7-1.4-3.7-3.1-3.1c-2.6,1-5.1,2-7.7,3C26.7,36.7,28,41.5,31,40.4L31,40.4z"/>
		</g>
	</g>
</g>
<g id="Layer_1">
	<g>
		<g>
			<path class="st5" d="M47.1,28.5c-12.4-3.2-23.7,9.6-21.9,21.7c1,6.4,5.6,12.6,10.3,17c5,4.7,10.2,5.8,17,5.3
				c5.6-0.4,11.2-2,14.7-6.7c3.9-5.3,4.1-12.7,3.3-18.9c-0.8-6.5-3.2-13.1-7.6-18.2c-4.5-5.2-10.6-5-16.7-2.7c-3,1.1-1.7,6,1.3,4.8
				c6.3-2.4,10.8-1.1,14.2,4.9c2.2,3.9,3.5,8.3,3.9,12.7C66,52.6,66,57.5,64,61.3c-2.3,4.3-7,5.7-11.6,6.1
				c-5.2,0.4-9.5-0.1-13.4-3.8c-3.1-2.9-5.8-6.5-7.6-10.4c-4.2-9.1,3.5-22.7,14.4-20C48.9,34.1,50.2,29.3,47.1,28.5L47.1,28.5z"/>
		</g>
	</g>
	<g>
		<g>
			<path class="st5" d="M47.4,20.3c-0.1-5.5-2.5-10.5-3-15.9c-0.3-3.2-5.3-3.2-5,0c0.5,5.4,2.9,10.4,3,15.9
				C42.5,23.6,47.5,23.6,47.4,20.3L47.4,20.3z"/>
		</g>
	</g>
	<g>
		<g>
			<path class="st5" d="M73.5,27.2c3.1-3.3,6.2-6.5,9.2-9.8c2.2-2.3-1.3-5.9-3.5-3.5c-3.1,3.3-6.2,6.5-9.2,9.8
				C67.8,26,71.3,29.5,73.5,27.2L73.5,27.2z"/>
		</g>
	</g>
	<g>
		<g>
			<path class="st5" d="M80.3,49.9c3.9,0.4,7.8,0.9,11.7,1.5c3.1,0.5,4.5-4.3,1.3-4.8c-4.3-0.7-8.6-1.2-13-1.7
				C77.1,44.6,77.2,49.6,80.3,49.9L80.3,49.9z"/>
		</g>
	</g>
	<g>
		<g>
			<path class="st5" d="M21.2,45.1c-4.4,0.4-8.6-1.7-13-2.1c-3.2-0.3-3.2,4.7,0,5c4.4,0.4,8.5,2.5,13,2.1
				C24.3,49.8,24.4,44.8,21.2,45.1L21.2,45.1z"/>
		</g>
	</g>
	<g>
		<g>
			<path class="st5" d="M71,73.5c5.2,3.7,10.3,7.4,15.4,11.3c2.6,1.9,5.1-2.4,2.5-4.3c-5.1-3.8-10.2-7.6-15.4-11.3
				C70.9,67.4,68.4,71.7,71,73.5L71,73.5z"/>
		</g>
	</g>
	<g>
		<g>
			<path class="st5" d="M29.3,66.9c-4,0.2-7.2,3-10.4,5.1c-4,2.6-7.8,5.4-11.6,8.3c-2.5,1.9,0,6.3,2.5,4.3c3-2.3,6-4.5,9.1-6.6
				c2.7-1.8,7-5.9,10.4-6.1C32.5,71.7,32.5,66.7,29.3,66.9L29.3,66.9z"/>
		</g>
	</g>
	<g>
		<g>
			<path class="st5" d="M23.7,27.5c-3.8-4.6-7.4-9.4-10.8-14.3c-1.8-2.6-6.1-0.1-4.3,2.5C12.2,21,16,26.1,20.2,31
				C22.2,33.5,25.7,29.9,23.7,27.5L23.7,27.5z"/>
		</g>
	</g>
	<g>
		<g>
			<path class="st5" d="M45.6,79.5c0.1,4.6,0.1,9.2,0.1,13.8c0,3.2,5,3.2,5,0c0.1-4.6,0-9.2-0.1-13.8C50.5,76.3,45.5,76.3,45.6,79.5
				L45.6,79.5z"/>
		</g>
	</g>
</g>
</svg>
