<?xml version="1.0" encoding="utf-8"?>
<!-- Generator: Adobe Illustrator 19.2.1, SVG Export Plug-In . SVG Version: 6.00 Build 0)  -->
<svg version="1.1" id="Layer_1" xmlns="http://www.w3.org/2000/svg" xmlns:xlink="http://www.w3.org/1999/xlink" x="0px" y="0px"
	 viewBox="0 0 50 50" style="enable-background:new 0 0 50 50;" xml:space="preserve">
<style type="text/css">
	.st0{stroke:#000000;stroke-width:8.259;stroke-linecap:round;stroke-linejoin:round;stroke-miterlimit:10;}
	.st1{fill:#FFFFFF;}
</style>
<path class="st0" d="M36.5,16.8"/>
<g>
	<path class="st1" d="M2.7,7.3c0-2.6,2.1-4.6,4.6-4.6h35.4c2.6,0,4.6,2.1,4.6,4.6v1H2.7V7.3z"/>
	<path class="st1" d="M47.4,10.3v32.3c0,2.6-2.1,4.6-4.6,4.6H7.3c-2.6,0-4.6-2.1-4.6-4.6V10.3 M10.6,18.7v-0.8
		c0-0.7-0.6-1.2-1.2-1.2H8.6c-0.7,0-1.2,0.6-1.2,1.2v0.8c0,0.7,0.6,1.2,1.2,1.2h0.8C10.1,19.9,10.6,19.4,10.6,18.7z M16,18.7v-0.8
		c0-0.7-0.6-1.2-1.2-1.2H14c-0.7,0-1.2,0.6-1.2,1.2v0.8c0,0.7,0.6,1.2,1.2,1.2h0.8C15.4,19.9,16,19.4,16,18.7z M21.3,18.7v-0.8
		c0-0.7-0.6-1.2-1.2-1.2h-0.8c-0.7,0-1.2,0.6-1.2,1.2v0.8c0,0.7,0.6,1.2,1.2,1.2h0.8C20.8,19.9,21.3,19.4,21.3,18.7z M26.7,18.7
		v-0.8c0-0.7-0.6-1.2-1.2-1.2h-0.8c-0.7,0-1.2,0.6-1.2,1.2v0.8c0,0.7,0.6,1.2,1.2,1.2h0.8C26.1,19.9,26.7,19.4,26.7,18.7z M32,18.7
		v-0.8c0-0.7-0.6-1.2-1.2-1.2H30c-0.7,0-1.2,0.6-1.2,1.2v0.8c0,0.7,0.6,1.2,1.2,1.2h0.8C31.5,19.9,32,19.4,32,18.7z M10.6,23.9v-0.8
		c0-0.7-0.6-1.2-1.2-1.2H8.6c-0.7,0-1.2,0.6-1.2,1.2v0.8c0,0.7,0.6,1.2,1.2,1.2h0.8C10.1,25.1,10.6,24.6,10.6,23.9z M16,23.9v-0.8
		c0-0.7-0.6-1.2-1.2-1.2H14c-0.7,0-1.2,0.6-1.2,1.2v0.8c0,0.7,0.6,1.2,1.2,1.2h0.8C15.4,25.1,16,24.6,16,23.9z M21.3,23.9v-0.8
		c0-0.7-0.6-1.2-1.2-1.2h-0.8c-0.7,0-1.2,0.6-1.2,1.2v0.8c0,0.7,0.6,1.2,1.2,1.2h0.8C20.8,25.1,21.3,24.6,21.3,23.9z M26.7,23.9
		v-0.8c0-0.7-0.6-1.2-1.2-1.2h-0.8c-0.7,0-1.2,0.6-1.2,1.2v0.8c0,0.7,0.6,1.2,1.2,1.2h0.8C26.1,25.1,26.7,24.6,26.7,23.9z M32,23.9
		v-0.8c0-0.7-0.6-1.2-1.2-1.2H30c-0.7,0-1.2,0.6-1.2,1.2v0.8c0,0.7,0.6,1.2,1.2,1.2h0.8C31.5,25.1,32,24.6,32,23.9z M10.6,29.2v-0.8
		c0-0.7-0.6-1.2-1.2-1.2H8.6c-0.7,0-1.2,0.6-1.2,1.2v0.8c0,0.7,0.6,1.2,1.2,1.2h0.8C10.1,30.5,10.6,29.9,10.6,29.2z M16,29.2v-0.8
		c0-0.7-0.6-1.2-1.2-1.2H14c-0.7,0-1.2,0.6-1.2,1.2v0.8c0,0.7,0.6,1.2,1.2,1.2h0.8C15.4,30.5,16,29.9,16,29.2z M21.3,29.2v-0.8
		c0-0.7-0.6-1.2-1.2-1.2h-0.8c-0.7,0-1.2,0.6-1.2,1.2v0.8c0,0.7,0.6,1.2,1.2,1.2h0.8C20.8,30.5,21.3,29.9,21.3,29.2z M26.7,29.2
		v-0.8c0-0.7-0.6-1.2-1.2-1.2h-0.8c-0.7,0-1.2,0.6-1.2,1.2v0.8c0,0.7,0.6,1.2,1.2,1.2h0.8C26.1,30.5,26.7,29.9,26.7,29.2z M32,29.2
		v-0.8c0-0.7-0.6-1.2-1.2-1.2H30c-0.7,0-1.2,0.6-1.2,1.2v0.8c0,0.7,0.6,1.2,1.2,1.2h0.8C31.5,30.5,32,29.9,32,29.2z M10.6,34.5v-0.8
		c0-0.7-0.6-1.2-1.2-1.2H8.6c-0.7,0-1.2,0.6-1.2,1.2v0.8c0,0.7,0.6,1.2,1.2,1.2h0.8C10.1,35.7,10.6,35.2,10.6,34.5z M16,34.5v-0.8
		c0-0.7-0.6-1.2-1.2-1.2H14c-0.7,0-1.2,0.6-1.2,1.2v0.8c0,0.7,0.6,1.2,1.2,1.2h0.8C15.4,35.7,16,35.2,16,34.5z M21.3,34.5v-0.8
		c0-0.7-0.6-1.2-1.2-1.2h-0.8c-0.7,0-1.2,0.6-1.2,1.2v0.8c0,0.7,0.6,1.2,1.2,1.2h0.8C20.8,35.7,21.3,35.2,21.3,34.5z M26.7,34.5
		v-0.8c0-0.7-0.6-1.2-1.2-1.2h-0.8c-0.7,0-1.2,0.6-1.2,1.2v0.8c0,0.7,0.6,1.2,1.2,1.2h0.8C26.1,35.7,26.7,35.2,26.7,34.5z M32,34.5
		v-0.8c0-0.7-0.6-1.2-1.2-1.2H30c-0.7,0-1.2,0.6-1.2,1.2v0.8c0,0.7,0.6,1.2,1.2,1.2h0.8C31.5,35.7,32,35.2,32,34.5z M37.3,18.7v-0.8
		c0-0.7-0.6-1.2-1.2-1.2h-0.8c-0.7,0-1.2,0.6-1.2,1.2v0.8c0,0.7,0.6,1.2,1.2,1.2h0.8C36.8,19.9,37.3,19.4,37.3,18.7z M37.3,23.9
		v-0.8c0-0.7-0.6-1.2-1.2-1.2h-0.8c-0.7,0-1.2,0.6-1.2,1.2v0.8c0,0.7,0.6,1.2,1.2,1.2h0.8C36.8,25.1,37.3,24.6,37.3,23.9z
		 M37.3,29.2v-0.8c0-0.7-0.6-1.2-1.2-1.2h-0.8c-0.7,0-1.2,0.6-1.2,1.2v0.8c0,0.7,0.6,1.2,1.2,1.2h0.8C36.8,30.5,37.3,29.9,37.3,29.2
		z M37.3,34.5v-0.8c0-0.7-0.6-1.2-1.2-1.2h-0.8c-0.7,0-1.2,0.6-1.2,1.2v0.8c0,0.7,0.6,1.2,1.2,1.2h0.8
		C36.8,35.7,37.3,35.2,37.3,34.5z M42.6,18.7v-0.8c0-0.7-0.6-1.2-1.2-1.2h-0.8c-0.7,0-1.2,0.6-1.2,1.2v0.8c0,0.7,0.6,1.2,1.2,1.2
		h0.8C42.1,19.9,42.6,19.4,42.6,18.7z M42.6,23.9v-0.8c0-0.7-0.6-1.2-1.2-1.2h-0.8c-0.7,0-1.2,0.6-1.2,1.2v0.8
		c0,0.7,0.6,1.2,1.2,1.2h0.8C42.1,25.1,42.6,24.6,42.6,23.9z M42.6,29.2v-0.8c0-0.7-0.6-1.2-1.2-1.2h-0.8c-0.7,0-1.2,0.6-1.2,1.2
		v0.8c0,0.7,0.6,1.2,1.2,1.2h0.8C42.1,30.5,42.6,29.9,42.6,29.2z M42.6,34.5v-0.8c0-0.7-0.6-1.2-1.2-1.2h-0.8
		c-0.7,0-1.2,0.6-1.2,1.2v0.8c0,0.7,0.6,1.2,1.2,1.2h0.8C42.1,35.7,42.6,35.2,42.6,34.5z M10.6,39.7v-0.8c0-0.7-0.6-1.2-1.2-1.2H8.6
		c-0.7,0-1.2,0.6-1.2,1.2v0.8c0,0.7,0.6,1.2,1.2,1.2h0.8C10.1,40.9,10.6,40.4,10.6,39.7z M16,39.7v-0.8c0-0.7-0.6-1.2-1.2-1.2H14
		c-0.7,0-1.2,0.6-1.2,1.2v0.8c0,0.7,0.6,1.2,1.2,1.2h0.8C15.4,40.9,16,40.4,16,39.7z M21.3,39.7v-0.8c0-0.7-0.6-1.2-1.2-1.2h-0.8
		c-0.7,0-1.2,0.6-1.2,1.2v0.8c0,0.7,0.6,1.2,1.2,1.2h0.8C20.8,40.9,21.3,40.4,21.3,39.7z"/>
</g>
</svg>
