<?xml version="1.0" encoding="utf-8"?>
<!-- Generator: Adobe Illustrator 19.2.1, SVG Export Plug-In . SVG Version: 6.00 Build 0)  -->
<svg version="1.1" id="Layer_1" xmlns="http://www.w3.org/2000/svg" xmlns:xlink="http://www.w3.org/1999/xlink" x="0px" y="0px"
	 viewBox="0 0 50 50" style="enable-background:new 0 0 50 50;" xml:space="preserve">
<style type="text/css">
	.st0{fill:#999999;}
</style>
<g>
	<path class="st0" d="M29.1,24.8h-4.6c-0.7,0-1.3,0.6-1.3,1.3V46c0,0.7,0.6,1.3,1.3,1.3h4.6c0.7,0,1.3-0.6,1.3-1.3V26
		C30.4,25.3,29.8,24.8,29.1,24.8z"/>
	<circle class="st0" cx="26.8" cy="18.4" r="5.6"/>
	<path class="st0" d="M21.6,24.8H21c-0.7,0-1.3,0.6-1.3,1.3v10.4c0,0.7,0.6,1.3,1.3,1.3h0.6c0.7,0,1.3-0.6,1.3-1.3V26
		C22.9,25.3,22.3,24.8,21.6,24.8z"/>
	<path class="st0" d="M32.6,24.8H32c-0.7,0-1.3,0.6-1.3,1.3v10.4c0,0.7,0.6,1.3,1.3,1.3h0.6c0.7,0,1.3-0.6,1.3-1.3V26
		C33.9,25.3,33.3,24.8,32.6,24.8z"/>
</g>
<path class="st0" d="M19.6,9.3c0-3.7-2.5-6.7-5.5-6.7s-5.5,3-5.5,6.7c0,3.5,2.2,6.3,5,6.6l-0.4,0.8h1.7l-0.4-0.8
	C17.4,15.6,19.6,12.8,19.6,9.3z"/>
<g>
	<path class="st0" d="M18.6,37L18.6,37c-4.4-0.8-4.9-10.9-4.9-18.4c0-0.4,0-0.8,0-1s0.1-0.3,0.3-0.3l0,0c0.2,0,0.3,0.1,0.3,0.3
		c0,0.2,0,0.6,0,1c0,11.2,1.4,17.2,4.3,17.8c0.2,0,0.3,0.2,0.3,0.4C18.9,36.9,18.8,37,18.6,37z"/>
</g>
</svg>
