<?xml version="1.0" encoding="utf-8"?>
<!-- Generator: Adobe Illustrator 19.2.1, SVG Export Plug-In . SVG Version: 6.00 Build 0)  -->
<svg version="1.1" id="Layer_1" xmlns="http://www.w3.org/2000/svg" xmlns:xlink="http://www.w3.org/1999/xlink" x="0px" y="0px"
	 viewBox="0 0 50 50" style="enable-background:new 0 0 50 50;" xml:space="preserve">
<style type="text/css">
	.st0{fill:#FFFFFF;}
</style>
<g>
	<path class="st0" d="M29.4,2.7H4.2c-1.2,0-2.1,1-2.1,2.1v17.5c0,1.2,1,2.1,2.1,2.1h25.1c1.2,0,2.1-1,2.1-2.1V4.8
		C31.5,3.6,30.5,2.7,29.4,2.7z M23.9,15.3H6.6c-0.7,0-1.3-0.6-1.3-1.3s0.6-1.3,1.3-1.3h17.3c0.7,0,1.3,0.6,1.3,1.3
		C25.3,14.6,24.7,15.3,23.9,15.3z M25.9,11.4H6.6c-0.7,0-1.3-0.6-1.3-1.3s0.6-1.3,1.3-1.3h19.3c0.7,0,1.3,0.6,1.3,1.3
		C27.2,10.8,26.6,11.4,25.9,11.4z"/>
	<path class="st0" d="M12.2,46.4c0,0.5-0.4,0.9-0.9,0.9H8.2c-0.5,0-0.9-0.4-0.9-0.9v-8c0-0.5,0.4-0.9,0.9-0.9h3.1
		c0.5,0,0.9,0.4,0.9,0.9C12.2,38.4,12.2,46.4,12.2,46.4z"/>
	<circle class="st0" cx="9.8" cy="33.3" r="3.8"/>
	<path class="st0" d="M23.9,46.4c0,0.5-0.4,0.9-0.9,0.9h-3.1c-0.5,0-0.9-0.4-0.9-0.9v-8c0-0.5,0.4-0.9,0.9-0.9H23
		c0.5,0,0.9,0.4,0.9,0.9V46.4z"/>
	<circle class="st0" cx="21.5" cy="33.3" r="3.8"/>
	<path class="st0" d="M36,29.9c-0.1,0.3-0.4,0.5-0.7,0.5c-0.1,0-0.1,0-0.2,0l-9.4-2.8c-0.4-0.1-0.6-0.5-0.5-0.9s0.5-0.6,0.9-0.5
		l9.4,2.8C35.9,29.2,36.2,29.6,36,29.9z"/>
	<path class="st0" d="M44.6,45.8c0,0.2-0.2,0.4-0.4,0.4h-5.1c-0.2,0-0.4-0.2-0.4-0.4v-6.6c0-0.2,0.2-0.4,0.4-0.4h5.1
		c0.2,0,0.4,0.2,0.4,0.4V45.8z"/>
	<path class="st0" d="M46.3,37.7c-0.1,0.1-0.3,0.2-0.5,0.2h-8.4c-0.2,0-0.4-0.1-0.5-0.2c-0.1-0.1-0.2-0.3-0.2-0.5l1.7-18.6
		c0-0.3,0.3-0.6,0.7-0.6h5c0.3,0,0.6,0.3,0.7,0.6l1.7,18.6C46.5,37.4,46.4,37.6,46.3,37.7z"/>
	<circle class="st0" cx="41.6" cy="9.7" r="6.3"/>
</g>
</svg>
