<?xml version="1.0" encoding="utf-8"?>
<!-- Generator: Adobe Illustrator 19.2.1, SVG Export Plug-In . SVG Version: 6.00 Build 0)  -->
<svg version="1.1" id="Layer_1" xmlns="http://www.w3.org/2000/svg" xmlns:xlink="http://www.w3.org/1999/xlink" x="0px" y="0px"
	 viewBox="0 0 50 50" style="enable-background:new 0 0 50 50;" xml:space="preserve">
<style type="text/css">
	.st0{fill:#565856;}
</style>
<path class="st0" d="M31.6,25.2l14.7-14.7c1.8-1.8,1.8-4.7,0-6.6s-4.7-1.8-6.6,0L25,18.7L10.3,3.9c-1.8-1.8-4.7-1.8-6.6,0
	s-1.8,4.7,0,6.6l14.7,14.7L4.2,39.5c-1.8,1.8-1.8,4.7,0,6.6c0.9,0.9,2.1,1.4,3.3,1.4s2.4-0.5,3.3-1.4L25,31.8l14.3,14.3
	c0.9,0.9,2.1,1.4,3.3,1.4s2.4-0.5,3.3-1.4c1.8-1.8,1.8-4.7,0-6.6L31.6,25.2z"/>
</svg>
