<?xml version="1.0" encoding="utf-8"?>
<!-- Generator: Adobe Illustrator 19.2.1, SVG Export Plug-In . SVG Version: 6.00 Build 0)  -->
<svg version="1.1" id="Capa_1" xmlns="http://www.w3.org/2000/svg" xmlns:xlink="http://www.w3.org/1999/xlink" x="0px" y="0px"
	 viewBox="0 0 704.2 704.2" style="enable-background:new 0 0 704.2 704.2;" xml:space="preserve">
<style type="text/css">
	.st0{fill:#FFFFFF;}
</style>
<g>
	<g>
		<path class="st0" d="M151.6,533.2c0.2,0,0.3,0,0.4,0l38.8-2.7L179,498.2l-32.3-11.8l-2.7,38.8
			C143.7,529.2,147.5,533.2,151.6,533.2z"/>
		<polygon class="st0" points="198.4,478.8 211.9,515.7 253.1,524.9 485.4,292.6 384.6,191.8 384.6,191.8 152.3,424.1 161.5,465.3 
					"/>
		<path class="st0" d="M500.5,276l-99.4-99.4l32.4-32.4c4.3-4.3,11.4-4.3,15.8,0l83.7,83.7c4.3,4.3,4.3,11.4,0,15.8L500.5,276z"/>
	</g>
</g>
</svg>
