<?xml version="1.0" encoding="utf-8"?>
<!-- Generator: Adobe Illustrator 13.0.0, SVG Export Plug-In . SVG Version: 6.00 Build 14948)  -->
<!DOCTYPE svg PUBLIC "-//W3C//DTD SVG 1.1//EN" "http://www.w3.org/Graphics/SVG/1.1/DTD/svg11.dtd">
<svg version="1.1" id="Capa_1" xmlns="http://www.w3.org/2000/svg" xmlns:xlink="http://www.w3.org/1999/xlink" x="0px" y="0px"
	 width="704.186px" height="704.186px" viewBox="0 0 704.186 704.186" enable-background="new 0 0 704.186 704.186"
	 xml:space="preserve">
<g>
	<g>
		<path fill="#7F7F7F" d="M151.595,533.168c0.167,0,0.278,0,0.445,0l38.763-2.729l-11.752-32.302l-32.302-11.751l-2.729,38.762
			C143.687,529.214,147.529,533.168,151.595,533.168z"/>
		<polygon fill="#7F7F7F" points="198.434,478.755 211.854,515.736 253.068,524.869 485.422,292.572 384.562,191.767 
			384.562,191.767 152.263,424.064 161.452,465.333 		"/>
		<path fill="#7F7F7F" d="M500.515,276.031l-99.356-99.413l32.357-32.358c4.344-4.345,11.417-4.345,15.762,0l83.651,83.651
			c4.344,4.345,4.344,11.417,0,15.762L500.515,276.031z"/>
	</g>
</g>
</svg>
