<?xml version="1.0" encoding="utf-8"?>
<!-- Generator: Adobe Illustrator 19.2.1, SVG Export Plug-In . SVG Version: 6.00 Build 0)  -->
<svg version="1.1" id="Layer_1" xmlns="http://www.w3.org/2000/svg" xmlns:xlink="http://www.w3.org/1999/xlink" x="0px" y="0px"
	 viewBox="0 0 50 50" style="enable-background:new 0 0 50 50;" xml:space="preserve">
<style type="text/css">
	.st0{fill:#FFFFFF;}
</style>
<path class="st0" d="M39.5,14.4h-30c-1.2,0-2.2-0.9-2.2-2.1c0-0.1,0-7.1,0-7.2c0-1.2,1-2.3,2.3-2.3h30c1.2,0,2.3,1,2.3,2.3v7.1
	C41.7,13.4,40.7,14.4,39.5,14.4z M39.5,46.3h-30c-1.2,0-2.2-0.9-2.2-2.1c0-0.1,0-7.1,0-7.2c0-1.2,1-2.3,2.3-2.3h30
	c1.2,0,2.3,1,2.3,2.3v7.1C41.7,45.4,40.7,46.3,39.5,46.3z M26.3,30.1H9.5c-1.2,0-2.2-0.9-2.2-2.1c0-0.1,0-7.1,0-7.2
	c0-1.2,1-2.3,2.3-2.3h16.8c1.2,0,2.3,1,2.3,2.3v7.1C28.4,29.2,27.4,30.1,26.3,30.1z M39.5,30.1h-6.3C32,30.1,31,29.2,31,28
	c0-0.1,0-7.1,0-7.2c0-1.2,1-2.3,2.3-2.3h6.3c1.2,0,2.3,1,2.3,2.3v7.1C41.7,29.2,40.7,30.1,39.5,30.1z"/>
</svg>
