<?xml version="1.0" encoding="utf-8"?>
<!-- Generator: Adobe Illustrator 19.2.1, SVG Export Plug-In . SVG Version: 6.00 Build 0)  -->
<svg version="1.1" id="Layer_1" xmlns="http://www.w3.org/2000/svg" xmlns:xlink="http://www.w3.org/1999/xlink" x="0px" y="0px"
	 viewBox="0 0 50 50" style="enable-background:new 0 0 50 50;" xml:space="preserve">
<style type="text/css">
	.st0{fill:none;stroke:#000000;stroke-linecap:round;stroke-linejoin:round;stroke-miterlimit:10;}
	.st1{stroke:#000000;stroke-linecap:round;stroke-linejoin:round;stroke-miterlimit:10;}
	.st2{stroke:#000000;stroke-miterlimit:10;}
	.st3{stroke:#000000;stroke-width:0.6778;stroke-linecap:round;stroke-linejoin:round;stroke-miterlimit:10;}
	.st4{stroke:#000000;stroke-width:0.7423;stroke-linecap:round;stroke-linejoin:round;stroke-miterlimit:10;}
	.st5{stroke:#000000;stroke-width:1.3723;stroke-linecap:round;stroke-linejoin:round;stroke-miterlimit:10;}
	.st6{fill:#FFFFFF;}
</style>
<g>
	<path d="M-200-302.3"/>
	<line class="st0" x1="-200" y1="-280.3" x2="-198.2" y2="-282.1"/>
	<line class="st0" x1="-202.5" y1="-282.8" x2="-200" y2="-280.3"/>
	<polyline class="st1" points="-200,-301.3 -183.2,-284.4 -160.7,-284.4 -171.6,-299.6 -189.3,-299.6 -200,-310.1 -210.7,-299.6 
		-228.4,-299.6 -239.3,-284.4 -216.8,-284.4 -200,-301.3 	"/>
	<path class="st1" d="M-204.2-259.9v11.4h-32.2v-33.3h20.9l15.4-15.5l0,0l15.4,15.5h20.9v33.3H-196v-11.4c0,0,0-4.1-4.2-4.1
		C-204.2-264-204.2-259.9-204.2-259.9z M-222.7-270.3v-5.1c0-0.9-0.7-1.7-1.7-1.7h-4.4c-0.9,0-1.7,0.7-1.7,1.7v5.1
		c0,0.9,0.7,1.7,1.7,1.7h4.4C-223.4-268.6-222.7-269.4-222.7-270.3z M-200-287c-3.5,0-6.3,2.8-6.3,6.3s2.8,6.3,6.3,6.3
		s6.3-2.8,6.3-6.3C-193.8-284.2-196.6-287-200-287z M-209.8-270.3v-5.1c0-0.9-0.7-1.7-1.7-1.7h-4.4c-0.9,0-1.7,0.7-1.7,1.7v5.1
		c0,0.9,0.7,1.7,1.7,1.7h4.4C-210.6-268.6-209.8-269.4-209.8-270.3z M-209.8-257.4v-5.1c0-0.9-0.7-1.7-1.7-1.7h-4.4
		c-0.9,0-1.7,0.7-1.7,1.7v5.1c0,0.9,0.7,1.7,1.7,1.7h4.4C-210.6-255.7-209.8-256.4-209.8-257.4z M-222.7-257.4v-5.1
		c0-0.9-0.7-1.7-1.7-1.7h-4.4c-0.9,0-1.7,0.7-1.7,1.7v5.1c0,0.9,0.7,1.7,1.7,1.7h4.4C-223.4-255.7-222.7-256.4-222.7-257.4z
		 M-182.4-270.3v-5.1c0-0.9-0.7-1.7-1.7-1.7h-4.4c-0.9,0-1.7,0.7-1.7,1.7v5.1c0,0.9,0.7,1.7,1.7,1.7h4.4
		C-183.2-268.6-182.4-269.4-182.4-270.3z M-169.6-270.3v-5.1c0-0.9-0.7-1.7-1.7-1.7h-4.4c-0.9,0-1.7,0.7-1.7,1.7v5.1
		c0,0.9,0.7,1.7,1.7,1.7h4.4C-170.3-268.6-169.6-269.4-169.6-270.3z M-169.6-257.4v-5.1c0-0.9-0.7-1.7-1.7-1.7h-4.4
		c-0.9,0-1.7,0.7-1.7,1.7v5.1c0,0.9,0.7,1.7,1.7,1.7h4.4C-170.3-255.7-169.6-256.4-169.6-257.4z M-182.4-257.4v-5.1
		c0-0.9-0.7-1.7-1.7-1.7h-4.4c-0.9,0-1.7,0.7-1.7,1.7v5.1c0,0.9,0.7,1.7,1.7,1.7h4.4C-183.2-255.7-182.4-256.4-182.4-257.4z"/>
</g>
<g>
	<path class="st2" d="M-115.9-269.9c0,6.2,0,12.4,0,18.6c0,0.5,0,0.9,0.1,1.4c0.2,1.2,1.1,2,2.3,2.1c1.2,0.1,2-0.5,2.4-1.6
		c0.2-0.6,0.2-1.2,0.2-1.8c0-6.9,0-13.9,0-20.8c0-0.6,0.1-1.2,0.9-1.3c0.9-0.1,1.4,0.2,1.4,1.3c0,7,0,13.9,0,20.9
		c0,0.4,0,0.9,0.1,1.3c0.2,1.4,1.3,2.2,2.7,2c1.3-0.2,2.1-1.1,2.2-2.7c0-1.3,0-2.6,0-4c0-11.7,0-23.3,0-35c0-0.5-0.1-1.2,0.7-1.2
		c0.8-0.1,0.9,0.5,0.9,1.2c0.4,4.3,0.8,8.6,1.1,12.9c0.2,1.7,1.6,2.6,3.2,1.8c0.6-0.3,1.1-0.4,1.7-0.5c1.5-0.1,3.1-0.2,4.6-0.4
		c1.3-0.1,1.4,0,1.1,1.3c-1.3,4.6-2.6,9.3-3.9,13.9c-0.3,0.9-0.1,1.1,0.9,1.1c0.7,0,1.5,0,2.2,0s0.9,0.3,0.9,1c0,1.1,0,2.2,0,3.4
		c0,1.9,0,3.9,0,5.8c0,0.7,0.2,1.2,1,1.3c0.7,0.1,1.3-0.4,1.4-1.2c0-0.4,0-0.7,0-1.1c0-2.5,0-5,0-7.6c0-0.3,0-0.5,0-0.8
		s0.1-0.7,0.5-0.7s0.4,0.4,0.4,0.7c0,0.3,0,0.5,0,0.8c0,2.9,0,5.8,0,8.6c0,0.7,0.3,1.2,1,1.2c0.8,0.1,1.2-0.3,1.3-1.1
		c0.1-0.4,0.1-0.8,0.1-1.2c0-2.6,0-5.2,0-7.7c0-1.4,0.1-1.5,1.5-1.5c0.6,0,1.2,0,1.7,0c0.7,0,0.9-0.3,0.7-0.9
		c-0.1-0.2-0.1-0.5-0.2-0.7c-1.3-4.3-2.5-8.6-3.8-13c-0.1-0.3-0.4-0.8,0-0.9s0.4,0.5,0.5,0.8c0.8,2.8,1.7,5.5,2.5,8.3
		c0.3,0.9,0.9,1.3,1.7,1.1c0.7-0.2,1.1-0.9,0.8-1.8c-1-3.3-2-6.7-3-10c-0.5-1.6-1.6-2.2-3.2-2.2s-3.1,0-4.7,0c-0.4,0-0.7,0-1.1,0.1
		c-1.7,0.7-3.4,0.6-5.2,0.7c-0.7,0.1-0.9-0.2-1-0.9c-0.1-0.7-0.1-1.4-0.2-2.1c-0.4-4.1-0.7-8.1-1.1-12.2c-0.1-1-0.4-1.8-0.9-2.6
		c-1.2-2.1-2.9-3.2-5.3-3.3c-3.9,0-7.8-0.2-11.7,0.1c-2.1,0.2-3.5,1.2-4.5,3c-0.7,1.3-0.8,2.7-0.8,4.2c0,5.1,0,10.2,0,15.3
		c0,0.5,0,1,0.1,1.5c0.3,1,0.9,1.5,2,1.6c1,0,1.7-0.5,2-1.5c0.2-0.5,0.1-1,0.1-1.6c0-4.2,0-8.5,0-12.7c0-0.5-0.3-1.4,0.6-1.4
		c0.8,0,0.5,0.9,0.5,1.4C-115.9-282.7-115.9-276.3-115.9-269.9z"/>
	<path class="st2" d="M-114.9-305.9c0,2.9,2.2,5.1,5.1,5.2c2.6,0.1,5.1-2.4,5.1-5c0-2.8-2.2-5.1-5-5.1
		C-112.6-310.9-114.8-308.8-114.9-305.9z"/>
	<path class="st2" d="M-87.3-286.1c-1.7,0-3.2,1.5-3.2,3.2s1.5,3.2,3.1,3.2c1.7,0,3.2-1.4,3.2-3.2
		C-84.1-284.7-85.5-286.1-87.3-286.1z"/>
	<path class="st2" d="M-114.9-305.9c0-2.9,2.3-5,5.2-4.9c2.7,0,5,2.3,5,5.1c0,2.7-2.5,5.1-5.1,5C-112.7-300.7-114.9-303-114.9-305.9
		z"/>
	<path class="st2" d="M-87.3-286.1c1.8,0,3.2,1.4,3.2,3.2c0,1.7-1.5,3.2-3.2,3.2s-3.1-1.5-3.1-3.2C-90.5-284.7-89-286.1-87.3-286.1z
		"/>
</g>
<path class="st3" d="M8.6-277.2c0.1-0.7,0.2-1.3,0.2-2c0.5-3.8,1-7.6,1.4-11.5c0.1-0.9,0.4-1.7,0.8-2.4c1-1.9,2.2-3,4.1-3
	c3.1,0,6.1-0.2,9.2,0.1c1.6,0.2,2.8,1.1,3.6,2.8c0.6,1.2,0.5,2.3,0.8,3.6c0.8,4.8,1.5,9.5,2.3,14.3c0.1,0.5,0.1,0.9,0.1,1.4
	c-0.1,1-0.5,1.6-1.3,1.7s-1.4-0.3-1.8-1.1c-0.2-0.5-0.3-0.9-0.3-1.4c-0.6-3.9-1.2-7.9-1.9-11.8c-0.1-0.5-0.3-1.5-1-1.5
	c-0.6,0-0.4,0.8-0.4,1.3c0,6,0,12.1,0,18.1c0,5.9,0,11.7,0,17.6c0,0.4,0,0.9,0,1.3c-0.1,1.1-0.8,1.9-1.8,2c-0.9,0.1-1.6-0.5-1.9-1.5
	c-0.2-0.5-0.2-1.1-0.2-1.7c0-6.6,0-13.1,0-19.7c0-0.5,0-1.1-0.7-1.2s-1.1,0.2-1.1,1.2c0,6.6,0,13.2,0,19.7c0,0.4,0,0.8,0,1.2
	c-0.2,1.3-1,2.1-2.1,1.9c-1-0.2-1.7-1.1-1.7-2.5c0-1.2,0-2.5,0-3.7c0-11,0-22,0-33c0-0.5,0-1.1-0.6-1.1c-0.7-0.1-0.9,0.5-1,1.1
	c-0.5,4-1,8.1-1.5,12.1c-0.2,1.6-1.4,2.3-2.6,1.5C8.9-273.4,8.2-274,8.6-277.2z"/>
<path class="st4" d="M24.4-302.7c0-2.7-2.1-4.7-4.9-4.7c-2.6,0-4.7,2.2-4.7,4.8c0,2.5,2.3,4.8,4.8,4.8
	C22.3-297.8,24.4-299.9,24.4-302.7z"/>
<polygon class="st5" points="26.8,-264.5 12.4,-264.5 15,-288.6 24.1,-288.6 "/>
<path class="st6" d="M46.1,14.8H3.9c-1.2,0-2.2-0.9-2.2-2.1c0-0.1,0-7.1,0-7.2c0-1.2,1-2.3,2.3-2.3h42.2c1.2,0,2.3,1,2.3,2.3v7.1
	C48.3,13.8,47.3,14.8,46.1,14.8z M46.1,46.7H3.9c-1.2,0-2.2-0.9-2.2-2.1c0-0.1,0-7.1,0-7.2c0-1.2,1-2.3,2.3-2.3h42.2
	c1.2,0,2.3,1,2.3,2.3v7.1C48.3,45.8,47.3,46.7,46.1,46.7z M32.8,30.5H3.9c-1.2,0-2.2-0.9-2.2-2.1c0-0.1,0-7.1,0-7.2
	c0-1.2,1-2.3,2.3-2.3h28.9c1.2,0,2.3,1,2.3,2.3v7.1C35,29.6,34,30.5,32.8,30.5z M46.1,30.5h-6.3c-1.2,0-2.2-0.9-2.2-2.1
	c0-0.1,0-7.1,0-7.2c0-1.2,1-2.3,2.3-2.3h6.3c1.2,0,2.3,1,2.3,2.3v7.1C48.3,29.6,47.3,30.5,46.1,30.5z"/>
</svg>
