<?xml version="1.0" encoding="utf-8"?>
<!-- Generator: Adobe Illustrator 19.2.1, SVG Export Plug-In . SVG Version: 6.00 Build 0)  -->
<svg version="1.1" id="Layer_1" xmlns="http://www.w3.org/2000/svg" xmlns:xlink="http://www.w3.org/1999/xlink" x="0px" y="0px"
	 viewBox="0 0 70 50" style="enable-background:new 0 0 70 50;" xml:space="preserve">
<style type="text/css">
	.st0{fill:#565856;}
</style>
<path class="st0" d="M50.7,21.7v-5.2v-0.1C50.5,10.6,46.2,1.8,35,1.8s-15.5,8.7-15.7,14.6v0.1v5.2c-2.5,0-4.6,2.1-4.6,4.6v17.2
	c0,2.6,2.1,4.6,4.6,4.6h31.3c2.6,0,4.6-2.1,4.6-4.6V26.4C55.3,23.8,53.2,21.8,50.7,21.7z M28.6,16.7c0.1-1.7,1-5.6,6.4-5.6
	c5.5,0,6.3,3.9,6.4,5.6v4.7H28.6V16.7z"/>
</svg>
