<?xml version="1.0" encoding="utf-8"?>
<!-- Generator: Adobe Illustrator 19.2.1, SVG Export Plug-In . SVG Version: 6.00 Build 0)  -->
<svg version="1.1" id="Layer_1" xmlns="http://www.w3.org/2000/svg" xmlns:xlink="http://www.w3.org/1999/xlink" x="0px" y="0px"
	 viewBox="0 0 50 50" style="enable-background:new 0 0 50 50;" xml:space="preserve">
<style type="text/css">
	.st0{fill:#FFFFFF;}
	.st1{stroke:#000000;stroke-width:8.259;stroke-linecap:round;stroke-linejoin:round;stroke-miterlimit:10;}
</style>
<path class="st0" d="M24.6,48.4c-0.6,0-1.1-0.1-1.6-0.3c-1.8-0.7-3-2.4-3-4.3v-5.3H6.5c-2.6,0-4.6-2.1-4.6-4.6V7.3
	c0-2.6,2.1-4.6,4.6-4.6h37.4c2.6,0,4.6,2.1,4.6,4.6v26.5c0,2.6-2.1,4.6-4.6,4.6h-8.4L28,46.8C27.2,47.8,25.9,48.4,24.6,48.4z
	 M13.2,29.2c0-1.3-1-2.3-2.3-2.3s-2.3,1-2.3,2.3s1,2.3,2.3,2.3S13.2,30.5,13.2,29.2z M20.5,29.2c0-1.3-1-2.3-2.3-2.3s-2.3,1-2.3,2.3
	s1,2.3,2.3,2.3S20.5,30.5,20.5,29.2z M27.9,29.2c0-1.3-1-2.3-2.3-2.3s-2.3,1-2.3,2.3s1,2.3,2.3,2.3S27.9,30.5,27.9,29.2z"/>
<path class="st1" d="M-13.5,16.8"/>
</svg>
