<?xml version="1.0" encoding="utf-8"?>
<!-- Generator: Adobe Illustrator 19.2.1, SVG Export Plug-In . SVG Version: 6.00 Build 0)  -->
<svg version="1.1" id="Layer_1" xmlns="http://www.w3.org/2000/svg" xmlns:xlink="http://www.w3.org/1999/xlink" x="0px" y="0px"
	 viewBox="0 0 50 50" style="enable-background:new 0 0 50 50;" xml:space="preserve">
<style type="text/css">
	.st0{fill:#FFFFFF;stroke:#000000;stroke-width:8.259;stroke-linecap:round;stroke-linejoin:round;stroke-miterlimit:10;}
	.st1{fill:#FFFFFF;}
</style>
<path class="st0" d="M36.5,17.8"/>
<path class="st1" d="M42.7,2.7H7.3c-2.6,0-4.6,2.1-4.6,4.6v26c0,2.6,2.1,4.6,4.6,4.6h6.8l7.4,8.4c0.9,1,2.2,1.6,3.5,1.6
	s2.6-0.5,3.5-1.6l7.4-8.4h6.8c2.6,0,4.6-2.1,4.6-4.6v-26C47.3,4.8,45.3,2.7,42.7,2.7z M39.9,24H10.1c-1.3,0-2.3-1-2.3-2.3
	s1-2.3,2.3-2.3H40c1.3,0,2.3,1,2.3,2.3S41.2,24,39.9,24z M39.9,13.8H10.1c-1.3,0-2.3-1-2.3-2.3s1-2.3,2.3-2.3H40
	c1.3,0,2.3,1,2.3,2.3C42.3,12.7,41.2,13.8,39.9,13.8z"/>
</svg>
