<?xml version="1.0" encoding="utf-8"?>
<!-- Generator: Adobe Illustrator 19.2.1, SVG Export Plug-In . SVG Version: 6.00 Build 0)  -->
<svg version="1.1" id="Layer_1" xmlns="http://www.w3.org/2000/svg" xmlns:xlink="http://www.w3.org/1999/xlink" x="0px" y="0px"
	 viewBox="0 0 46.5 50" style="enable-background:new 0 0 46.5 50;" xml:space="preserve">
<style type="text/css">
	.st0{fill:#565856;}
</style>
<g>
	<path class="st0" d="M28.6,2.7c-0.7,0-1.1,0.3-1.5,0.6s-0.6,0.5-1.4,0.5c-1.4,0-2.1-0.4-2.1-0.4l0,0c-0.1,0-0.2-0.1-0.3-0.1
		c0,0,0,0-0.1,0l0,0c-0.1,0-0.2,0-0.3,0.1l0,0l0,0c-0.1,0-0.1,0.1-0.2,0.2c0,0,0,0,0,0.1c-0.1,0.1-0.1,0.2-0.1,0.3v4.3v2.2
		c0,0.4,0.3,0.7,0.7,0.7s0.7-0.3,0.7-0.7V9.2c0.5,0.1,1.1,0.2,1.8,0.2C27,9.4,27.5,9,28,8.7c0.3-0.2,0.4-0.3,0.7-0.3
		c0.2,0,0.4-0.1,0.5-0.2c0.1-0.1,0.2-0.3,0.2-0.5V3.4C29.3,3,28.9,2.7,28.6,2.7z"/>
	<path class="st0" d="M39.9,11.2H6.6C4,11.2,2,13.3,2,15.8v26.8c0,2.6,2.1,4.6,4.6,4.6h12.5c0.8,0,1.5-0.7,1.5-1.5V33.2H26v12.6
		c0,0.8,0.7,1.5,1.5,1.5H40c2.6,0,4.6-2.1,4.6-4.6V15.9C44.6,13.3,42.5,11.2,39.9,11.2z M9.8,38H5.3v-4.8h4.5V38z M9.8,23.9H5.3
		v-4.8h4.5V23.9z M17.7,38h-4.5v-4.8h4.5V38z M17.7,23.9h-4.5v-4.8h4.5V23.9z M25.5,23.9H21v-4.8h4.5V23.9z M33.3,38h-4.5v-4.8h4.5
		V38z M33.3,23.9h-4.5v-4.8h4.5V23.9z M41.2,38h-4.5v-4.8h4.5V38z M41.2,23.9h-4.5v-4.8h4.5V23.9z"/>
</g>
</svg>
