<?xml version="1.0" encoding="utf-8"?>
<!-- Generator: Adobe Illustrator 19.2.1, SVG Export Plug-In . SVG Version: 6.00 Build 0)  -->
<svg version="1.1" id="Layer_1" xmlns="http://www.w3.org/2000/svg" xmlns:xlink="http://www.w3.org/1999/xlink" x="0px" y="0px"
	 viewBox="0 0 50 50" style="enable-background:new 0 0 50 50;" xml:space="preserve">
<style type="text/css">
	.st0{fill:#FFFFFF;}
</style>
<g>
	<g>
		<path class="st0" d="M42.9,28.8H39c-0.6,0-1.1,0.5-1.1,1.1v17c0,0.6,0.5,1.1,1.1,1.1h3.9c0.6,0,1.1-0.5,1.1-1.1v-17
			C44,29.2,43.5,28.8,42.9,28.8z"/>
		<circle class="st0" cx="41" cy="23.3" r="4.8"/>
	</g>
	<path class="st0" d="M36.5,28.8H36c-0.6,0-1.1,0.5-1.1,1.1v8.8c0,0.6,0.5,1.1,1.1,1.1h0.5c0.6,0,1.1-0.5,1.1-1.1v-8.8
		C37.6,29.2,37.1,28.8,36.5,28.8z"/>
	<path class="st0" d="M45.9,28.8h-0.5c-0.6,0-1.1,0.5-1.1,1.1v8.8c0,0.6,0.5,1.1,1.1,1.1h0.5c0.6,0,1.1-0.5,1.1-1.1v-8.8
		C47,29.2,46.5,28.8,45.9,28.8z"/>
</g>
<path class="st0" d="M13.3,9.3c0-3.7-2.5-6.7-5.5-6.7s-5.5,3-5.5,6.7c0,3.5,2.2,6.3,5,6.6l-0.4,0.8h1.7l-0.4-0.8
	C11.1,15.6,13.3,12.8,13.3,9.3z"/>
<path class="st0" d="M12.4,38.3c-4-0.8-4.5-13.9-4.3-18.9c0-0.9,0.1-1.6,0-1.9c0-0.2-0.2-0.3-0.3-0.3l0,0c-0.2,0-0.3,0.2-0.3,0.3
	c0,0.3,0,1,0,1.9C7.2,25,7.7,38.1,12.3,39c0,0,0,0,0.1,0c0.2,0,0.3-0.1,0.3-0.3C12.7,38.6,12.6,38.4,12.4,38.3z"/>
<g>
	<path class="st0" d="M20.8,28.7h-3.4c-0.2,0-0.4,0.2-0.4,0.4l-1.2,12.6c0,0.1,0,0.2,0.1,0.3c0.1,0.1,0.2,0.1,0.3,0.1h5.7
		c0.1,0,0.2-0.1,0.3-0.1c0.1-0.1,0.1-0.2,0.1-0.3l-1.2-12.6C21.2,28.9,21,28.7,20.8,28.7z"/>
	<path class="st0" d="M23.1,29c0-0.2-0.1-0.3-0.2-0.4s-0.3-0.1-0.4-0.1l-0.6,0.1c-0.3,0-0.6,0.3-0.5,0.7l1,9.5
		c0,0.3,0.3,0.5,0.6,0.5c0,0,0,0,0.1,0l0.6-0.1c0.2,0,0.3-0.1,0.4-0.2c0.1-0.1,0.1-0.3,0.1-0.4L23.1,29z"/>
	<path class="st0" d="M15,29c0-0.2,0.1-0.3,0.2-0.4c0.1-0.1,0.3-0.1,0.4-0.1l0.6,0.1c0.3,0,0.6,0.3,0.5,0.7l-1,9.5
		c0,0.3-0.3,0.5-0.6,0.5c0,0,0,0-0.1,0l-0.6-0.1c-0.2,0-0.3-0.1-0.4-0.2c0-0.1,0-0.2,0-0.4L15,29z"/>
	<path class="st0" d="M20.9,42.8h-3.5c-0.2,0-0.3,0.1-0.3,0.3v4.5c0,0.2,0.1,0.3,0.3,0.3h3.5c0.2,0,0.3-0.1,0.3-0.3v-4.5
		C21.2,42.9,21,42.8,20.9,42.8z"/>
	<circle class="st0" cx="19.1" cy="23.3" r="4.8"/>
</g>
</svg>
