<?xml version="1.0" encoding="utf-8"?>
<!-- Generator: Adobe Illustrator 19.2.1, SVG Export Plug-In . SVG Version: 6.00 Build 0)  -->
<svg version="1.1" id="Layer_1" xmlns="http://www.w3.org/2000/svg" xmlns:xlink="http://www.w3.org/1999/xlink" x="0px" y="0px"
	 viewBox="0 0 50 50" style="enable-background:new 0 0 50 50;" xml:space="preserve">
<style type="text/css">
	.st0{fill:#FFFFFF;}
</style>
<path class="st0" d="M41.8,18.2h-7.4c-0.4,0-0.7,0.3-0.7,0.6v28.3c0,0.2,0,0.4,0.2,0.5c0.1,0.1,0.3,0.2,0.5,0.2h7.4
	c0.2,0,0.4-0.1,0.5-0.2c0.1-0.1,0.2-0.3,0.2-0.5V18.8C42.4,18.4,42.1,18.2,41.8,18.2z"/>
<circle class="st0" cx="38.1" cy="9.3" r="6.6"/>
<g>
	<g>
		<path class="st0" d="M22.3,18.2H17c-0.4,0-0.7,0.3-0.7,0.6l-1.8,19.6c0,0.2,0,0.4,0.2,0.5c0.1,0.1,0.3,0.2,0.5,0.2H24
			c0.2,0,0.4-0.1,0.5-0.2c0.1-0.1,0.2-0.3,0.2-0.5L23,18.8C22.9,18.4,22.6,18.2,22.3,18.2z"/>
		<circle class="st0" cx="19.6" cy="9.3" r="6.6"/>
		<path class="st0" d="M15.2,17.9l-0.9-0.1c-0.2,0-0.5,0-0.7,0.2s-0.3,0.4-0.3,0.6L11.9,32L3,29.5c-0.4-0.1-0.8,0.1-0.9,0.5
			s0.1,0.8,0.5,0.9l9.2,2.7c0,0.2,0.1,0.4,0.2,0.6c0.2,0.2,0.4,0.3,0.6,0.3l0.9,0.1h0.1c0.5,0,0.9-0.4,0.9-0.8L16.1,19
			C16.1,18.5,15.8,18,15.2,17.9z"/>
		<path class="st0" d="M25.9,18.7c0-0.2-0.1-0.5-0.3-0.6c-0.2-0.2-0.4-0.2-0.7-0.2H24c-0.5,0.1-0.9,0.5-0.8,1l1.6,14.8
			c0.1,0.5,0.5,0.8,0.9,0.8h0.1l0.9-0.1c0.2,0,0.5-0.1,0.6-0.3s0.2-0.4,0.2-0.7L25.9,18.7z"/>
		<path class="st0" d="M22.3,40.1h-5.4c-0.2,0-0.4,0.2-0.4,0.4v7c0,0.2,0.2,0.4,0.4,0.4h5.4c0.2,0,0.4-0.2,0.4-0.4v-7
			C22.7,40.3,22.6,40.1,22.3,40.1z"/>
	</g>
</g>
<path class="st0" d="M44.5,18.2h-0.9c-0.5,0-0.9,0.4-0.9,0.9v14.5c0,0.5,0.4,0.9,0.9,0.9h0.9c0.5,0,0.9-0.4,0.9-0.9V19.1
	C45.4,18.6,45,18.2,44.5,18.2z"/>
<path class="st0" d="M31.7,18.2h0.9c0.5,0,0.9,0.4,0.9,0.9v14.5c0,0.5-0.4,0.9-0.9,0.9h-0.9c-0.5,0-0.9-0.4-0.9-0.9V19.1
	C30.8,18.6,31.2,18.2,31.7,18.2z"/>
</svg>
