<?xml version="1.0" encoding="utf-8"?>
<!-- Generator: Adobe Illustrator 19.2.1, SVG Export Plug-In . SVG Version: 6.00 Build 0)  -->
<svg version="1.1" id="Layer_1" xmlns="http://www.w3.org/2000/svg" xmlns:xlink="http://www.w3.org/1999/xlink" x="0px" y="0px"
	 viewBox="0 0 70 50" style="enable-background:new 0 0 70 50;" xml:space="preserve">
<style type="text/css">
	.st0{fill:#565856;}
	.st1{stroke:#000000;stroke-width:0.7423;stroke-linecap:round;stroke-linejoin:round;stroke-miterlimit:10;}
</style>
<path class="st0" d="M59.4,21.7H37.3v-5.2v-0.1c-0.2-5.9-4.5-14.6-15.7-14.6S6.1,10.5,5.9,16.4c-0.1,2.6,1.9,4.7,4.5,4.8
	c2.6,0,4.7-1.9,4.8-4.5c0-0.9,0.5-5.6,6.4-5.6c5.5,0,6.3,3.9,6.4,5.6v5.1c-2.5,0-4.6,2.1-4.6,4.6v17.2c0,2.6,2.1,4.6,4.6,4.6h31.3
	c2.6,0,4.6-2.1,4.6-4.6V26.4C64.1,23.8,62,21.7,59.4,21.7z"/>
<path class="st1" d="M144.4-357.7c0-2.7-2.1-4.7-4.9-4.7c-2.6,0-4.7,2.2-4.7,4.8c0,2.5,2.3,4.8,4.8,4.8
	C142.3-352.8,144.4-354.9,144.4-357.7z"/>
</svg>
