<?xml version="1.0" encoding="utf-8"?>
<!-- Generator: Adobe Illustrator 19.2.1, SVG Export Plug-In . SVG Version: 6.00 Build 0)  -->
<svg version="1.1" id="Layer_1" xmlns="http://www.w3.org/2000/svg" xmlns:xlink="http://www.w3.org/1999/xlink" x="0px" y="0px"
	 viewBox="0 0 100 100" style="enable-background:new 0 0 100 100;" xml:space="preserve">
<style type="text/css">
	.st0{fill:#333232;}
</style>
<g>
	<g>
		<path class="st0" d="M48.8,13.5c-14.5,2-31.3,9.3-35.4,24.7C9.3,53.3,11.6,69.5,24.8,79c12.3,8.9,32.4,13.7,46.9,7.8
			c16.3-6.4,16.6-24,16.8-39.1c0.1-8.6-0.4-16.4-6-23.3c-5.3-6.6-13.3-9.9-21.6-9.8c-3.2,0-3.2,5,0,5c8.8,0,16.9,4.5,20.7,12.6
			c3.4,7.5,2.1,17.3,1.8,25.3c-0.4,8.3-2,17.4-9.3,22.5c-7.6,5.2-17.5,4.7-26.1,3.1c-8.4-1.6-16.7-4.7-23.2-10.5
			c-7.1-6.4-8.2-14.1-7.8-23.2c0.4-9,2.6-17,10.2-22.5c6.7-4.9,14.9-7.4,23-8.5C53.3,17.9,51.9,13.1,48.8,13.5L48.8,13.5z"/>
	</g>
</g>
<g>
	<g>
		<path class="st0" d="M38.6,40.8C38.5,40.7,38.5,40.7,38.6,40.8c0.1,0.3,0.2,0.5,0.2,0.7c0-0.2,0-0.2,0,0.1c0,0.2-0.1,0.4-0.2,0.6
			c0,0,0-0.1,0.1-0.1c-0.1,0.3-0.4,0.5-0.7,0.6c-0.4,0.3-0.9,0.4-1.4,0.2c-0.1-0.1-0.3-0.1-0.4-0.2c-0.5-0.3-0.8-0.9-0.8-1.5
			c0-0.7,0.2-1.2,0.7-1.5c0.2-0.1,0.2-0.2,0-0.1c0.1-0.1,0.3-0.1,0.4-0.2c-0.2,0-0.2,0,0.1,0c0.2-0.1,0.4,0,0.7,0
			c1.8,2.3,1.8,3.5-0.1,3.7c-0.6,0.4-1.2,0.3-1.7-0.2c-0.1-0.1-0.2-0.2-0.2-0.3c-0.3-0.4-0.3-1.1,0-1.5c0.4-0.3,0.8-0.6,1.2-0.9
			c0.3-0.1,0.6-0.1,0.9,0c0.1,0.1,0.2,0.1,0.4,0.2c-0.2-0.1-0.1-0.1,0,0.1c0.2,0.2,0.2,0.2,0.1,0c0.1,0.1,0.2,0.2,0.3,0.3
			c0.1,0.3,0.2,0.4,0.1,0.2c-0.1-0.2,0-0.1,0,0.3c0-0.2,0.1-0.6-0.1,0.1c0.1-0.5-0.3,0.5,0,0c0.6-1.2,0.3-2.8-0.9-3.4
			c-1.2-0.6-2.8-0.3-3.4,0.9c-0.6,1.1-0.8,2.4-0.4,3.6c0.4,1.2,1.4,2.3,2.7,2.6c1.7,0.4,3.3-0.5,3.8-2.2c0.4-1.4-0.3-3.3-1.6-4
			c-1.6-0.9-3.6-0.2-4.4,1.5c-0.7,1.6,0.3,3.6,2.1,3.9c1.4,0.3,2.8-0.2,3.7-1.4c1-1.3,0.8-3.1-0.4-4.2c-1.3-1.2-3.3-1.2-4.6,0.1
			c-1.1,1.1-1.3,3-0.5,4.3c0.7,1.1,2.3,1.6,3.4,0.9C38.8,43.5,39.3,42,38.6,40.8L38.6,40.8z"/>
	</g>
</g>
<g>
	<g>
		<path class="st0" d="M72.2,40.8C72.1,40.7,72.1,40.7,72.2,40.8c0.1,0.3,0.2,0.5,0.2,0.7c0-0.2,0-0.2,0,0.1c0,0.2-0.1,0.4-0.2,0.6
			c0,0,0-0.1,0.1-0.1c-0.1,0.3-0.4,0.5-0.7,0.6c-0.4,0.3-0.9,0.4-1.4,0.2c-0.1-0.1-0.3-0.1-0.4-0.2c-0.5-0.3-0.8-0.9-0.8-1.5
			c0-0.7,0.2-1.2,0.7-1.5c0.2-0.1,0.2-0.2,0-0.1c0.1-0.1,0.3-0.1,0.4-0.2c-0.2,0-0.2,0,0.1,0c0.2-0.1,0.4,0,0.7,0
			c1.8,2.3,1.8,3.5-0.1,3.7c-0.6,0.4-1.2,0.3-1.7-0.2c-0.1-0.1-0.2-0.2-0.2-0.3c-0.3-0.4-0.3-1.1,0-1.5c0.4-0.3,0.8-0.6,1.2-0.9
			c0.3-0.1,0.6-0.1,0.9,0c0.1,0.1,0.2,0.1,0.4,0.2c-0.2-0.1-0.1-0.1,0,0.1c0.2,0.2,0.2,0.2,0.1,0c0.1,0.1,0.2,0.2,0.3,0.3
			c0.1,0.3,0.2,0.4,0.1,0.2c-0.1-0.2,0-0.1,0,0.3c0-0.2,0.1-0.6-0.1,0.1c0.1-0.5-0.3,0.5,0,0c0.6-1.2,0.3-2.8-0.9-3.4
			c-1.2-0.6-2.8-0.3-3.4,0.9c-0.6,1.1-0.8,2.4-0.4,3.6c0.4,1.2,1.4,2.3,2.7,2.6c1.7,0.4,3.3-0.5,3.8-2.2c0.4-1.4-0.3-3.3-1.6-4
			c-1.6-0.9-3.6-0.2-4.4,1.5c-0.7,1.6,0.3,3.6,2.1,3.9c1.4,0.3,2.8-0.2,3.7-1.4c1-1.3,0.8-3.1-0.4-4.2c-1.3-1.2-3.3-1.2-4.6,0.1
			c-1.1,1.1-1.3,3-0.5,4.3c0.7,1.1,2.3,1.6,3.4,0.9C72.4,43.5,72.9,42,72.2,40.8L72.2,40.8z"/>
	</g>
</g>
<g>
	<g>
		<path class="st0" d="M33.8,62.4c3.2,8.3,14.7,13.2,23.1,13.4c8.6,0.2,16.7-6.3,14.5-15.4c-0.7-3.1-5.6-1.8-4.8,1.3
			c3.4,14.5-24.4,8.6-28-0.7C37.5,58.1,32.7,59.4,33.8,62.4L33.8,62.4z"/>
	</g>
</g>
</svg>
