<?xml version="1.0" encoding="utf-8"?>
<!-- Generator: Adobe Illustrator 19.2.1, SVG Export Plug-In . SVG Version: 6.00 Build 0)  -->
<svg version="1.1" id="Layer_1" xmlns="http://www.w3.org/2000/svg" xmlns:xlink="http://www.w3.org/1999/xlink" x="0px" y="0px"
	 viewBox="0 0 100 100" style="enable-background:new 0 0 100 100;" xml:space="preserve">
<style type="text/css">
	.st0{fill:#333232;}
</style>
<g>
	<g>
		<g>
			<path class="st0" d="M40.2,19.7c-6,2.1-12.7,4.8-16.8,9.8C19.3,34.3,18,41.9,17.3,48c-1.4,12,7,26.8,18.4,31.1
				c6.6,2.5,14.2,2.9,21.2,3c6.4,0.1,13.7,0.3,18.8-4c4.7-4,6.4-10,7-15.9c0.7-7.6,0.5-16-1.7-23.4C77.1,25.6,64.7,14.3,50.2,19
				c-3,1-1.7,5.8,1.3,4.8c15.8-5.1,25,11.6,26.2,24.8c0.6,6.7,1,15-1.9,21.2c-3.6,7.6-11.6,7.5-18.9,7.4c-6.8-0.1-14.5-0.3-20.7-3.2
				c-6.1-2.8-10.4-9.6-12.7-15.8c-2.4-6.4-1-13.2,0.9-19.6c2.4-8,9.7-11.4,17.2-14C44.5,23.5,43.2,18.6,40.2,19.7L40.2,19.7z"/>
		</g>
	</g>
	<g>
		<g>
			<path class="st0" d="M33.6,38C33,42,36,45.8,40.2,44.7c3.8-1,5.5-6.2,2.3-8.9c-3.1-2.6-8,0-8,3.9c0,4.2,4.7,6.9,8.4,5.1
				c3.7-1.8,4.3-6.9,0.8-9.3c-3.2-2.1-7.9-1.4-9.7,2.2c-1.8,3.7,0.5,8,4.2,9.2c4.1,1.4,9.2-0.8,9.8-5.4c0.5-4.6-2.1-8.8-7-8.9
				c-4.7-0.1-7.8,4.3-7.8,8.7c0,3.2,5,3.2,5,0c0-2,2.1-5.1,4.2-3.2c0.9,0.9,1,3,0,3.7c-1,0.8-2.9,0.5-3.7-0.5
				c-0.6-0.8-0.5-1.9,0.5-2.2c0.5-0.1,2.6,0.3,1.5,1c-0.4,0.3-0.8,0-1.1-0.2c-0.7-0.4,0.1-0.4,0-0.5c-1.4-1.3,0.1,0.5-0.9,0.2
				c-0.2-0.1-0.6-0.1-0.5-0.5C38.9,36.2,34.1,34.9,33.6,38L33.6,38z"/>
		</g>
	</g>
	<g>
		<g>
			<path class="st0" d="M65.2,36.1c-2.8-2-9.4-1.2-10.1,2.8c-0.7,4,3.6,7.5,7.3,7.2c3.5-0.3,7.4-4,6.3-7.7c-0.5-1.8-2.6-3-4.2-3.7
				c-1.9-0.8-4.1-1-6-0.1c-4.5,2-3.9,6.9-1.4,10.3c1.2,1.6,2.9,2.5,4.9,2c2.2-0.5,3.8-2.6,4.8-4.4c1-1.8,1.5-4,0.4-5.8
				c-1-1.7-3.1-2.4-5-2.3c-1.9,0.2-3.9,1.2-4.7,3c-0.9,2-0.1,4.4,1.1,6.1c3.1,4.2,9.7-0.4,10-4.6c0.2-2.3-1.2-4.4-3.4-5.1
				c-2.5-0.8-4.9,0.2-7,1.6c-2.7,1.7-0.2,6,2.5,4.3c0.7-0.4,1.7-1.2,2.5-1.2c0.6,0,0.5-0.1,0.3,0.4c-0.2,0.5-1.7,1-1.7,1.3
				c0-0.1,1.5,1.1,0.6-0.2c-0.2-0.3-0.4-0.2-0.3-0.3c0.2-0.2,0.9-0.2,0.9-0.2c0.1,0.2-1,1.6-1.2,1.9c-0.1,0.2-0.8,0.7-0.8,0.8
				c0-0.1,0.4,0.5,0.3,0.1c-0.1-0.8-1.3-1.4-1.2-2.3c0.1-1.3,1.9-0.8,2.7-0.5c0.4,0.2,0.8,0.6,1.2,0.7c0.9,0.2-0.4-0.2,0-0.4
				c-0.3,0.1-0.6,1-1,1.2c-0.5,0.3-0.9,0.4-1.4,0.2c-0.6-0.2-0.8-0.7-1.2-0.9c-0.1-0.4-0.3-0.3-0.5,0.1c-0.4,0.4-0.5,0.4-0.1,0.3
				c0.1,0,1.1-0.4,1.1-0.4c0.8-0.2,1.3-0.2,1.9,0.3C65.3,42.3,67.8,38,65.2,36.1L65.2,36.1z"/>
		</g>
	</g>
	<g>
		<g>
			<path class="st0" d="M37.3,57c-0.4,8.7,8,13.5,15.7,14.5c10.5,1.3,14.1-7.1,13-16.2c-0.4-3.2-5.4-3.2-5,0c0.3,2.2,0.7,4.8,0.1,7
				c-1.2,4.4-5.2,4.8-9,4c-4.8-1-10.1-3.6-9.9-9.3C42.5,53.8,37.5,53.8,37.3,57L37.3,57z"/>
		</g>
	</g>
</g>
</svg>
