<?xml version="1.0" encoding="utf-8"?>
<!-- Generator: Adobe Illustrator 19.2.1, SVG Export Plug-In . SVG Version: 6.00 Build 0)  -->
<svg version="1.1" id="Layer_1" xmlns="http://www.w3.org/2000/svg" xmlns:xlink="http://www.w3.org/1999/xlink" x="0px" y="0px"
	 viewBox="0 0 100 100" style="enable-background:new 0 0 100 100;" xml:space="preserve">
<style type="text/css">
	.st0{fill:#333232;}
</style>
<g>
	<g>
		<g>
			<path class="st0" d="M50.5,12.5c-13.1,2-29.3,5.6-34.2,19.9c-2.4,7.1-1.4,15.7-0.3,23c1.1,7.1,3.5,14.1,8.2,19.7
				c4.7,5.6,11.5,8.5,18.4,10.7c7.1,2.3,14.1,2.6,21-0.5c13.2-6,22.9-16.7,21.5-31.9C83.5,38.3,73.1,21.2,59.1,15
				c-2.9-1.3-5.5,3-2.5,4.3c13,5.8,23.1,22.2,23.5,36.3c0.5,17-18.5,30.3-34.5,25.8c-8.1-2.2-15.8-5.7-20.2-13.2
				c-4.2-7.1-5.1-15.5-5.4-23.6c-0.3-8.8,1.7-15.8,9.3-20.8c6.6-4.3,14.8-5.5,22.5-6.6C55,16.8,53.6,12,50.5,12.5L50.5,12.5z"/>
		</g>
	</g>
	<g>
		<g>
			<path class="st0" d="M35.9,40.7c-1.7,0.6-2.8,2.1-2.6,3.9c0.1,1.9,1.5,3.3,3.3,3.8c1.7,0.4,3.8,0.2,5.1-1.1
				c1.5-1.5,1.5-4-0.2-5.4C39,40,34.2,40.5,33.7,44c-0.5,4.1,4.9,6.6,7.7,3.6c1.4-1.5,1.5-3.9,0.1-5.5c-1.4-1.5-3.9-1.5-5.4,0
				c-1,1-1,2.6,0,3.5c1,1,2.6,1,3.5,0c-0.3,0.2-0.6,0.4-1,0.4c-0.4-0.1-0.4-0.1-0.1,0c-0.4-0.2-0.8-0.4-0.9-0.9
				c-0.1-0.3-0.1-0.6,0.1-0.9c-0.1,0.2-0.1,0.2,0,0.1c0.2-0.2,0.3-0.3,0.6-0.4c0.3,0.1,0.3,0,0,0c0.1,0,0.1,0,0.2,0.1
				c0.2,0.2,0.2,0.2,0,0c0.2,0.2,0.2,0.4,0.2,0.6c0,0.5-0.3,0.8-0.6,1.1c-0.3,0.1-0.4,0.2-0.1,0.1c-0.3,0-0.4,0-0.2,0
				c0.1,0,0.9,0.1,0.2,0c0.2,0,0.4,0.2,0.6,0.2c-0.5-0.2-0.8-0.6-0.9-1.3c0-0.5,0.2-0.8,0.6-1c0.1,0,0.1,0,0.2,0
				c-0.3,0.1-0.3,0.1-0.1,0c-0.2,0-0.7,0-0.3,0c-0.4-0.1-0.5-0.2-0.1,0.1c-0.2-0.2-0.2-0.2,0,0.1c0.2,0.2,0.2,0.4,0.2,0.6
				c-0.1,0.3-0.1,0.4,0,0.1c-0.2,0.5-0.5,0.9-1,1c1.3-0.4,2.1-1.7,1.7-3.1C38.6,41.2,37.2,40.3,35.9,40.7L35.9,40.7z"/>
		</g>
	</g>
	<g>
		<g>
			<path class="st0" d="M57.7,41c-1.3,2.4-0.1,5.7,2.7,6.2c1.4,0.3,2.9-0.2,3.9-1.2c1.3-1.3,1.4-3.4,0.1-4.7c-1.9-2-5.5-2.3-7.1,0.3
				c-0.8,1.3-0.6,3.1,0.5,4.2c1.2,1.2,2.7,1.4,4.2,0.7c1.2-0.6,1.6-2.3,0.9-3.4c-0.8-1.2-2.2-1.5-3.4-0.9c0.4-0.1,0.9-0.1,1.3-0.2
				c0.1,0,0.2,0.1,0.3,0.1c0.4,0.3,0.8,0.8,0.7,1.3c0,0.3-0.2,0.7-0.4,0.9c-0.1,0.1-0.3,0.2-0.1,0.1c-0.2,0.1-0.3,0.1-0.5,0.2
				c-0.4,0.1-0.1-0.1,0,0c-0.1,0-0.1,0-0.2-0.1c0.1,0,0.1,0.1,0.2,0.1c0,0-0.1-0.1-0.1-0.1c0.3,0.4,0.3,0.1,0-0.9
				c-0.1-0.7-0.3-0.9,0.1-1.3c0.1-0.1,0.5-0.2,0.3-0.2c-0.2,0.1,0.3,0,0.3,0c0.2,0,0.2,0,0.1,0c-0.1,0-0.1,0,0,0
				c0.2,0.1,0.3,0.1,0.4,0.3c0.1,0.1,0.2,0.5,0.2,0.3c-0.1-0.3,0,0.5,0,0.1c0-0.1,0-0.1,0,0.1c0,0.1,0,0.3-0.1,0.4
				c0.6-1.2,0.3-2.8-0.9-3.4C59.9,39.5,58.3,39.8,57.7,41L57.7,41z"/>
		</g>
	</g>
	<g>
		<g>
			<path class="st0" d="M37.3,67.3c4.5,5.2,9.7,9.5,17,8.6c5.3-0.7,11.8-4.5,11.4-10.6c-0.2-3.2-5.2-3.2-5,0c0.3,5-7.5,6.3-11,5.4
				c-3.8-1-6.4-4.1-8.9-7C38.7,61.3,35.2,64.9,37.3,67.3L37.3,67.3z"/>
		</g>
	</g>
	<g>
		<g>
			<path class="st0" d="M58.5,62.7c1.9,3,4.9,4.7,8.4,5c1.3,0.1,2.5-1.2,2.5-2.5c0-1.4-1.1-2.4-2.5-2.5c-1.7-0.1-3.2-1.1-4.1-2.5
				C61.1,57.5,56.8,60,58.5,62.7L58.5,62.7z"/>
		</g>
	</g>
	<g>
		<g>
			<path class="st0" d="M36.2,68.2c2-1,4-2.1,5.9-3.1c2.9-1.5,0.3-5.8-2.5-4.3c-2,1-4,2.1-5.9,3.1C30.8,65.3,33.3,69.6,36.2,68.2
				L36.2,68.2z"/>
		</g>
	</g>
</g>
</svg>
