<?xml version="1.0" encoding="utf-8"?>
<!-- Generator: Adobe Illustrator 19.2.1, SVG Export Plug-In . SVG Version: 6.00 Build 0)  -->
<svg version="1.1" id="Layer_1" xmlns="http://www.w3.org/2000/svg" xmlns:xlink="http://www.w3.org/1999/xlink" x="0px" y="0px"
	 viewBox="0 0 100 100" style="enable-background:new 0 0 100 100;" xml:space="preserve">
<style type="text/css">
	.st0{fill:#333232;}
</style>
<g>
	<g>
		<path class="st0" d="M54.1,11.7c-8-1.5-15.6,0.4-22.5,4.4c-6.2,3.6-13.7,8.1-15.9,15.3c-4.6,15.1,4.5,31.5,14.6,42.2
			c5,5.2,11.4,10.7,18.7,12.2c6.6,1.4,13.3-1.9,18.4-5.9C73.8,75,78.5,68.3,82,61.1c3.4-6.9,7.8-15.4,6.9-23.3
			c-0.8-7.8-6.1-15.8-11.3-21.5C71.4,9.6,60,10,51.4,8.7c-3.1-0.5-4.5,4.3-1.3,4.8c7.7,1.2,19.1,0.7,24.6,7c5.2,6,10.8,14.6,9,22.8
			c-3,13.9-13.2,33.5-28.2,37.3c-8.3,2.1-16.3-5.1-21.6-10.6c-5.8-6-10.6-13.4-13-21.5c-1-3.5-1.5-7.1-1.3-10.7
			c0.4-5.6,2.7-9.1,7-12.3c7.6-5.6,16.3-10.8,26.2-8.9C55.9,17.1,57.3,12.3,54.1,11.7L54.1,11.7z"/>
	</g>
</g>
<g>
	<g>
		<path class="st0" d="M33.3,33.1c-2.8,2.4-3.4,6.5-1.2,9.5c2.2,3.1,6.6,3.7,10.1,2.4c3.2-1.2,5.2-4.7,4.6-8.1
			c-0.7-3.5-4.1-5.8-7.5-5.6c-3.2,0.2-3.2,5.2,0,5c2.6-0.2,3.7,3,1.1,4.1c-2.7,1-6.3-1.2-3.4-3.8C39.3,34.5,35.7,31,33.3,33.1
			L33.3,33.1z"/>
	</g>
</g>
<g>
	<g>
		<path class="st0" d="M63.3,33.6c-3.4,1.1-5.3,4.7-4,8.1c1.3,3.4,5.1,5,8.5,4.2c3.3-0.8,6.2-3.7,6.2-7.2c0.1-4.4-3.7-6.4-7.6-6.3
			c-3.2,0.1-3.2,5.1,0,5c1.1,0,2.7-0.2,2.6,1.3c0,1-1.1,1.9-2,2.2c-1,0.4-2.2,0.3-2.9-0.6c-0.5-0.6-0.5-1.6,0.4-1.9
			C67.7,37.4,66.4,32.5,63.3,33.6L63.3,33.6z"/>
	</g>
</g>
<g>
	<g>
		<path class="st0" d="M42.4,57.6c-0.1,5.7,4.1,11.4,10,11.8c2.9,0.2,5.5-1.2,7-3.8c1.7-3,1.2-6.4,0.7-9.6c-0.5-3.2-5.3-1.8-4.8,1.3
			c0.5,2.8,0.8,8.7-3.9,6.8c-2.6-1.1-4-3.8-4-6.5C47.5,54.4,42.5,54.4,42.4,57.6L42.4,57.6z"/>
	</g>
</g>
</svg>
