<?xml version="1.0" encoding="utf-8"?>
<!-- Generator: Adobe Illustrator 19.2.1, SVG Export Plug-In . SVG Version: 6.00 Build 0)  -->
<svg version="1.1" id="Layer_1" xmlns="http://www.w3.org/2000/svg" xmlns:xlink="http://www.w3.org/1999/xlink" x="0px" y="0px"
	 viewBox="0 0 100 100" style="enable-background:new 0 0 100 100;" xml:space="preserve">
<style type="text/css">
	.st0{fill:#333232;}
</style>
<g>
	<g>
		<g>
			<path class="st0" d="M39.1,15.3c-7.3,0.1-15.9,4.1-20.4,9.9c-4.5,5.7-4.9,14-5.2,21c-0.8,15.8,4.5,31,20,37.2
				c13.1,5.3,32.2,7.2,43.1-3.5C87.4,69.3,89.6,50,83.4,36.4C77,22.6,58.6,6.5,42.8,14.9c-2.8,1.5-0.3,5.8,2.5,4.3
				c15.2-8,33,12.7,35.8,26.1c3.5,17-5.3,37.3-24.5,37.2c-15.3-0.1-32-4.3-36.8-20.7c-2.4-8-1.9-17.5-0.3-25.7
				c1.8-9.1,10.2-15.7,19.6-15.8C42.3,20.3,42.3,15.3,39.1,15.3L39.1,15.3z"/>
		</g>
	</g>
	<g>
		<g>
			<path class="st0" d="M37.1,42.6c3.2,0,3.2-5,0-5C33.9,37.6,33.9,42.6,37.1,42.6L37.1,42.6z"/>
		</g>
	</g>
	<g>
		<g>
			<path class="st0" d="M60.6,49.8c3.2,0,3.2-5,0-5C57.4,44.8,57.4,49.8,60.6,49.8L60.6,49.8z"/>
		</g>
	</g>
	<g>
		<g>
			<path class="st0" d="M40.8,66.3c2.3,2.5,3,4.8,6.3,6.1c3.3,1.3,7.3,1.9,10.8,0.9c6.9-2,10-6.8,9.6-13.8c-0.2-3.2-5.2-3.2-5,0
				c0.1,2.1,0.4,4.5-1.1,6.2c-1.5,1.8-4.4,2.9-6.6,3c-2.3,0.1-5.4-0.4-7.2-1.9c-1.3-1.1-2-2.8-3.2-4.1C42.2,60.4,38.7,64,40.8,66.3
				L40.8,66.3z"/>
		</g>
	</g>
</g>
</svg>
