<?xml version="1.0" encoding="utf-8"?>
<!-- Generator: Adobe Illustrator 19.2.1, SVG Export Plug-In . SVG Version: 6.00 Build 0)  -->
<svg version="1.1" id="Layer_1" xmlns="http://www.w3.org/2000/svg" xmlns:xlink="http://www.w3.org/1999/xlink" x="0px" y="0px"
	 viewBox="0 0 100 100" style="enable-background:new 0 0 100 100;" xml:space="preserve">
<style type="text/css">
	.st0{fill:#333232;}
</style>
<g>
	<g>
		<g>
			<path class="st0" d="M39.1,31.5c-1.8,0.7-2.9,2.2-3.2,4.1c-0.3,1.8-0.1,4,1.3,5.4c2.9,3.2,7.8,1,8.8-2.6c1.1-3.5-1.4-8.2-5.6-7
				c-4.2,1.1-3.5,7.5,0.8,7.5c2.9,0,2.9-4.5,0-4.5c0.3,0,0.7,0.4,0.8,0.6c0.1,0.4-0.4,0.5-0.5,0.8c0,0,0.1,0.1,0.1,0.2
				c0,0.7,0.2,1.3-0.4,1.9c-0.2,0.2-0.4,0.3-0.5,0.4c-0.2,0.1-0.5-0.3-0.2,0c-0.1-0.1-0.1-0.2-0.2-0.3c-0.1-0.4-0.1-0.9-0.1-1.4
				c0.1-0.4,0.5-0.7,0-0.5c1.2-0.5,1.9-1.5,1.5-2.8C41.6,32,40.3,31,39.1,31.5L39.1,31.5z"/>
		</g>
	</g>
	<g>
		<g>
			<path class="st0" d="M61.2,32.2c-1.9,0.3-3.6,1.4-4.2,3.2c-0.5,1.7,0.1,3.5,1.4,4.6c3,2.6,7.9,0.4,7.8-3.6c0-3.8-4.4-6-7.6-3.9
				c-1.5,1.1-2.3,2.8-2,4.7s1.5,3.2,3.2,3.9c1.1,0.5,2.5-0.5,2.8-1.5c0.4-1.3-0.5-2.3-1.5-2.8c0.2,0.1-0.1-0.3-0.1-0.5
				c0,0.3,0.2-0.1,0.1,0c0.2-0.1,0.3-0.1,0.4-0.1c-0.1-0.1,0.2,0.3,0.2,0.4c0-0.3-0.1,0.3,0,0.1c-0.1,0.2-0.3,0.2-0.4,0.1
				s0.1,0.1,0.1,0c-0.5-0.5,0-0.2-0.1-0.2c-0.1,0.2,0.1,0.1-0.2,0.1c1.2-0.2,2.3-0.9,2.3-2.3C63.5,33.4,62.4,32.1,61.2,32.2
				L61.2,32.2z"/>
		</g>
	</g>
	<g>
		<g>
			<path class="st0" d="M34.4,13C21.7,23.3,10.3,38.4,12.9,55.8c2.5,16.5,17.4,27.1,32.7,31c7.9,2.1,16.8,4.1,23.9-0.8
				c6.1-4.2,10.8-10.2,13.9-17c6.1-13.7,6.1-32-4-43.9C73.9,18.8,66,15,57.9,12.9c-7.2-1.8-17.3-4.2-22.3,2.9
				c-1.6,2.3,2.3,4.6,3.9,2.3c3.8-5.4,15.3-1.5,20.5,0.1c5.9,2,11.6,5.1,15.8,9.7c8.8,9.9,8.9,25.7,4.2,37.5
				c-2.3,6-6.1,11.4-11.1,15.3c-3.4,2.7-6.7,4.1-11.1,3.6c-3.7-0.4-7.4-1.1-11-2C33.9,79,20.6,70.5,17.7,56.6
				c-3.5-16.5,7.9-30.9,19.9-40.5C39.8,14.4,36.6,11.2,34.4,13L34.4,13z"/>
		</g>
	</g>
	<g>
		<g>
			<path class="st0" d="M38.9,56.4c-0.6,8.8,7.1,20.1,16.7,19.4c10.7-0.7,11.7-13.3,11.3-21.4c-0.2-2.9-4.7-2.9-4.5,0
				c0.3,5.3,0.8,14.9-6,16.7c-7.5,2-13.4-8.6-13-14.7C43.7,53.5,39.1,53.5,38.9,56.4L38.9,56.4z"/>
		</g>
	</g>
</g>
</svg>
