<?xml version="1.0" encoding="utf-8"?>
<!-- Generator: Adobe Illustrator 19.2.1, SVG Export Plug-In . SVG Version: 6.00 Build 0)  -->
<svg version="1.1" id="Layer_1" xmlns="http://www.w3.org/2000/svg" xmlns:xlink="http://www.w3.org/1999/xlink" x="0px" y="0px"
	 viewBox="0 0 100 100" style="enable-background:new 0 0 100 100;" xml:space="preserve">
<style type="text/css">
	.st0{fill:#333232;}
</style>
<g>
	<g>
		<g>
			<path class="st0" d="M40,18.4c-13.4,3.8-25.7,13.5-25.7,28.4c0,13.5,7.1,28.4,19.9,33.7c13.6,5.6,29.8,6.5,40.1-5.6
				C83,64.8,88.4,47.7,84.8,34.5c-2.2-8.3-10.4-11.4-17.4-14.8c-7.2-3.5-14.6-5.8-22.3-2.4c-2.9,1.3-0.4,5.6,2.5,4.3
				c7.8-3.5,16.2,1.8,23.1,5.4c3.7,1.9,7.3,3.6,8.9,7.8c1.3,3.4,1.2,7.3,0.9,10.9c-1,14.1-8.8,32.8-25.1,34
				c-7.1,0.5-15.2-1.4-21.5-4.6c-6.8-3.5-10.3-10.1-12.7-17.2c-2.3-6.9-3.2-14.9,0.6-21.5c3.6-6.3,12.6-11.1,19.5-13
				C44.5,22.3,43.1,17.5,40,18.4L40,18.4z"/>
		</g>
	</g>
	<g>
		<g>
			<path class="st0" d="M32.2,45c2.5-0.8,4.9-2,7.1-3.5c1.1-0.8,1.6-2.2,0.9-3.4c-0.6-1.1-2.3-1.7-3.4-0.9c-1.8,1.3-3.8,2.3-5.9,3
				C27.8,41.1,29.1,46,32.2,45L32.2,45z"/>
		</g>
	</g>
	<g>
		<g>
			<path class="st0" d="M61,40c1.5,1.2,3,2.5,4.5,3.7c1,0.9,2.5,1,3.5,0c0.9-0.9,1.1-2.7,0-3.5c-1.5-1.2-3-2.5-4.5-3.7
				c-1-0.9-2.5-1-3.5,0C60.1,37.4,59.9,39.2,61,40L61,40z"/>
		</g>
	</g>
	<g>
		<g>
			<path class="st0" d="M39.2,49c3.2,0,3.2-5,0-5C36,44,36,49,39.2,49L39.2,49z"/>
		</g>
	</g>
	<g>
		<g>
			<path class="st0" d="M59.2,48.7c3.2,0,3.2-5,0-5C56,43.7,56,48.7,59.2,48.7L59.2,48.7z"/>
		</g>
	</g>
	<g>
		<g>
			<path class="st0" d="M30.7,59.2c3.2,8.8,11.4,13.2,20.4,13.6c9.9,0.5,14.8-5.6,17-14.6c0.8-3.1-4.1-4.5-4.8-1.3
				c-1.6,6.6-4.6,11.4-12.2,11c-6.6-0.4-13.2-3.3-15.6-10C34.4,54.9,29.6,56.2,30.7,59.2L30.7,59.2z"/>
		</g>
	</g>
</g>
</svg>
