<?xml version="1.0" encoding="utf-8"?>
<!-- Generator: Adobe Illustrator 19.2.1, SVG Export Plug-In . SVG Version: 6.00 Build 0)  -->
<svg version="1.1" id="Layer_1" xmlns="http://www.w3.org/2000/svg" xmlns:xlink="http://www.w3.org/1999/xlink" x="0px" y="0px"
	 viewBox="0 0 100 100" style="enable-background:new 0 0 100 100;" xml:space="preserve">
<style type="text/css">
	.st0{fill:#333232;}
</style>
<g>
	<g>
		<g>
			<path class="st0" d="M21.6,26.7c-8.5,10.9-3.4,24.2,3.8,34.2C32,69.8,40.7,86.7,54.2,82c6.6-2.3,10.6-8.4,14.3-14
				c4.3-6.6,9.3-13.1,12.3-20.5c5.2-12.8,0.1-26-13.9-29.1c-8.6-1.9-19-2-27.6-1c-7.4,0.8-14,3.7-18.5,9.8c-1.9,2.6,2.4,5.1,4.3,2.5
				c4.7-6.5,13-7.6,20.5-7.6c7.4,0,15.9-0.6,22.9,2c18.3,6.6,5.6,26.4-1.1,36.8c-3.8,5.9-7.8,14.5-15.1,16.7
				c-7.8,2.3-12.5-6.1-16.4-11.3c-7-9.4-19.9-23.8-10.5-35.9C27.1,27.7,23.6,24.1,21.6,26.7L21.6,26.7z"/>
		</g>
	</g>
	<g>
		<g>
			<path class="st0" d="M36.9,33.5c0.3,0.6,0.3,1.2-0.1,1.7c-0.3,0.2-0.3,0.2-0.1,0.1c-0.2,0.1-0.4,0.2-0.6,0.2
				c-0.2,0-0.4-0.1-0.6-0.2c-0.3-0.2-0.3-0.2-0.1-0.1c-0.2-0.1-0.2-0.3-0.3-0.5c0,0.1,0.1,0.2,0.1,0.3c0,0.2,0,0.1,0-0.2
				c0,0.1,0,0.3,0,0.4c0.1-0.4,0-0.4,0-0.1c0-0.2,0.1-0.3,0.3-0.4c0.8-0.5,1.6-0.3,2.6,0.6c0.3,0.6,0.4,1.1,0.1,1.7
				c-0.2,0.3-0.2,0.3,0,0.1c-0.1,0.1-0.3,0.2-0.5,0.3c1.2-0.4,2.2-1.7,1.7-3.1c-0.4-1.2-1.8-2.2-3.1-1.7c-1.3,0.4-2.4,1.3-2.8,2.7
				c-0.4,1.2-0.1,2.5,0.8,3.4c1.3,1.2,3.3,1,4.5-0.2c0.9-0.9,1.3-2,1.4-3.3c0-2.4-1.7-4.7-4.2-4.6c-1.3,0-2.5,0.8-3.3,1.8
				C32,33.5,32,34.8,32.6,36c0.6,1.2,2.4,1.6,3.4,0.9C37.2,36.1,37.5,34.8,36.9,33.5L36.9,33.5z"/>
		</g>
	</g>
	<g>
		<g>
			<path class="st0" d="M63.6,36.7c0.3-0.1,0.2-0.1-0.3,0c-0.2,0-0.4,0-0.6-0.1c-0.2-0.1-0.4-0.2-0.5-0.3C62,35.9,61.9,35.8,62,36
				c-0.3-0.6-0.4-1.1,0-1.7c0.1-0.2,0.3-0.4,0.4-0.5c0.2-0.1,0.2-0.2,0.1-0.1c0.4-0.2,0.5-0.2,0.3-0.1c0.2,0,0.3,0,0.5-0.1
				c-0.3,0-0.1,0,0.3,0c0.4,0.2,0.5,0.2,0.4,0.2c-0.2-0.1-0.1,0,0.3,0.2c0.2,0.2,0.4,0.4,0.4,0.7c-0.1-0.3-0.2-0.6-0.4-0.8
				c-1-1.8-3.6-1.8-4.7-0.1c-0.4,0.6-0.5,1.4-0.3,2.1c0.1,0.4,0.4,0.8,0.7,1.1c0.5,0.5,1.1,0.7,1.8,0.7c0.6,0.1,1.4-0.3,1.8-0.7
				c0.4-0.4,0.8-1.1,0.7-1.8c0-0.6-0.2-1.3-0.7-1.8c-0.5-0.5-1.1-0.6-1.8-0.7c0,0,0,0-0.1,0c0.6,0.2,1.2,0.5,1.8,0.7c0,0,0,0,0,0
				c0.2,0.6,0.5,1.2,0.7,1.8c-0.2,0.5-0.4,1-0.6,1.5c-0.4,0.2-0.7,0.4-1.1,0.6c-0.2,0-0.3,0-0.5,0.1c-0.4-0.1-0.8-0.2-1.3-0.3
				c-0.4-0.2-0.7-0.6-0.8-1c0.1,0.2,0.2,0.5,0.3,0.7c0.2,0.3,0.4,0.5,0.6,0.8c0.4,0.4,1,0.7,1.6,0.9c1.2,0.3,2.6-0.1,3.5-1
				c1-1.1,1.2-2.9,0.3-4.1c-0.9-1.2-2.4-2-3.9-1.5c-1.2,0.4-2.2,1.7-1.7,3.1C60.9,36.1,62.3,37.1,63.6,36.7L63.6,36.7z"/>
		</g>
	</g>
	<g>
		<g>
			<path class="st0" d="M38.5,55.5c1.7,6,7.5,10.4,13.9,9.7c6.4-0.7,10.9-6.4,11.2-12.6c0.2-3.2-4.8-3.2-5,0
				c-0.5,9-12.7,10.2-15.2,1.7C42.5,51.1,37.6,52.4,38.5,55.5L38.5,55.5z"/>
		</g>
	</g>
</g>
</svg>
