<?xml version="1.0" encoding="utf-8"?>
<!-- Generator: Adobe Illustrator 19.2.1, SVG Export Plug-In . SVG Version: 6.00 Build 0)  -->
<svg version="1.1" xmlns="http://www.w3.org/2000/svg" xmlns:xlink="http://www.w3.org/1999/xlink" x="0px" y="0px"
	 viewBox="0 0 100 100" style="enable-background:new 0 0 100 100;" xml:space="preserve">
<style type="text/css">
	.st0{fill:#7DB942;}
	.st1{fill:#4293B7;}
	.st2{fill:#E8DC4E;}
	.st3{fill:#EFEFEF;}
	.st4{fill:#422B1D;}
	.st5{fill:#333232;}
	.st6{fill:#D1C3C3;}
	.st7{fill:#E33D3D;}
</style>
<g id="Layer_2">
	<path class="st2" d="M84.2,58.7c-0.1-4-0.2-8-0.3-11.9c0,0,0,0,0-0.1c0-0.3-0.1-0.7-0.2-0.9c0-0.1-0.1-0.1-0.1-0.1
		c0-0.1-0.1-0.1-0.1-0.2c-0.1-0.2-0.3-0.4-0.5-0.5c1-1.5,0.5-3.8-1.9-3.9c-8.3-0.3-16.6-0.6-25-0.9c-4.5-0.2-9-0.3-13.4-0.5
		c-3.3-0.1-7.5-1.1-10.7-0.3c-5,1.3-2.6,7.9-2,11.4c1.4,8.3,3.5,16.5,6,24.6c0.1,0.3,0.2,0.5,0.4,0.8c-0.1,1.1-0.3,2.2-0.4,3.3
		c-0.1,0.8,0,1.7,0.5,2.3c0,0,0,0,0,0c0,0,0,0,0,0c0.3,0.3,0.7,0.6,1.2,0.8c0.6,0.2,1.2,0.1,1.8-0.2c0.6-0.3,1.2-0.8,1.3-1.5
		c0.1-0.5,0.2-1,0.3-1.5c0.7,0.6,1.7,0.8,2.5,0.5c0.1,1.3,0.2,2.7,0.8,3.9c1.6,3,5.1,2.7,8.2,2c0,0,0,0.1,0.1,0.1c0,0,0,0.1,0.1,0.1
		c0.1,0.1,0.2,0.2,0.2,0.3c0,0,0,0,0,0c0,0,0,0,0,0c0.1,0.1,0.2,0.2,0.3,0.3c0,0,0,0,0.1,0c0,0,0.1,0.1,0.1,0.1c0,0,0.1,0,0.1,0.1
		c0.4,0.2,0.7,0.3,1.1,0.3c0.6,0,1.3-0.2,1.8-0.7c0.1-0.1,0.2-0.3,0.3-0.4c0,0,0,0,0.1-0.1c0.4-0.5,0.7-1.1,1.1-1.6
		c0.5-0.2,1.1-0.4,1.6-0.6c0,0,0,0,0,0c2.2-0.3,4-1.2,5.6-2.5c0.1,0.1,0.2,0.2,0.3,0.3c1.2,1,2.8,1.3,4.3,0.9
		c2.9-0.7,4.3-3.7,4.2-6.6c0.5-1.4,0.9-2.9,1.4-4.3c1,1.8,3.8,1.8,4.6-0.5c1.1-3.2,1.8-6.5,2.2-9.8C83.2,60.8,84.2,59.9,84.2,58.7z
		 M59.5,55c-0.1,0.1-0.2,0.2-0.2,0.3c0-0.2,0.1-0.3,0.1-0.5C59.4,54.9,59.4,55,59.5,55z M64.1,58.5c0.3,0,0.5,0,0.8-0.1
		c-0.3,0.5-0.6,1-0.9,1.4C64.1,59.4,64.1,59,64.1,58.5z M51.6,56.9c0,0.1,0.1,0.1,0.1,0.1c0,0.1-0.1,0.2-0.1,0.2
		C51.7,57.2,51.7,57.1,51.6,56.9z M76.4,52.8c0.1-0.2,0.2-0.4,0.3-0.6c0,0,0,0,0,0c0.1,0.2,0.1,0.4,0.2,0.6
		C76.7,52.7,76.6,52.7,76.4,52.8z M43.3,70.3c0,0.4,0,0.7,0,1.1c-0.1-0.2-0.2-0.4-0.3-0.6C43.1,70.6,43.2,70.5,43.3,70.3z
		 M34.1,44.4c-0.1,0.2-0.2,0.4-0.4,0.6C33.2,44.2,33.1,44.4,34.1,44.4z"/>
	<path class="st3" d="M80.2,18.2c-2.6-1.2-6.4-0.4-9.2-0.4c-4.6,0-9.3,0-13.9,0.1c-4.6,0-9.3,0-13.9,0.1c-3.2,0-7.2-0.6-10.4,0.1
		c-1.4-1-4-0.4-4.2,1.9c-0.2,3.3-0.4,6.6-0.6,9.9c-0.1,1.9-0.8,4.8,0.1,6.7c1.9,3.5,7.2,1.5,10,1.1c12.7-2,28.7-4.6,41.2-0.3
		c1.2,0.4,2.9-0.5,3.1-1.7C83,31.4,85.3,20.5,80.2,18.2z M78,27.4C78,27.4,78,27.4,78,27.4C78,27.4,78,27.3,78,27.4
		C78,27.3,78,27.4,78,27.4z M32.7,32.6c0,0,0-0.1,0-0.1c0.3,0.1,0.6,0.1,1,0.1c0,0,0,0,0.1,0c0.3,0.2,0.7,0.4,1.1,0.5
		C32.5,34,33.1,35.1,32.7,32.6z"/>
</g>
<g id="Layer_1">
	<g>
		<g>
			<path class="st5" d="M24.8,19.6c19.8,0.3,39.5,0.5,59.3-0.8c-0.8-0.8-1.7-1.7-2.5-2.5c1.3,14.1,0.7,28.2-2,42.1
				c-1.1,5.7-2.4,11.8-5.7,16.7c-3.9,5.8-10.4,8.1-17,9.3c-6.6,1.3-14.5-1.7-19.1-6.9c-4.2-4.7-5.2-12.9-5.9-18.9
				c-1.5-13.4,0-26.9-0.8-40.4c-0.2-3.2-5.2-3.2-5,0c0.9,16.6-1.5,33.6,2.4,49.9c1.4,5.8,3.3,11.5,8.2,15.2
				c5.3,3.9,11.7,7.2,18.4,6.4c6.4-0.8,13.3-2.7,18.4-6.9c4.8-4,7.5-9.8,9.2-15.8c4.7-16.3,5.4-34,3.9-50.8
				c-0.1-1.3-1.1-2.6-2.5-2.5c-19.7,1.3-39.5,1.1-59.3,0.8C21.5,14.6,21.5,19.6,24.8,19.6L24.8,19.6z"/>
		</g>
	</g>
	<g>
		<g>
			<path class="st5" d="M28.8,41.7c18,0.1,36,0.1,54,0.2c3.2,0,3.2-5,0-5c-18-0.1-36-0.1-54-0.2C25.5,36.7,25.5,41.7,28.8,41.7
				L28.8,41.7z"/>
		</g>
	</g>
	<g>
		<g>
			<path class="st5" d="M37.2,32c0.8-1.8,1.5-3,2.9-4.5c-1.3-0.2-2.6-0.3-3.9-0.5c1.9,3.1,3.9,8.7,8,9.5c4.6,0.9,5.4-4,8.4-6.1
				c-1-0.1-2-0.3-3-0.4c5.5,6.2,10.1,0.8,13.4-4.5c-1.5-0.2-3-0.4-4.6-0.6c1,2.9,2,7.8,5.4,8.9c4.1,1.3,8.6-5.7,11.8-2.5
				c2.3,2.3,5.8-1.3,3.5-3.5c-1.9-1.9-4-2.7-6.7-2.4c-1.6,0.2-2.6,1.1-4.1,1.5c-4.1,1.1-4.1,0-5.2-3.3c-0.7-2-3.4-2.5-4.6-0.6
				c-1.3,2.1-3.1,6.3-5.6,3.5c-0.7-0.8-2.2-1-3-0.4c-1.6,1.2-2.4,3.2-3.9,4.3c-1.5,1.1-1.4,0.5-2.7-1.2c-1.1-1.5-2-3.2-2.9-4.7
				c-0.8-1.3-2.8-1.7-3.9-0.5c-1.6,1.7-2.8,3.4-3.7,5.5C31.7,32.4,36,34.9,37.2,32L37.2,32z"/>
		</g>
	</g>
</g>
</svg>
