<?xml version="1.0" encoding="utf-8"?>
<!-- Generator: Adobe Illustrator 19.2.1, SVG Export Plug-In . SVG Version: 6.00 Build 0)  -->
<svg version="1.1" id="Layer_1" xmlns="http://www.w3.org/2000/svg" xmlns:xlink="http://www.w3.org/1999/xlink" x="0px" y="0px"
	 viewBox="0 0 100 100" style="enable-background:new 0 0 100 100;" xml:space="preserve">
<style type="text/css">
	.st0{fill:#333232;}
</style>
<g id="Layer_1_1_">
	<g>
		<g>
			<path class="st0" d="M44,16.5c-21.4,1.4-32.9,38.4-11.3,48.1c5.8,2.6,13.2,2.9,19.4,3.1c6.4,0.1,12.9-0.6,18.7-3.3
				c5.5-2.5,9-6.2,10.5-12.2c1.5-6.1,1.8-12.9,0-19S75.5,23,69.6,20.5c-6.5-2.7-14.8-6.1-21.8-3.7c-3,1-1.7,5.9,1.3,4.8
				c5.7-2,14.3,1.5,19.6,4c6,2.8,8.4,8.6,8.7,15c0.3,6.4-0.4,14.3-6.3,18c-5.1,3.2-11.5,4.1-17.4,4.1c-5.4,0-11.5-0.2-16.6-1.8
				c-6-1.8-9.5-6.7-10.6-12.7C24.6,37.6,32.1,22.3,44,21.5C47.2,21.3,47.2,16.3,44,16.5L44,16.5z"/>
		</g>
	</g>
	<g>
		<g>
			<path class="st0" d="M27,84.8c1.7-1.7,3.3-3.5,4.8-5.4c-1.4-0.4-2.8-0.7-4.2-1.1c1.1,3,2.1,6.8,6,6.8c4.2-0.1,7.8-6.1,10.1-8.9
				c-1.4-0.4-2.8-0.7-4.2-1.1c1.2,3,2.3,8.3,6,9.2c4.9,1.3,5.8-3.7,9.1-5.5c-0.8,0-1.7,0-2.5,0c0.8,0.5,1.4,2.5,2.1,3.3
				c1,1,2.2,2,3.6,2.4c2.9,0.8,5-0.9,7.1-2.7c-0.8,0.2-1.6,0.4-2.4,0.6c0,0,2,3.2,2.7,3.5c1.7,0.8,3.8,0.4,5.3-0.5
				c0.8-0.4,1.9-2.1,2.7-2.3c-1,0.2-0.3,0.6,0.5,1.4c1.8,1.7,4.5,1.7,6.7,1.6c3.2-0.2,3.2-5.2,0-5c-4.2,0.2-5.3-5.1-9.6-2.3
				c-0.6,0.4-2.5,2.8-3.4,2.6c0.5,0.1-1.3-2.6-1.2-2.5c-0.9-1-2-1.6-3.4-1.4c-2.6,0.5-3.4,3-5.8-0.1c-0.9-1.2-1.1-2.6-2.7-3.1
				c-1.3-0.4-2.5,0.1-3.6,1c-0.8,0.7-3,4.5-4,4c-0.9-0.5-2-4.7-2.4-5.6c-0.6-1.5-2.8-2.7-4.2-1.1c-1.3,1.6-2.7,3.2-4.1,4.7
				c-1.8,2-2.6,2.5-3.7-0.4c-0.6-1.6-2.9-2.7-4.2-1.1c-1.5,1.9-3.1,3.6-4.8,5.4C21.2,83.6,24.7,87.1,27,84.8L27,84.8z"/>
		</g>
	</g>
	<g>
		<g>
			<path class="st0" d="M32.5,60.7c5.1-5.7,15-7.3,19-14.1c1.7-2.8,0.8-7.4,0.8-10.6c0-4.9,0-9.8,0-14.7c0-3.2-5-3.2-5,0
				c0,4,0,8,0,11.9c0,3.1,1,8.7-0.7,11.4c-1.8,2.9-6.9,5-9.7,6.7c-3,1.7-5.7,3.3-8,5.9C26.8,59.6,30.4,63.1,32.5,60.7L32.5,60.7z"/>
		</g>
	</g>
	<g>
		<g>
			<path class="st0" d="M50.5,46.9C57.7,51.5,65,55.8,72.4,60c2.8,1.6,5.3-2.8,2.5-4.3c-7.4-4.1-14.7-8.5-21.9-13.1
				C50.4,40.8,47.8,45.1,50.5,46.9L50.5,46.9z"/>
		</g>
	</g>
</g>
</svg>
