<?xml version="1.0" encoding="utf-8"?>
<!-- Generator: Adobe Illustrator 19.2.1, SVG Export Plug-In . SVG Version: 6.00 Build 0)  -->
<svg version="1.1" xmlns="http://www.w3.org/2000/svg" xmlns:xlink="http://www.w3.org/1999/xlink" x="0px" y="0px"
	 viewBox="0 0 100 100" style="enable-background:new 0 0 100 100;" xml:space="preserve">
<style type="text/css">
	.st0{fill:#7DB942;}
	.st1{fill:#4293B7;}
	.st2{fill:#E8DC4E;}
	.st3{fill:#EFEFEF;}
	.st4{fill:#422B1D;}
	.st5{fill:#333232;}
	.st6{fill:#D1C3C3;}
	.st7{fill:#E33D3D;}
</style>
<g id="Layer_2">
	<path class="st0" d="M78.3,32c-0.1-1.2-0.3-2.3-0.6-3.5c1-1.7,1.4-3.6,0.2-5.5c-2.1-3.4-6.4-2.9-9.7-2.2c-0.1,0-0.2,0-0.2,0.1
		c-0.4-0.4-1-0.7-1.6-0.6c-5.2,0.7-10.4,1.3-15.6,1.6c-0.4-0.1-0.9-0.1-1.3,0.1c-1.8,0.1-3.5,0.2-5.3,0.3c-0.5-0.2-1-0.2-1.4,0
		c-3,0.1-5.9,0.1-8.9,0.1c-0.5-1.5-3-2-3.3-0.1c0,0,0,0,0,0c-0.5,0.1-0.9,0.4-1.2,0.9c-0.2,0.1-0.4,0.2-0.6,0.4
		c0-0.2-0.1-0.4-0.1-0.6c-0.3-2.1-3.3-1.4-3.4,0.5c-0.3,3.8-1.2,7.4-2.7,10.9c-0.9,2.1,2.5,3,3.4,0.9c0-0.1,0.1-0.2,0.1-0.3
		c0.3,0.3,0.7,0.5,1.2,0.5c2.2,0,4.4,0,6.6,0.1c0.3,0.1,0.5,0.1,0.8,0c1.4,0,2.8,0,4.2,0c0.7,0.8,2.1,1.1,2.7,0c1.6,0,3.2,0,4.7,0
		c0.6,0.4,1.3,0.4,1.9,0c1,0,2,0,3,0c0.7,1.3,2.6,1,3.2-0.4c0,0,0-0.1,0.1-0.2c6.3,0.9,12.6,1.1,18.9,0c0.6,0.9,1.3,1.9,2.1,2.7
		c1.2,1.1,2.8,0.2,3-1.2c0.1-1.2,0.2-2.3,0.1-3.4C78.5,32.8,78.5,32.4,78.3,32z M52.7,28.5c-0.1-0.3-0.1-0.6-0.2-0.9
		c0.2-0.1,0.5-0.1,0.7-0.2c-0.2,0.4-0.3,0.7-0.4,1.1C52.8,28.5,52.7,28.5,52.7,28.5z M72,26.4c-0.2,0.6-0.4,1.2-0.4,1.8
		c-0.2-0.1-0.3-0.1-0.5-0.2c-0.2-0.5-0.6-1-1.2-1.1c0,0-0.1,0-0.1,0C70.6,26.7,71.3,26.5,72,26.4z M31.6,30.8
		c0.1,0.4,0.2,0.8,0.3,1.2c-0.2,0-0.5,0-0.7,0C31.3,31.6,31.5,31.2,31.6,30.8z M37.2,31.1c0.1,0.3,0.2,0.7,0.2,1c-0.2,0-0.4,0-0.6,0
		C37,31.7,37.1,31.4,37.2,31.1z M56.7,31.8c0,0.1,0.1,0.1,0.1,0.2c-0.3,0-0.7-0.1-1-0.1C56.1,31.8,56.4,31.8,56.7,31.8z M67.2,23.7
		c0.1,0,0.1,0,0.2-0.1c0,0,0,0,0,0c-0.6,0.1-1.2,0.2-1.7,0.2C66.2,23.8,66.7,23.8,67.2,23.7z M64.6,32.4c0.1,0,0.2-0.1,0.3-0.1
		c0,0.1,0.1,0.1,0.1,0.1C64.9,32.4,64.8,32.4,64.6,32.4z"/>
	<path class="st3" d="M78.2,42.7c0.2-1.7-1.8-2.7-3.2-2.4c-0.6,0.1-1.1,0.2-1.7,0.3c-0.1-0.1-0.2-0.2-0.3-0.3
		c-0.8-0.7-2.1-0.9-3.1-0.4c-0.1-0.1-0.3-0.1-0.5-0.2c-0.6-0.2-1.1-0.5-1.7-0.7c-1-0.3-2.1-0.4-3.1-0.3c-2.4,0.2-4.3,1.2-6,2.8
		c-0.6,0.6-0.8,1.2-0.8,1.8c-0.3,0-0.6,0.1-0.8,0.3c0.2-0.6,0.3-1.2,0.5-1.7c0.8-2.8-3-4.2-4.6-1.9c-1.4,2-2.9,4-4.5,5.8
		c0-0.6-0.1-1.2-0.1-1.9c-0.2-1.7-2-3.3-3.8-2.2c-0.6,0.4-1.1,0.7-1.7,1.1c0,0,0-0.1,0-0.1c0.9-2.9-3-4.1-4.6-1.9
		c-0.1,0.1-0.1,0.1-0.2,0.2c-0.9-0.8-2.3-0.9-3.4,0.1c-0.7,0.6-1.4,1.2-2.1,1.7c-0.1-1.3-0.4-2.5-1.2-3.8c-0.9-1.5-2.7-1.6-3.9-0.5
		c-1,0.5-2,1.1-2.9,1.6c-3,1-1.7,5.8,1.3,4.8c0.6-0.2,1.1-0.4,1.6-0.6c-0.3,1.3-1,2.5-1.7,3.6c-1,1.7,0.4,3.7,2.1,3.8
		c-0.1,2.5,0.8,4.8,2.6,7c0.5,0.6,1.2,0.8,1.9,0.7c0.8,1.8,1.6,3.5,2.4,5.3c0.4,0.8,0.7,1.6,1.1,2.5c-0.3,0.7-0.6,1.4-0.8,2.1
		c-0.8,2,1.3,3.3,3,3c0.6,1.2,1.2,2.3,2,3.3c3.7,4.9,12.8,3.8,18.1,2.9C71,76.4,75,64.3,76.9,52.7c0.7-0.4,1.2-1.2,1.2-2.1
		c0-0.8-0.2-1.4-0.6-1.9C77.7,46.6,78,44.6,78.2,42.7z M60.7,45.8c0.6,0.1,1.2,0.1,1.8,0.2c-0.1,0.1-0.2,0.2-0.3,0.3
		c-0.2,0-0.4-0.1-0.7-0.1c-0.3,0-0.6,0-0.8,0C60.7,46.1,60.7,45.9,60.7,45.8z M72.7,46.7c-0.3-0.2-0.7-0.3-1-0.3
		c0.1-0.2,0.2-0.3,0.3-0.5c0.3,0,0.6-0.1,0.8-0.1C72.8,46,72.8,46.3,72.7,46.7z M33.1,49c0,0,0-0.1,0-0.1c0.1,0,0.1-0.1,0.2-0.1
		C33.2,48.8,33.1,48.9,33.1,49z M66.9,67c0.1,0,0.1,0,0.2,0c-0.3,0.4-0.6,0.8-0.9,1.2C66.5,67.8,66.7,67.4,66.9,67z M56.5,73.7
		C54,74,51,74.3,48.4,73.8c-1.5-0.2-2.5-0.7-3.4-1.3c0.4-0.7,0.9-1.4,1.3-2.1c-0.5,2.6,3.2,4.5,4.5,1.9c0.4-0.7,0.8-1.5,1.2-2.2
		c0.2,1.8,2.9,3,4.3,1.5c1.4-1.6,2.8-3.3,4.2-5c0.3-0.1,0.7-0.2,1-0.3c-0.1,0.2-0.1,0.4-0.2,0.6c-0.6,2.2,1.8,3.7,3.5,2.9
		C62.7,71.8,60,73.2,56.5,73.7z"/>
</g>
<g id="Layer_1">
	<g>
		<g>
			<path class="st5" d="M26.5,22.9c8.7-0.2,17.3-0.3,26-0.5c4.3-0.1,8.7-0.2,13-0.2c2.3,0,4.7-0.1,7-0.1c0.7,0,5.7-0.5,5.1-1
				c0.4,0.3,0.2,5.1,0.2,5.6c0.1,1.8,0.1,3.7,0.2,5.5c0.1,4.2,0.2,8.5-0.1,12.7c-0.5,7.5-2.1,14.9-6.1,21.3
				C67.8,72.8,61.5,76.9,54,78.5c-9.8,2-15.2-4-19.3-12c-7.1-13.8-8.6-29.7-9.9-45c-0.3-3.2-5.3-3.2-5,0c1.3,14.4,2.7,29.1,8.3,42.6
				c5.1,12.1,12.8,22.2,27.2,19.2C68.2,80.6,77,70.9,80.7,58.5c2.1-7,2.5-14.4,2.4-21.7c0-4-0.2-7.9-0.3-11.9
				c-0.1-2,0.4-5.3-1.3-6.9c-2.2-2-7.4-0.9-10-0.9c-4.7,0.1-9.3,0.2-14,0.3c-10.3,0.2-20.7,0.4-31,0.6C23.3,18,23.3,23,26.5,22.9
				L26.5,22.9z"/>
		</g>
	</g>
	<g>
		<g>
			<path class="st5" d="M25,40.3c18.1-0.4,36.2-0.4,54.3,0.1c3.2,0.1,3.2-4.9,0-5c-18.1-0.5-36.2-0.5-54.3-0.1
				C21.8,35.4,21.8,40.4,25,40.3L25,40.3z"/>
		</g>
	</g>
	<g>
		<g>
			<path class="st5" d="M40.8,59.2c1.3-2.9,2.5-5.7,3.8-8.6c-1.5-0.2-3-0.4-4.6-0.6c0.7,4.4,2.3,13.6,8.4,13.7
				c5.8,0.2,8.4-6.4,9.8-10.9c-1.6-0.2-3.3-0.4-4.9-0.7c0.1,2.1-0.1,4.4,0.4,6.4c0.3,1.1,1.3,1.8,2.4,1.8c4.4,0.2,6.4-7.6,8-10.6
				c-1.5-0.2-3-0.4-4.6-0.6c1.8,4.4,7.2,10.3,11.6,4.8c2-2.5-1.5-6-3.5-3.5c-1.9,0.1-3-0.8-3.3-2.6c-0.7-1.8-3.5-2.7-4.6-0.6
				c-0.2,0.4-4.1,8.1-3.6,8.1c0.8,0.6,1.6,1.2,2.4,1.8c-0.4-1.4-0.2-3.6-0.2-5.1c-0.1-2.8-4.1-3.4-4.9-0.7c-0.7,2.2-3.4,9.8-6.4,5.2
				c-1.4-2.1-1.8-5.5-2.2-8c-0.3-2-3.7-2.5-4.6-0.6c-1.3,2.9-2.5,5.7-3.8,8.6C35.2,59.6,39.6,62.2,40.8,59.2L40.8,59.2z"/>
		</g>
	</g>
</g>
</svg>
