<?xml version="1.0" encoding="utf-8"?>
<!-- Generator: Adobe Illustrator 19.2.1, SVG Export Plug-In . SVG Version: 6.00 Build 0)  -->
<svg version="1.1" xmlns="http://www.w3.org/2000/svg" xmlns:xlink="http://www.w3.org/1999/xlink" x="0px" y="0px"
	 viewBox="0 0 100 100" style="enable-background:new 0 0 100 100;" xml:space="preserve">
<style type="text/css">
	.st0{fill:#7DB942;}
	.st1{fill:#4293B7;}
	.st2{fill:#E8DC4E;}
	.st3{fill:#EFEFEF;}
	.st4{fill:#422B1D;}
	.st5{fill:#333232;}
	.st6{fill:#D1C3C3;}
	.st7{fill:#E33D3D;}
</style>
<g id="Layer_2">
	<path class="st0" d="M48.9,23.6c-0.4-1.7-2.4-1.5-3.2-0.3C45.1,23,44.5,23,44,23.5c-0.3-0.5-0.7-0.8-1.2-1
		c-0.2-0.4-0.5-0.8-0.9-1.1c-2-1.5-5.4-0.2-7.5,1c-0.6-0.7-1.1-1.2-2-1.3c-1.5-0.2-2.6,0.6-3.3,1.9c-1.9-0.9-4.1,0-6-1.3
		c-1.6-1.1-3.7,1.5-2.1,2.7c2.2,1.7,4,3.6,5.6,5.7c-0.6,2.5-1,5,0.4,7.3c1.1,1.8,2.5,2.3,4.1,2.5c-0.3,0.6-0.6,1.1-0.9,1.7
		c-0.9,1.8,1.3,3.5,2.7,2.1c0.2-0.2,0.4-0.4,0.6-0.5c0.1,0.3,0.3,0.7,0.4,1c-1.2,1.7,1.2,4.1,2.6,2.4c0-0.1,0.1-0.1,0.1-0.2
		c0.6,0.3,1.4,0.2,2-0.3c1.6-1.4,3-3,4.1-4.7c0.2,0.4,0.6,0.6,1,0.8C51.9,44.5,49.8,27.4,48.9,23.6z M35.6,37.5c0,0-0.2-1.4-0.4-2.4
		c0.2-0.1,0.4-0.3,0.6-0.4c0,0.9,0.2,1.9,0.3,2.8c-0.1,0-0.2,0.1-0.3,0.1C35.7,37.6,35.7,37.6,35.6,37.5z M33.8,27.8
		C33.8,27.8,33.8,27.9,33.8,27.8c0,0,0-0.1,0-0.2c0,0,0.1,0.1,0.1,0.1C33.9,27.7,33.9,27.8,33.8,27.8z"/>
	<path class="st2" d="M82.7,19.6c-0.7,0.6-1.5,1.1-2.3,1.6c-1.3-1.7-2.6-1.6-4.7-1.3c-3,0.6-6.1,1.4-9.1,2.2
		c-0.4-0.9-1.2-1.7-2.3-1.5c-1.1,0.1-2.1,0.4-3,0.7c-0.9-0.3-2-0.2-2.8,0.4c-0.3,0.2-0.5,0.4-0.8,0.7c0,0,0,0,0,0
		c-1.3-1.8-3.2-1.9-5.1-1c-2,1-1.4,3.4,0.2,4.3c-0.2,0.2-0.3,0.5-0.4,0.8c-0.3,0.6-0.5,1.2-0.7,1.8c-0.8,2,1.3,3.4,3.1,3
		c-0.4,0.8-0.8,1.6-1.2,2.4c-0.4,0.7-0.4,1.3-0.2,1.9c-0.9,0.8-1.7,1.7-2.6,2.5c-2.2,2.1,0.6,5,3,3.9c1.4-0.6,2.9-1.1,4.3-1.5
		c0.1,0.7,0.5,1.4,1.5,1.9c1.5,0.8,3.8-0.4,5.5-1c-0.4,0.9-0.9,1.7-1.3,2.5c-1.1,2.2,1.2,4.7,3.4,3.4c4.5-2.5,8.1-5.1,9.9-10.1
		c2.1-5.8,6.5-9.3,9.5-14.6C88.2,20.1,84.8,18,82.7,19.6z M63.1,37.6c-0.1-1.4-1-2.2-2.1-2.4c0.5-0.5,1-0.9,1.4-1.4
		c1.5-1.5,0.3-4-1.4-4.3c0.1-0.2,0.1-0.3,0.2-0.5c1.5,0.1,2.9,0.2,4.3,0.2c-0.7,1-1.4,1.9-2.1,2.9c-0.9,1.2-0.6,3.3,0.5,4
		c-0.4,0.5-0.6,1.1-0.6,1.7c-0.1,0-0.2,0.1-0.2,0.1C63.1,37.7,63.1,37.6,63.1,37.6z M75.5,28.2c0.1,0,0.3,0.1,0.4,0.1
		c-0.2,0.3-0.5,0.7-0.7,1C75.3,29,75.4,28.6,75.5,28.2z M70.7,38.7c0-0.1,0-0.2,0-0.2c0.1-0.1,0.1-0.1,0.2-0.2
		c0.5-0.6,0.9-1.2,1.3-1.9c-0.1,0.3-0.2,0.5-0.4,0.8C71.5,37.8,71.1,38.3,70.7,38.7z"/>
	<path class="st3" d="M64,50.8c-0.7-3-3.9-3.5-6.5-3.9c-3-0.4-4.1-1.7-6.4-3.2c-1-0.6-1.9-1.1-3.1-1.1c-3.6,0.1-7.9,4.9-10.3,7.1
		c-1.7,1.5-0.5,3.7,1.2,4.1c0.7,3,2,5.6,3.6,8.2c0.1,0.5,0.4,1,0.8,1.4c0.1,0.1,0.2,0.3,0.3,0.4c1.2,1.9,2.5,3.7,3.5,5.7
		c0.8,1.5,1.2,3.5,2.4,4.8c1.3,1.5,3.9,2.2,5.4,0.4c1.2-1.3,0.7-3.6,1.2-5.2c0.8-2.7,2.7-5.3,3.9-7.7C61.5,58.9,64.7,54.2,64,50.8z
		 M44.4,54.5c0.3,0,0.6-0.1,0.9-0.1c-0.2,0.4-0.3,0.8-0.5,1.2C44.7,55.2,44.5,54.9,44.4,54.5z M53.8,51.3c-0.1,0-0.1-0.1-0.2-0.1
		c0.1,0,0.1,0,0.2,0C53.9,51.2,53.9,51.2,53.8,51.3z M48,47.9c0,0,0.1,0,0.1,0.1c-0.8,0.5-1.6,0.9-2.5,1.2
		C46.6,48.3,47.5,47.8,48,47.9z M53.7,63.3c-0.8,1.5-1.4,2.9-1.8,4.3c-0.3-0.7-0.7-1.3-1.1-2c0.1,0,0.1-0.1,0.2-0.1
		c0.3-0.4,0.6-0.7,0.9-1.1c0.7-0.1,1.4-0.4,1.8-1.2c1.2-2,2.2-4.1,3-6.3c0.1-0.2,0.2-0.4,0.3-0.6c0.1,0.1,0.2,0.2,0.4,0.3
		C55.9,59.3,54.1,62.5,53.7,63.3z"/>
</g>
<g id="Layer_1">
	<g>
		<g>
			<path class="st5" d="M20.2,22.5c23.6,0,47.2,0.1,70.8,0.1c-0.4-1.6-0.8-3.1-1.3-4.7c-4.7,3.3-9.5,6.7-13,11.3
				C73.2,34,70.7,39.7,68,44.9C61.8,56.6,56,68.3,51,80.5c1.5-0.2,3-0.4,4.6-0.6c-6.8-10.1-14.3-20-20.1-30.7
				c-5.3-9.7-8.6-20.4-15.2-29.3c-1.9-2.6-6.2-0.1-4.3,2.5c6.6,9,10,19.6,15.2,29.3C37,62.4,44.5,72.3,51.3,82.4
				c1.3,1.9,3.8,1.4,4.6-0.6c4.6-11.2,9.9-22,15.5-32.7c2.6-4.9,5-10,7.9-14.7c3.3-5.2,8.1-8.7,13.1-12.2c2-1.4,1.4-4.7-1.3-4.7
				c-23.6,0-47.2-0.1-70.8-0.1C17,17.5,17,22.5,20.2,22.5L20.2,22.5z"/>
		</g>
	</g>
	<g>
		<g>
			<path class="st5" d="M50.4,43.1c5.4,2,10.4,4.7,15.1,8.1c2.6,1.9,5.1-2.5,2.5-4.3c-5.1-3.6-10.5-6.4-16.3-8.6
				C48.7,37.2,47.4,42,50.4,43.1L50.4,43.1z"/>
		</g>
	</g>
	<g>
		<g>
			<path class="st5" d="M52.8,40.3c-0.2-5.8-0.1-11.7,0.5-17.5c0.3-3.2-4.7-3.2-5,0c-0.6,5.8-0.8,11.6-0.5,17.5
				C48,43.5,53,43.5,52.8,40.3L52.8,40.3z"/>
		</g>
	</g>
	<g>
		<g>
			<path class="st5" d="M49,38.6c-5.4,3-10.5,6.4-15.4,10.2c-2.5,2,1,5.5,3.5,3.5c4.5-3.5,9.3-6.7,14.4-9.5
				C54.4,41.4,51.8,37.1,49,38.6L49,38.6z"/>
		</g>
	</g>
	<g>
		<g>
			<path class="st5" d="M50.4,59.2c0.1-0.5,0.2-0.9,0.2-1.4c0-0.3,0.1-1.1-0.2-0.5c-0.3,0.3-0.6,0.6-0.9,0.9
				c0.1-0.1,0.2-0.1,0.3-0.2c-0.4,0.1-0.8,0.2-1.3,0.3c-0.4,0,0.5,0.5,0.8,0.6c0.4,0.2,1,0.5,1.5,0.6c1,0.2,2.2,0.2,3.2-0.1
				c1.9-0.6,3.3-2.3,3.7-4.2c-1.6,0-3.2,0-4.8,0c0.2,0.6,0.4,1.3,0.5,1.9c0.9,3.1,5.7,1.8,4.8-1.3c-0.2-0.6-0.4-1.3-0.5-1.9
				c-0.7-2.3-4.2-2.5-4.8,0c-0.1,0.6-0.4,1-1,0.8c-0.4-0.1-0.8-0.6-1.2-0.8c-0.6-0.3-1.2-0.5-1.9-0.5c-1.2,0-2.2,0.7-2.8,1.7
				c-0.5,1-0.1,1.8-0.3,2.8C45,61,49.8,62.3,50.4,59.2L50.4,59.2z"/>
		</g>
	</g>
</g>
</svg>
