<?xml version="1.0" encoding="utf-8"?>
<!-- Generator: Adobe Illustrator 19.2.1, SVG Export Plug-In . SVG Version: 6.00 Build 0)  -->
<svg version="1.1" xmlns="http://www.w3.org/2000/svg" xmlns:xlink="http://www.w3.org/1999/xlink" x="0px" y="0px"
	 viewBox="0 0 100 100" style="enable-background:new 0 0 100 100;" xml:space="preserve">
<style type="text/css">
	.st0{fill:#7DB942;}
	.st1{fill:#4293B7;}
	.st2{fill:#E8DC4E;}
	.st3{fill:#EFEFEF;}
	.st4{fill:#422B1D;}
	.st5{fill:#333232;}
	.st6{fill:#D1C3C3;}
	.st7{fill:#E33D3D;}
</style>
<g id="Layer_2">
	<g>
		<g>
			<path class="st6" d="M41.9,74c-2.6-4.1-7-5.9-11.5-7.3c-4-1.3-5.7,5-1.7,6.2c2.7,0.9,6,1.8,7.6,4.4C38.5,80.8,44.1,77.5,41.9,74
				L41.9,74z"/>
		</g>
	</g>
	<g>
		<g>
			<path class="st1" d="M56.8,49.2c-0.1-0.1-0.2-0.2-0.3-0.3c-0.9-0.9-2.6-1-3.5,0c-0.9,1-1,2.5,0,3.5c0.1,0.1,0.2,0.2,0.3,0.3
				c0.9,0.9,2.6,1,3.5,0C57.7,51.8,57.8,50.2,56.8,49.2L56.8,49.2z"/>
		</g>
	</g>
	<g>
		<g>
			<path class="st7" d="M41.9,74.6c-1.5-3.3-5.3-10-9.9-8c-2.2,1-3.2,3.7-1.6,5.7c1.5,1.9,4.4,2.5,6.6,2.6c3.2,0.1,3.2-4.9,0-5
				c-0.6,0-1.1-0.1-1.6-0.3c-0.2-0.1-0.4-0.1-0.6-0.2c-0.5-0.3-0.6-0.3-0.3-0.1c0,0.4,0,0.9,0,1.3c-1,0.2-1.3,0.4-0.8,0.6
				c0.2,0.2,0.4,0.4,0.5,0.5c0.5,0.5,0.9,1,1.3,1.5c0.8,1.1,1.5,2.4,2.1,3.7c0.5,1.2,2.3,1.5,3.4,0.9C42.3,77.2,42.4,75.8,41.9,74.6
				L41.9,74.6z"/>
		</g>
	</g>
	<g>
		<g>
			<path class="st3" d="M49,66c-0.6-2.8-1.5-5.4-2.7-8c-0.9-1.8-3.4-1.4-4.3,0c-1.3,1.8-2.5,3.7-3.8,5.5c1.5,0.6,3,1.3,4.6,1.9
				c0.9-3.1,2.4-5.6,4.6-7.9c-1.4-0.6-2.8-1.2-4.3-1.8c0.2,2.3-0.1,5.5,1.9,7.1c0.9,0.7,1.9,0.9,3,0.4c2.5-1.3,4.3-4,5.9-6.2
				c-1.5-0.6-3-1.3-4.6-1.9c-0.4,2.4-1.5,5,1.3,6.3c2.8,1.3,7-0.9,9.5-2.2c8.3-4.5,7-14,7.1-22.2c0-1.3-1.2-2.5-2.5-2.5
				c-3.2,0-4.4,2.4-7.3,3.1c-2.7,0.7-5.4,0.1-7.9,1.6c-2.1,1.2-3.4,3.2-4.4,5.3c-1.1,2.5-1.1,6.9-3.2,8.6c1.3,1,2.6,2,3.9,3
				c4.8-6.7,10.7-12.2,17.7-16.5c-1.2-0.5-2.4-1-3.7-1.5c0.6,3.1,0.6,5.9-0.2,9c-0.7,3.1,4.1,4.5,4.8,1.3c0.9-4,1-7.7,0.2-11.7
				c-0.3-1.6-2.4-2.3-3.7-1.5C53.5,40.3,47,46.4,41.7,53.8c-1.8,2.5,1.9,4.7,3.9,3c3.8-3.2,2-9.2,5.6-12.5c2-1.9,5.2-1.2,7.7-1.8
				c2-0.5,4.1-2.9,6-2.9c-0.8-0.8-1.7-1.7-2.5-2.5c-0.1,4.2,0.7,9.8-0.9,13.8c-1,2.5-6.3,7-9.4,5.8c0.6,0.6,1.2,1.2,1.7,1.7
				c0.2-0.6,0.4-1.3,0.4-1.9c0.4-2.8-2.8-4.3-4.6-1.9c-1,1.3-2.6,3.6-4.1,4.4c1,0.1,2,0.3,3,0.4c-0.4-0.3-0.4-3.2-0.4-3.6
				c-0.2-2-2.6-3.4-4.3-1.8c-2.8,2.9-4.7,6.2-5.9,10.1c-0.8,2.8,3,4.2,4.6,1.9c1.3-1.8,2.5-3.7,3.8-5.5c-1.4,0-2.9,0-4.3,0
				c1,2.2,1.7,4.4,2.2,6.8C44.8,70.5,49.7,69.2,49,66L49,66z"/>
		</g>
	</g>
</g>
<g id="Layer_1">
	<g>
		<g>
			<path class="st5" d="M52.8,43.3c-3.1,1.5-6.2,4.2-5.6,8c0.6,3.6,3.8,5.8,7.1,6.3c1.9,0.3,4,0.2,5.5-1.2c1.3-1.2,1.8-3,2.1-4.6
				c0.6-3.6,0-8.4-4.7-8.4c-4.2,0-4.2,6.4,0,6.5c0,0,0,0,0,0.1c-0.5-0.3-1-0.6-1.4-0.8c-0.1-0.4-0.1-0.5,0-0.3c0,0.3,0,0.7,0,1
				c0,0.5-0.1,1-0.3,1.5c-0.5,2,0.1-0.6,0.3,0.1c0-0.1-1.2-0.3-1.3-0.4c-0.1-0.1-0.9-0.3-0.9-0.6c0,0.5,0.4-0.2,0.6-0.4
				c0.6-0.5,1.3-0.8,1.9-1.1c1.6-0.8,2-3,1.2-4.4C56.2,42.9,54.3,42.6,52.8,43.3L52.8,43.3z"/>
		</g>
	</g>
	<g>
		<g>
			<path class="st5" d="M39,63c2.1-4.6,4.4-9.1,6.9-13.6c2.3-4.2,4.7-9.1,9.1-11.4c4.8-2.6,13.5-3.3,13.9,4.2
				c0.2,4.9-2.5,9.4-5.8,12.8c-3.3,3.4-7.5,5.8-11.6,8.1c-1.2,0.7-4.7,3.5-6.1,3.4c-1.1-0.1-2.2-1.4-3.3-1.9
				c-6.1-3.3-13.2-3.1-19.3,0.1c-3,1.6-1.3,5.8,1.6,6c3.8,0.3,7.3-1.9,11-1.2c2.2,0.5,4.2,1.7,5.4,3.8c0.9,1.5,2,5.5,0.5,7
				c1-0.3,2.1-0.6,3.1-0.8c-0.1,0-2.1-3-2.2-3c-0.7-0.7-1.5-1.2-2.4-1.6c-2-0.8-3.9-0.6-5.6,0.6c1.5,0.4,2.9,0.8,4.4,1.2
				c-1-1.6,0.1-3.9-2.3-5.2c-2.5-1.4-3.6,0.8-5.5,0.8c1,0.8,2.1,1.6,3.1,2.4c-0.4-2.3-1.6-4.2-3.9-5.2c-0.4-0.2-2.8-0.8-2.3-0.3
				c0.8,0.7-0.7-2.1-0.9-2.4c-2.4-3.3-8-0.1-5.6,3.3c1,1.4,0.7,3.1,2.1,4.3c0.8,0.7,4.1,0.9,4.3,1.9c0.2,1.3,1.8,2.4,3.1,2.4
				c0.5,0,4-0.4,4-1.4c-0.9-0.2-1.8-0.4-2.7-0.6c0,0.3,0.1,0.6,0.1,0.9c-0.2,0.8,0.5,1.7,0.9,2.3c0.9,1.4,2.9,2.2,4.4,1.2
				c-0.5,0.4,4.5,4.4,5.2,4.6c1,0.4,2.4,0,3.1-0.8C50.2,80,48.3,71.3,44,67c-2.2-2.2-5.2-3.6-8.3-4c-4-0.6-7.5,1.5-11.4,1.2
				c0.5,2,1.1,4,1.6,6c3-1.6,6.3-2.1,9.6-1.3c2.9,0.7,4.4,2.7,6.9,3.9c4.2,2.1,9.3-2.6,12.8-4.7c9.3-5.3,19.3-12.8,19.9-24.5
				c0.6-11.9-9.8-16.2-20.1-12.8C43.4,34.7,38,49.6,33.4,59.7C31.6,63.5,37.2,66.8,39,63L39,63z"/>
		</g>
	</g>
	<g>
		<g>
			<path class="st5" d="M41.5,49.8c-0.5-2.6-0.9-5.2-1.4-7.8c-1.3,1.3-2.7,2.7-4,4c1.3,0.3,2.6,0.7,3.8,1c4,1,5.7-5.2,1.7-6.2
				c-1.3-0.3-2.6-0.7-3.8-1c-2.6-0.7-4.4,1.6-4,4c0.5,2.6,0.9,5.2,1.4,7.8c0.3,1.7,2.4,2.7,4,2.3C41,53.3,41.8,51.5,41.5,49.8
				L41.5,49.8z"/>
		</g>
	</g>
	<g>
		<g>
			<path class="st5" d="M58.8,65.1c2,1,3.3,2.4,4.2,4.4c0.6,1.3,2.4,1.8,3.6,1.5c1.5-0.4,2.2-1.7,2.4-3.1c0.4-3.4,0.4-6.9,0.4-10.3
				c0-4.2-6.5-4.2-6.5,0c0,3.4,0,6.9-0.4,10.3c2-0.5,4-1.1,6-1.6c-1.4-2.9-3.7-5.3-6.6-6.7C58.4,57.6,55.1,63.2,58.8,65.1L58.8,65.1
				z"/>
		</g>
	</g>
</g>
</svg>
