<?xml version="1.0" encoding="utf-8"?>
<!-- Generator: Adobe Illustrator 19.2.1, SVG Export Plug-In . SVG Version: 6.00 Build 0)  -->
<svg version="1.1" xmlns="http://www.w3.org/2000/svg" xmlns:xlink="http://www.w3.org/1999/xlink" x="0px" y="0px"
	 viewBox="0 0 100 100" style="enable-background:new 0 0 100 100;" xml:space="preserve">
<style type="text/css">
	.st0{fill:#7DB942;}
	.st1{fill:#4293B7;}
	.st2{fill:#E8DC4E;}
	.st3{fill:#EFEFEF;}
	.st4{fill:#422B1D;}
	.st5{fill:#333232;}
	.st6{fill:#D1C3C3;}
	.st7{fill:#E33D3D;}
</style>
<g id="Layer_2">
	<path class="st1" d="M48.7,34.6c0.6-1.3,0.9-2.7,1.1-4.3c0.2-1.7-1.6-2.7-3.1-2.4c0.8-1.7,1.8-3.3,2.1-4.2c0.4-1.3-0.5-2.7-1.7-3.1
		c-3.7-1.1-6.1,3.4-7.6,6.4c-0.3,0.3-0.6,0.6-0.9,0.8c0.9-2.3-2.2-5.1-4-2.8c-1.7,2.1-3.3,4.3-4.7,6.6c-0.8-0.3-1.8-0.2-2.5,0.6
		c-3.4,3.2-10,11.1-8.2,16.1c0.1,0.3,0.2,0.5,0.4,0.7c-0.5,1.4,0.2,3.4,2.3,3.5c5.6,0.2,11.1,0.2,16.7,0c2.6-0.1,7.8,0.6,9.8-1.6
		c1.8-2.1,0-4.7-0.5-6.9c-0.3-1.4-0.4-2.8-0.5-4.2c0.4-0.5,0.9-1.1,1.4-1.6C49.4,37.1,49.4,35.6,48.7,34.6z M39.3,34.3
		c-0.7,2.3-1.2,4.7-1.5,7.2c-0.7,0.5-1.5,1.1-2.2,1.6c0.8-2,1.9-4.1,2.6-5.9c0.3-0.7,0.2-1.4-0.2-1.9c0.4-0.4,0.8-0.8,1.2-1.1
		C39.2,34.2,39.3,34.3,39.3,34.3z M27.1,47.6c0.2-0.1,0.3-0.2,0.5-0.3c1-0.8,1.7-1.6,2.4-2.5c-0.1,0.4-0.2,0.9-0.2,1.3
		c-0.1,0.5,0.2,1,0.5,1.5C29.2,47.6,28.2,47.6,27.1,47.6z M43.5,47.6c0.2-0.1-0.3-0.1-1-0.2c0.2-0.4,0.4-0.9,0.5-1.3
		c0.1,0.2,0.1,0.4,0.2,0.6C43.9,48.3,44,48.6,43.5,47.6z"/>
	<path class="st7" d="M77.2,36.8c-3.7-4.4-9.8-7.8-14.6-10.9c-1.6-1-3.2-2-5.1-2.2c-1.2-0.1-2.1,0.3-3,0.7c-1-0.7-2.5-0.7-3.5,0.7
		c-0.4,0.6-0.9,1.3-1.3,1.9c-0.8,1.2-0.3,2.4,0.7,3.2c0,1.1,0,2.2,0.1,3.3c0,0.6,0.3,1.2,0.8,1.6c-0.9,3-1.5,6-1.5,9.2
		c0,1.2,0.7,2,1.7,2.3c-1.3,1.4-1.7,3-1,5c0.7,2.1,3.3,2.1,4.4,0.9c4.8,0.5,9.5,1.3,13.9-0.4c0.5,0.7,1.3,1.2,2.1,1.2
		c3.6,0,8.4-0.4,9.6-4.4C81.4,44.8,79.8,39.9,77.2,36.8z M72.7,40.9c0.1-0.4,0.2-0.9,0.1-1.4c0.3,0.3,0.5,0.6,0.7,0.9
		C73.3,40.5,73,40.7,72.7,40.9z"/>
	<path class="st3" d="M82.8,56.8c-0.8-1.3-2.1-1.6-3.5-1.8c-3.8-0.8-7.8-0.9-11.6-1.1c-16-0.8-32.1,0.5-48.1,1.1
		c-2.7,0.1-3.1,3.6-1.3,4.7c0,0.1-0.1,0.2-0.1,0.3c-1.2,7.4,6.5,10.9,11.4,14.8c5.4,4.3,11.2,5.6,17.5,6c0.2,0.1,0.3,0.2,0.5,0.3
		c2,0.9,3.8,0.8,5.4,0c7.1,0.3,15.9,2.1,21-3.9c1.5-1.8,2.6-3.7,3.5-5.7c0.5-0.6,0.9-1.2,1.3-1.9C80.4,66.8,84.8,60.1,82.8,56.8z
		 M74.3,62.5c-0.3,0-0.6,0-0.8,0c0.3-0.4,0.5-0.7,0.8-1C74.3,61.8,74.3,62.2,74.3,62.5z M63.3,74.6c-0.4,0.1-0.8,0.2-1.3,0.3
		c0.4-0.9,0.8-1.8,1.2-2.8C63.3,72.9,63.3,73.7,63.3,74.6z M33,68.2c0.2,0,0.3-0.1,0.5-0.1c-0.1,0.1-0.2,0.2-0.3,0.3
		C33.1,68.3,33.1,68.3,33,68.2z M42.4,72.4c0,0.1-0.1,0.3-0.1,0.4c-0.3-0.1-0.7-0.2-1-0.4C41.7,72.4,42.1,72.4,42.4,72.4z
		 M60.9,65.2c0-0.6,0-1.2,0.1-1.8c0.1-1.1-0.5-1.8-1.2-2.2c0.1-0.4,0.2-0.7,0.2-1.1c0.1-0.5,0.1-1-0.1-1.4c1.3,0,2.7,0,4,0
		c-0.2,0.2-0.3,0.4-0.4,0.7C62.6,61.4,61.7,63.3,60.9,65.2z M38,61c-0.2-0.6-0.5-1.2-0.9-1.7c0.7,0,1.4,0,2.2-0.1
		C38.8,59.7,38.3,60.3,38,61z M24.2,60c-0.1,0.2-0.1,0.5-0.1,0.7c-0.3-0.3-0.5-0.6-0.7-0.8c0.3,0,0.6,0,0.9,0
		C24.2,59.9,24.2,60,24.2,60z M68.2,59c-0.2,0.1-0.4,0.3-0.5,0.5c-0.1-0.2-0.3-0.4-0.5-0.6C67.5,58.9,67.9,59,68.2,59z"/>
</g>
<g id="Layer_1">
	<g>
		<g>
			<path class="st5" d="M50.3,18.3c-7.4-0.6-14.7,3.3-20.9,7.2c-5.7,3.6-9.3,8.9-11.6,15.2c-2.3,6.4-4.4,14.3-3.4,21.1
				c0.9,6.6,5.2,11,10.8,14.1c12.5,7,28.4,13.8,42.7,8.7c5.5-2,10.6-5.5,13.6-10.6c3.9-6.6,3.9-15.4,3.5-22.8
				C84.3,32.4,69.5,24.6,53.4,19c-3-1.1-4.4,3.8-1.3,4.8c7.4,2.6,15,5.2,20.8,10.6c6.4,6,7.4,13.8,7.1,22.2
				c-0.2,8.1-1.2,15.9-8.5,20.7c-6.2,4.1-13.9,4.8-21,3.4c-7.8-1.5-15.3-5-22.2-8.8c-2.9-1.6-5.9-3.4-7.6-6.4
				c-2.3-3.9-1.7-8.8-0.9-13.1c1.3-6.9,3.2-14.8,8.4-19.9c5.1-5.1,14.8-9.9,22-9.4C53.5,23.5,53.5,18.5,50.3,18.3L50.3,18.3z"/>
		</g>
	</g>
	<g>
		<g>
			<path class="st5" d="M52.8,54.2c-0.2-10.3,0-20.5,0.6-30.7c0.2-3.2-4.8-3.2-5,0c-0.6,10.2-0.8,20.5-0.6,30.7
				C47.8,57.5,52.8,57.5,52.8,54.2L52.8,54.2z"/>
		</g>
	</g>
	<g>
		<g>
			<path class="st5" d="M18,56.7c20.7-0.7,41.3-1,62-0.8c3.2,0,3.2-5,0-5c-20.7-0.2-41.3,0-62,0.8C14.8,51.8,14.8,56.8,18,56.7
				L18,56.7z"/>
		</g>
	</g>
	<g>
		<g>
			<path class="st5" d="M31,66.5c0,0.4,0,0.8,0,1.3c0,1.3,1.1,2.6,2.5,2.5c1.4-0.1,2.5-1.1,2.5-2.5c0-0.4,0-0.8,0-1.3
				c0-1.3-1.1-2.6-2.5-2.5C32.1,64.1,31,65.1,31,66.5L31,66.5z"/>
		</g>
	</g>
	<g>
		<g>
			<path class="st5" d="M33.5,71c2.1-0.2,2.5-1,3.9-2.3c1.6-1.5-0.5-1.4,1.7-0.5c1.4,0.6,2.5,2.1,3.8,3c4.8,3.3,8.9,1.2,12.2-3
				c-1.3-0.2-2.6-0.3-3.9-0.5c1.6,3.3,3.1,8.7,7.8,7.6c2-0.5,4-2.2,5.6-3.4c2.5-2,2.7-2.1,5.5-1.2c3.1,1,4.4-3.9,1.3-4.8
				c-2.9-0.9-3.8-2.7-7-0.5c-1.8,1.2-3.2,3.6-5.3,4.3c-1.3,0.5-0.6,0.6-1.5,0.1c-0.6-0.4-1.9-3.9-2.2-4.6c-0.6-1.3-3-1.7-3.9-0.5
				c-5.5,7-8-2.1-13.3-2.5C37,62,36,62.4,35.1,63.2c-0.6,0.5-2.3,2.9-1.6,2.8C30.3,66.3,30.3,71.3,33.5,71L33.5,71z"/>
		</g>
	</g>
</g>
</svg>
