<?xml version="1.0" encoding="utf-8"?>
<!-- Generator: Adobe Illustrator 19.2.1, SVG Export Plug-In . SVG Version: 6.00 Build 0)  -->
<svg version="1.1" xmlns="http://www.w3.org/2000/svg" xmlns:xlink="http://www.w3.org/1999/xlink" x="0px" y="0px"
	 viewBox="0 0 100 100" style="enable-background:new 0 0 100 100;" xml:space="preserve">
<style type="text/css">
	.st0{fill:#7DB942;}
	.st1{fill:#4293B7;}
	.st2{fill:#E8DC4E;}
	.st3{fill:#EFEFEF;}
	.st4{fill:#422B1D;}
	.st5{fill:#333232;}
	.st6{fill:#D1C3C3;}
	.st7{fill:#E33D3D;}
</style>
<g id="Layer_2">
	<path class="st1" d="M82.8,50.1c-0.2-0.7-0.4-1.4-0.6-2.1c-0.1-0.3-0.1-0.7-0.3-1.1c-0.1-0.2-0.2-0.5-0.3-0.7
		c-2-5.2-5.3-10.2-8.4-14.4c-6.3-8.4-21.7-15.1-31.9-9.7c-4.2,2.3-7,6.5-9.5,10.6c-0.8-0.3-1.6-0.1-2.3,0.7c-2,2.5-3,5.2-3,8
		c-1.8,3.1-3.5,6.4-4.9,9.7c-0.6,0.5-0.8,1.2-0.8,1.9c-0.5,1.2-1,2.5-1.4,3.7c-1,3.1,3.8,4.4,4.8,1.3c0.3-0.8,0.6-1.7,0.9-2.5
		c17.1,0.3,34.2,0.9,51.3,1C80.9,56.6,84,55.3,82.8,50.1z M50.3,31.9c-0.4,0.6-0.8,1.3-1,2c0-0.7,0-1.3,0-2
		C49.7,31.9,50,31.9,50.3,31.9z M49.2,36.2c0,0.1,0.1,0.2,0.1,0.3c-0.1,0.1-0.1,0.2-0.2,0.3C49.2,36.6,49.2,36.4,49.2,36.2z M44,38
		c-0.1,1.3-0.3,2.6-0.6,3.9c-0.5,0.2-1,0.3-1.5,0.5C42.7,40.9,43.4,39.5,44,38z M62.2,40.2c0-0.1,0-0.3,0.1-0.4
		c0.2-0.1,0.4-0.2,0.7-0.3c-0.2,0.2-0.3,0.5-0.5,0.7C62.3,40.2,62.3,40.2,62.2,40.2z M32.2,47.4c0.6-1.1,1.1-2.1,1.7-3.1
		c0,0.8,0,1.6,0.1,2.4c0,0.1,0,0.3,0.1,0.4c-0.8,0.3-1.6,0.6-2.4,0.9C31.9,47.9,32.1,47.7,32.2,47.4z M65.9,45.9c0,0,0,0.1,0,0.1
		c0,0.1,0,0.2,0,0.3c-0.2,0-0.3-0.1-0.4-0.1C65.6,46.1,65.8,46,65.9,45.9z M43.3,27.5c-0.1-0.1-0.2-0.2-0.4-0.3
		c0.1-0.1,0.3-0.2,0.4-0.2C43.4,27.1,43.3,27.3,43.3,27.5z M28.5,48.1c0.4,0.3,0.9,0.5,1.4,0.5c-0.7,0.2-1.3,0.4-2,0.6
		C28.1,48.9,28.3,48.5,28.5,48.1z M64,51.1c0.3,0.1,0.6,0.1,0.9,0.2c-0.4,0-0.7,0-1.1,0C63.9,51.3,63.9,51.2,64,51.1z"/>
	<path class="st3" d="M79.3,70.5c-1.7-0.2-3.4-0.4-5.1-0.5c1.6-1.1,3.2-2.5,3.5-3.9c1.3-1.1,2-2.7,1.5-4.9c-1.5-5.4-10.6-3-14.4-2.9
		c-8.2,0.3-16.4,0.5-24.7,0.8c-4.3,0.1-8.6,0.3-12.9,0.4c-2.2,0.1-5-0.4-7,0.8c-2.8,1.6-3.1,6.3-1.3,9c-0.2,1.5,0.7,3.1,2.4,2.9
		c9.1-1,17.9,1.7,26.9,2.3c9.9,0.6,19.9-0.5,29.7,0.9C81.2,75.7,82.5,70.9,79.3,70.5z M47.2,68.2c-0.2,0.3-0.4,0.7-0.4,1.1
		c-1.5-0.1-3-0.3-4.5-0.6C43.9,68.5,45.5,68.4,47.2,68.2z M25.2,64.6c-0.8,0.5-1.5,0.9-2.3,1.3C22.8,65.1,23.9,64.8,25.2,64.6z"/>
</g>
<g id="Layer_1">
	<g>
		<g>
			<path class="st5" d="M85.2,75.5c0.3-14.4-0.3-31.7-8-44.4C70.9,20.8,55.2,16,43.7,18C30.1,20.2,25,32.6,21,44.2
				c-2.5,7.3-4.9,14.7-5.4,22.4c-0.2,2.3-0.7,6.1,0.7,8.2c1.4,2,3.9,1.8,6.1,1.8C42,77,61.8,76.9,81.5,77c3.2,0,3.2-5,0-5
				c-16.8-0.1-33.6-0.2-50.3-0.3c-2.3,0-4.6,0-6.9,0c-0.7,0-1.3,0-2,0c-1.8,0.6-2.4,0.2-1.9-1.4c-1.1-3.4,0.7-8.9,1.5-12.2
				c1.8-7.4,4.3-15.1,7.5-22.1c3.2-7,8.1-12.3,16.1-13.3c7.3-0.9,16.5,1.5,22.5,5.6c6.8,4.6,9,14.1,10.5,21.7
				c1.6,8.4,1.9,16.9,1.8,25.4C80.2,78.7,85.2,78.7,85.2,75.5L85.2,75.5z"/>
		</g>
	</g>
	<g>
		<g>
			<path class="st5" d="M18,60.2c20.3,0,40.5-0.1,60.8-0.1c3.2,0,3.2-5,0-5c-20.3,0-40.5,0.1-60.8,0.1C14.8,55.2,14.8,60.2,18,60.2
				L18,60.2z"/>
		</g>
	</g>
	<g>
		<g>
			<path class="st5" d="M29.1,68.3c1.8-3.4,6,1.4,8.9,1.5c4.4,0.1,7-4.2,11.4-4.1C57.9,66,65.5,72,74.1,69c3-1.1,1.7-5.9-1.3-4.8
				c-10.1,3.5-20.7-7.5-30.4-1.5c-2.5,1.5-3.7,2.4-6.4,0.9c-1.3-0.8-2.1-1.5-3.7-1.7c-3.2-0.4-6,1.2-7.6,4
				C23.2,68.6,27.6,71.1,29.1,68.3L29.1,68.3z"/>
		</g>
	</g>
</g>
</svg>
