<?xml version="1.0" encoding="utf-8"?>
<!-- Generator: Adobe Illustrator 19.2.1, SVG Export Plug-In . SVG Version: 6.00 Build 0)  -->
<svg version="1.1" xmlns="http://www.w3.org/2000/svg" xmlns:xlink="http://www.w3.org/1999/xlink" x="0px" y="0px"
	 viewBox="0 0 100 100" style="enable-background:new 0 0 100 100;" xml:space="preserve">
<style type="text/css">
	.st0{fill:#7DB942;}
	.st1{fill:#4293B7;}
	.st2{fill:#E8DC4E;}
	.st3{fill:#EFEFEF;}
	.st4{fill:#422B1D;}
	.st5{fill:#333232;}
	.st6{fill:#D1C3C3;}
	.st7{fill:#E33D3D;}
</style>
<g id="Layer_2">
	<g>
		<g>
			<path class="st0" d="M44,56.3c1-2.2,1.9-4.4,2.9-6.6c-1.1-0.3-2.2-0.6-3.3-0.9c0,1.3,0.5,5.9-1.2,6.5c0.6,1,1.1,1.9,1.7,2.9
				c4.9-5.6,6.6-12.4,8-19.6c0.4-2.2-2.5-3-3.4-0.9c-1.3,3.3-2.4,6.7-3.1,10.2c-0.4,1.7,1.6,2.9,2.9,1.7c4.9-4.5,8.2-9.9,10-16.3
				c0.5-1.8-2.4-3.2-3.2-1.3c-1.5,3.4-3.1,6.7-5.1,9.8c1.1,0.4,2.1,0.9,3.2,1.3c1-6,2.6-11.8,4.3-17.6c0.5-1.6-1.8-3.1-2.9-1.7
				c-2.4,3-3.6,6.3-3.2,10.2c0.1,1.4,1.9,2.5,3,1.2c2.8-3.2,3.8-6.9,4.6-10.9c-1.1,0-2.2,0-3.4,0c0.1,1.2,0.1,2.3,0.2,3.5
				c1.1,0.2,2.3,0.3,3.4,0.5c0.1-3.9-0.2-7.7-1-11.5c-0.3-1.5-2.5-1.7-3.2-0.4c-1.9,3.5-3.6,7.1-5.3,10.6c1.1,0.1,2.1,0.3,3.2,0.4
				c-0.3-1.7-0.7-3.5-1-5.2c-0.3-1.5-2.5-1.6-3.2-0.4c-1.1,1.9-2.2,3.7-3.3,5.6c1.1,0.3,2.2,0.6,3.3,0.9c0.1-2.2,0.4-4.4,0.9-6.6
				c-1.1-0.3-2.2-0.6-3.4-0.9c-0.3,1.5-0.6,2.9-0.9,4.4c-0.5,2.2,2.7,3.1,3.4,0.9c0.3-0.9,0.6-1.8,0.9-2.7c0.7-1.4,0.7-1.7,0-1
				c1.1-0.3,4.8,1.9,5.9,2.3c1.8,0.7,3.2-2.4,1.3-3.2c-3-1.4-7.6-6.8-10.2-1.4c-1,2,2.1,3.8,3,1.8c0.3-0.7,4.6,2.3,5.4,2.7
				c0.4-1.1,0.9-2.1,1.3-3.2c-2.1-0.8-6-3.4-8.2-2.3c-1.9,0.9-2.2,4.4-2.8,6.1c1.1,0.3,2.2,0.6,3.4,0.9c0.3-1.5,0.6-2.9,0.9-4.4
				c0.5-2.2-2.9-3.1-3.4-0.9c-0.6,2.5-0.9,4.9-1,7.5c-0.1,1.8,2.4,2.3,3.3,0.9c1.1-1.9,2.2-3.7,3.3-5.6c-1.1-0.1-2.1-0.3-3.2-0.4
				c0.3,1.7,0.7,3.5,1,5.2c0.3,1.4,2.6,1.8,3.2,0.4c1.7-3.6,3.4-7.2,5.3-10.6c-1.1-0.1-2.1-0.3-3.2-0.4c0.7,3.5,0.9,7,0.8,10.6
				c-0.1,1.9,3,2.4,3.4,0.5c0.4-2,0.4-3.4-0.2-5.3c-0.5-1.6-3-1.8-3.4,0c-0.7,3.4-1.4,6.7-3.7,9.4c1,0.4,2,0.8,3,1.2
				c-0.3-3,0.3-5.4,2.2-7.7c-1-0.6-1.9-1.1-2.9-1.7c-1.7,5.8-3.4,11.6-4.3,17.6c-0.3,1.9,2.1,3.1,3.2,1.3c1.9-3.2,3.6-6.4,5.1-9.8
				c-1.1-0.4-2.1-0.9-3.2-1.3C53.5,38.1,50.4,43,46,47.1c1,0.6,1.9,1.1,2.9,1.7c0.8-3.5,1.8-6.8,3.1-10.2c-1.1-0.3-2.2-0.6-3.4-0.9
				c-1.3,6.4-2.6,12.9-7.1,18c-1,1.2-0.1,3.6,1.7,2.9c4-1.5,3.9-6.1,3.8-9.9c0-1.6-2.5-2.6-3.3-0.9c-1,2.2-1.9,4.4-2.9,6.6
				C40,56.5,43.1,58.3,44,56.3L44,56.3z"/>
		</g>
	</g>
	<g>
		<g>
			<path class="st0" d="M48.3,23.4c2.3,0,2.3-3.5,0-3.5C46.1,19.9,46.1,23.4,48.3,23.4L48.3,23.4z"/>
		</g>
	</g>
	<g>
		<g>
			<g>
				<path class="st0" d="M49,22c-0.1,0.4-0.2,0.8-0.2,1.2C48.6,24.1,49,25,50,25.3c0,0,0.1,0,0.1,0c1.2,0.3,2.1-0.6,2.2-1.7
					c0-0.4,0.1-0.8,0.1-1.2c0.1-0.9-0.9-1.8-1.8-1.8c-1,0-1.6,0.8-1.8,1.8c0,0.4-0.1,0.8-0.1,1.2c0.7-0.6,1.5-1.1,2.2-1.7
					c0,0-0.1,0-0.1,0c0.4,0.7,0.8,1.4,1.2,2.2c0.1-0.4,0.2-0.8,0.2-1.2c0.2-0.9-0.3-1.9-1.2-2.2C50.3,20.5,49.2,21,49,22z"/>
			</g>
		</g>
		<g>
			<g>
				<path class="st0" d="M38.4,43.5c0.5,0.9,1,1.8,1.6,2.7c0.9,1.4,2.6,1,3.2-0.4c0.9-2.3,0-2.1-0.9-3.8c-0.4-0.8-0.5,0-0.1-0.6
					c0.2-0.3,0.8-0.6,1.1-0.8c0.8-0.7,1.5-1.3,1.9-2.3c0.5-1.1,0.1-2.2-1-2.6c-2.1-0.7-5.9-1.7-7.4,0.5c-1.4,2,0.5,5,1.4,6.8
					c0.9-0.7,1.8-1.4,2.7-2.1c-0.9-1-1.4-1.9-1.7-3.1c-0.6-2.2-3.8-1.3-3.4,0.9c0.8,4.4,1.4,8.9,1.7,13.3c0.1,1.9,2.9,2.4,3.4,0.5
					c0.6-1.9,1.8-4,2-5.9c0.2-1.5-0.9-3-1.3-4.4c-0.6-2.2-4-1.2-3.4,0.9c0.4,1.5,1.1,2.5,0.7,4c-0.4,1.5-1,3-1.4,4.4
					c1.1,0.2,2.3,0.3,3.4,0.5c-0.3-4.8-0.9-9.5-1.8-14.3c-1.1,0.3-2.2,0.6-3.4,0.9c0.5,1.9,1.3,3.3,2.6,4.7c1.4,1.5,3.6-0.4,2.7-2.1
					c-0.2-0.4-1.4-2.9-1.5-2.8c-0.6,0-0.3,0,0.8,0c0.9,0.1,1.8,0.3,2.7,0.6c-0.3-0.9-0.7-1.7-1-2.6c-0.9,2-3.4,2.5-3.9,4.8
					c-0.2,0.8-0.1,1.5,0.3,2.2c0.2,0.4,0.6,0.5,0.9,0.8c0.6,0.7,0.8-0.3,0.4,0.7c1.1-0.1,2.1-0.3,3.2-0.4c-0.6-0.9-1.1-1.8-1.6-2.7
					C40.4,39.8,37.3,41.5,38.4,43.5z"/>
			</g>
		</g>
		<g>
			<g>
				<path class="st0" d="M60.9,30.2c-0.7-5.1-5.4-6.8-9.9-8.2c-1.2-0.4-2.1,0.6-2.2,1.7c-0.3,2.7-0.6,5.4-0.9,8
					c1.1-0.2,2.3-0.3,3.4-0.5c0-0.2-0.1-0.4-0.1-0.5c-0.3-1.8-2.9-1.6-3.4,0c-0.3,1.1-0.6,2.1-0.9,3.2c1.1,0.2,2.3,0.3,3.4,0.5
					c0.4-3.4,1-6.8,1.7-10.2c0.2-0.9-0.3-1.9-1.2-2.2c-0.3-0.1-0.5-0.2-0.8-0.2c-0.7-0.2-1.6,0.1-2,0.8c-1.2,2.5-2.4,5.1-3.7,7.6
					c1.1,0.3,2.2,0.6,3.3,0.9c0-3,0.1-5.9,0.1-8.9c0-2.3-3.4-2.2-3.5,0C44,28,42.7,34.7,43.5,40.4c0.1,0.5,0.7,1.1,1.2,1.2
					c2.3,0.4,3.2-0.8,4.4-2.7C48,38.5,47,38,45.9,37.6c-1.2,4.2-2.4,8.4-3.7,12.6c1.1,0,2.2,0,3.4,0c-0.5-3-0.7-5.9-0.5-9
					c0.1-1.7-2.5-2.5-3.3-0.9c-0.7,1.4-0.9,3.3-1.5,4.6c1,0,2,0,3,0c-0.1-0.2-0.2-0.3-0.3-0.5c-0.9-1.4-2.6-1-3.2,0.4
					c-0.7,1.6,0,2.5,0.4,4.3c0.7,3.1,0.8,6,0.6,9.1c-0.1,1.3,1.2,1.8,2.2,1.7c2.5-0.4,5.3-1.1,6.6-3.5c1.7-3.1,0.7-6.7,2.6-9.9
					C55.6,41.1,60.8,37,60.9,30.2c0-2.3-3.5-2.3-3.5,0c-0.1,5.5-4.5,9.3-7.4,13.6c-1.2,1.7-2.2,3.6-2.7,5.7c-0.8,3.3-1,6.5-5.1,7.1
					c0.7,0.6,1.5,1.1,2.2,1.7c0.2-2.4,0.2-4.7-0.2-7c-0.2-1.2-1.5-4.3-1-5.4c-1.1,0.1-2.1,0.3-3.2,0.4c0.1,0.2,0.2,0.3,0.3,0.5
					c0.6,1,2.4,1.3,3,0c0.7-1.5,0.7-3,1.5-4.6c-1.1-0.3-2.2-0.6-3.3-0.9c-0.2,3.4,0.1,6.6,0.7,9.9c0.3,1.8,2.9,1.6,3.4,0
					c1.2-4.2,2.4-8.4,3.7-12.6c0.6-1.9-2.2-3-3.2-1.3c0.3,0.1,0.6,0.2,0.9,0.3c0-0.6,0.1-1.3,0.1-1.9c0.3-1.5,0.2-3.3,0.3-4.8
					c0.2-2.9,0.3-5.8,0.5-8.6c-1.2,0-2.3,0-3.5,0c0,3-0.1,5.9-0.1,8.9c0,1.7,2.5,2.5,3.3,0.9c1.2-2.5,2.4-5.1,3.7-7.6
					c-0.7,0.3-1.3,0.5-2,0.8c0.3,0.1,0.5,0.2,0.8,0.2c-0.4-0.7-0.8-1.4-1.2-2.2c-0.8,3.7-1.4,7.4-1.8,11.2c-0.3,2,2.9,2.3,3.4,0.5
					c0.3-1.1,0.6-2.1,0.9-3.2c-1.1,0-2.2,0-3.4,0c0,0.2,0.1,0.4,0.1,0.5c0.4,2.1,3.3,1.4,3.4-0.5c0.3-2.7,0.6-5.4,0.9-8
					c-0.7,0.6-1.5,1.1-2.2,1.7c2.2,0.7,6.9,1.9,7.3,4.9C57.7,32.4,61.2,32.4,60.9,30.2z"/>
				<path class="st0" d="M50,38c0.1-1.1,0.8-2,1.4-3c-1,0-2,0-3,0c0.1,0.1,0.2,0.3,0.3,0.4c1.1,1.7,3.5,0.6,3.2-1.3
					c0-0.2-0.1-0.4-0.1-0.6c-0.1,0.4-0.1,0.9-0.2,1.3c0.6-1,1.2-2,1.8-2.9c-1.1-0.4-2.1-0.9-3.2-1.3c-0.5,2.3-1.5,4.4-3.1,6.3
					c-1.5,1.7,1,4.2,2.5,2.5c2-2.3,3.4-4.9,4-7.8c0.4-1.9-2.1-3.1-3.2-1.3c-0.5,0.8-1,1.7-1.5,2.5c-0.5,0.9-0.5,1.4-0.3,2.4
					c1.1-0.4,2.1-0.9,3.2-1.3c-0.1-0.1-0.2-0.3-0.3-0.4c-0.7-1.1-2.3-1.2-3,0c-0.5,0.8-1,1.5-1.4,2.3c-0.4,0.8-0.4,1.6-0.5,2.4
					C46.3,40.2,49.8,40.2,50,38z"/>
			</g>
		</g>
	</g>
</g>
<g id="Layer_1">
	<g>
		<g>
			<path class="st5" d="M53,59.1c1.1-9.3,8.5-15,11.2-23.6c2-6.5,3.8-15.1-2.1-20c-5.3-4.4-14.9-4.8-19.5,0.6
				c-5,5.8-6.3,13.8-4.9,21.2c2-0.8,3.9-1.7,5.9-2.5c-2.6-3.8-8.5-5.5-12.9-4.1c-4.1,1.3-6.9,6.5-3.4,10c2.3,2.3,5.2,1,7.1,4.5
				c1.9,3.5,1.1,8,1.2,11.8c0.1,2.3,0.1,5.2,2.2,6.6c3.1,2.1,7.1-0.8,10.2,1c3.6,2.1,6.9-3.5,3.3-5.6c-1.5-0.9-2.7-1.4-4.5-1.5
				c-2.1-0.2-4.4,0.9-6.5,0.2c0.8,0.8,1.5,1.5,2.3,2.3c-2.2-5.8,0.6-12.3-2.6-18.1c-1.1-2-2.7-3.9-4.8-5c-0.8-0.5-1.7-0.7-2.6-1
				c-2.5-0.8,5.1,1.7,5.4,2.2c2.1,3.1,6.6,1.1,5.9-2.5c-1.1-5.8,0.2-14.8,6.9-16.8c4.4-1.3,8.9,2,8.9,6.3c0,2.6-0.8,5.5-1.5,8
				c-1.5,5.3-5,8.8-7.7,13.4c-2.3,3.9-3.4,8.2-4,12.7C46,63.2,52.5,63.2,53,59.1L53,59.1z"/>
		</g>
	</g>
	<g>
		<g>
			<path class="st5" d="M21.1,80.7c4.9-0.3,9.7-0.5,14.6-0.8c5.1-0.3,10,0.7,15,0.6c4-0.1,8-2.3,11.9-1.9c4.8,0.5,9.2,1.5,14.1,1.1
				c4.1-0.3,4.2-6.8,0-6.5c-4.8,0.3-9-0.6-13.7-1.1c-4.3-0.5-8.1,1.7-12.3,1.9c-4.7,0.2-9.3-0.9-14.1-0.6
				c-5.2,0.3-10.3,0.6-15.5,0.9C16.9,74.5,16.9,80.9,21.1,80.7L21.1,80.7z"/>
		</g>
	</g>
</g>
</svg>
