<?xml version="1.0" encoding="utf-8"?>
<!-- Generator: Adobe Illustrator 19.2.1, SVG Export Plug-In . SVG Version: 6.00 Build 0)  -->
<svg version="1.1" xmlns="http://www.w3.org/2000/svg" xmlns:xlink="http://www.w3.org/1999/xlink" x="0px" y="0px"
	 viewBox="0 0 100 100" style="enable-background:new 0 0 100 100;" xml:space="preserve">
<style type="text/css">
	.st0{fill:#7DB942;}
	.st1{fill:#4293B7;}
	.st2{fill:#E8DC4E;}
	.st3{fill:#EFEFEF;}
	.st4{fill:#422B1D;}
	.st5{fill:#333232;}
	.st6{fill:#D1C3C3;}
	.st7{fill:#E33D3D;}
</style>
<g id="Layer_2">
	<path class="st7" d="M88.5,38.6c-0.2-0.8-0.9-1.5-1.7-1.7c-4.3-1.1-9.4-0.4-13.8-0.4c-5.3,0-10.7,0-16,0c-10.7,0-21.3,0-32,0
		c-3.2,0-3.2,5,0,5c0.9,0,1.8,0,2.7,0c-0.9,1.5-2.5,2.3-3,4.1c-0.7,2.6,0.6,7.2,1.3,9.7c0.6,2.4,1.7,6.7,4.2,8.1
		c0.1,1.4,0.1,2.9,0.2,4.3c0.1,2.6,3.2,3.2,4.7,1.3c0.8,0.5,1.9,0.5,2.5,0c0.1,0,0.1-0.1,0.2-0.1c0.1,0.8,0.2,1.6,0.3,2.4
		c0.2,1.3,1.9,2.1,3.1,1.7c1.2-0.4,1.9-0.8,2.9-1.6c0.4-0.3,0.7-0.6,0.9-0.9c0.3,0,0.5,0.1,0.8,0.1c0,0.3,0,0.7,0.1,1.3
		c0.1,2.4,3.1,3.3,4.5,1.5c0.4,1.5,0.6,3.1,0.9,4.6c0.4,2.3,3.5,2.2,4.6,0.6c0.4-0.5,0.7-1,1.1-1.4c0.1,0.4,0.1,0.9,0.2,1.3
		c0.3,1.8,3.1,2.5,4.2,1.1c2.4-3,4.7-6.1,6.9-9.3c1,0.4,2.3,0.3,3.1-0.9c0.1-0.2,0.2-0.3,0.4-0.5c2.2-1.7,4.1-3.5,5.9-5.5
		c1.1,0.7,2.9,0.6,3.7-0.7c2-3.2,3.3-6.4,3.9-10.1c0-0.3,0-0.5,0-0.7c0.8-1.7,1.2-3.4,1.3-5.3c0-0.1,0-0.3,0.1-0.4
		c0-0.2,0-0.4,0-0.5C87.9,43.4,89.2,41.2,88.5,38.6z M83.5,41.3c-0.1,0.3-0.3,0.6-0.5,0.9c0,0-0.1,0-0.1,0c0.1-0.3,0.2-0.7,0.4-1
		C83.3,41.3,83.4,41.3,83.5,41.3z M51.3,64.1c0.5-0.6,1-1.2,1.6-1.8c-0.2,0.4-0.3,0.8-0.3,1.2C52.1,63.7,51.7,63.9,51.3,64.1z
		 M59.2,45.1c-0.3,0.4-0.5,0.8-0.8,1.2c0-0.3,0-0.5,0-0.8C58.7,45.4,58.9,45.2,59.2,45.1C59.2,45.1,59.2,45.1,59.2,45.1z M39.9,53.5
		c0.1,0.2,0.2,0.4,0.3,0.5c-0.7,1.5-1.4,2.9-2,4.4c-0.4-0.5-0.7-1-1-1.5C38.2,55.8,39.1,54.6,39.9,53.5z M63.9,50.4
		c-0.2,0.2-0.3,0.4-0.5,0.6c0-0.1,0.1-0.2,0.1-0.3C63.7,50.6,63.8,50.5,63.9,50.4z M38.6,46.8c0.2-0.7,0.4-1.5,0.6-2.2
		c0.3,0,0.6,0.1,0.9,0.1C39.6,45.5,39.1,46.1,38.6,46.8z M44.9,60.8c-0.3,1.2-0.6,2.3-0.9,3.5c-0.1-0.1-0.2-0.1-0.2-0.1
		c-0.3-0.2-0.6-0.4-0.8-0.7C43.5,62.6,44.2,61.7,44.9,60.8z M53.9,68.3c0,0.1-0.1,0.2-0.1,0.3c-0.1-0.1-0.1-0.1-0.2-0.2
		C53.7,68.4,53.8,68.4,53.9,68.3z"/>
	<path class="st3" d="M85.8,21.9C85,19.7,84,18.4,81.6,18c-4.5-0.7-9.9,0.2-14.4,0.4c-3.4,0.1-6.8,0.2-10.3,0.2
		c-0.6-1.1-2-1.8-3.4-1c-0.7,0.4-1.3,0.7-2,1.1c-2.1,0-4.1,0.1-6.2,0.2c-0.7-0.8-1.9-1.1-3.1-0.5c-0.4,0.2-0.8,0.5-1.2,0.7
		c-1,0-1.9,0.1-2.9,0.1c-0.5-1.4-2-2.6-3.5-1.5c-1.1,0.8-2.2,1.6-3.2,2.4c-0.1-1.5-1.4-2.8-3.1-2.3c-2.5,0.8-4.5,2-6.4,3.8
		c-1.8,1.7-0.1,4.2,1.8,4.2c-0.3,1.6,0.8,3.2,2.3,3.2c-0.1,0.5-0.2,1.1-0.2,1.7c-0.1,1.4,1.3,2.4,2.5,2.5c6.8,0.3,13.6,0.4,20.5,0.3
		c0.4,1.3,1.9,2.3,3.5,1.4c0.9-0.5,1.9-1,2.8-1.6c0.3,0,0.5,0,0.8,0c2.1-0.1,4.2-0.2,6.3-0.3c0.6,0.7,1.6,1.1,2.5,0.7
		c1-0.4,2-0.7,3-1.1c0.6,0,1.3-0.1,1.9-0.1c0.2,0,0.4,0,0.6,0c0.1,1.3,1.1,2.5,2.5,2.4c2.4-0.1,3.4-0.2,4.5-2.6
		c-0.7,1.6,0.1,3.9,2.2,3.8C86.6,35.3,88.1,27.8,85.8,21.9z M45.9,27.3c-0.1,0.4-0.1,0.8,0,1.2c-0.8,0-1.6,0-2.5,0
		C44.3,28.1,45.1,27.7,45.9,27.3z"/>
</g>
<g id="Layer_1">
	<g>
		<g>
			<path class="st5" d="M20,20.4c22.3-2.6,44.7,0.1,67-1.3c-0.8-0.8-1.7-1.7-2.5-2.5c1.2,14,4.9,31.8-4.7,43.5
				c-4.4,5.4-10.2,8.8-15.6,13c-4.6,3.6-7.7,8.1-9.9,13.5c1.6,0.2,3.3,0.4,4.9,0.7c0.8-15.8-19.3-12.9-27-21.2
				c-5.3-5.9-5.5-14.4-5.8-21.9c-0.3-8.4-0.6-16.8-0.8-25.2c-0.1-3.2-5.1-3.2-5,0c0.3,8.4,0.5,16.8,0.8,25.2
				c0.2,6.5,0.5,13.2,3.2,19.2c2.2,4.9,5.8,8.7,10.8,10.9c6.4,2.8,19.2,3.5,18.7,13c-0.2,3,3.9,3.1,4.9,0.7
				c5.4-13.2,21.1-17.3,28-29.7c3-5.5,3.8-11.3,3.7-17.5c-0.1-8.1-0.7-16.2-1.3-24.2c-0.1-1.3-1.1-2.6-2.5-2.5
				c-22.3,1.5-44.7-1.2-67,1.3C16.8,15.8,16.8,20.8,20,20.4L20,20.4z"/>
		</g>
	</g>
	<g>
		<g>
			<path class="st5" d="M88,33c-20.7,0-41.3,0-62,0c-3.2,0-3.2,5,0,5c20.7,0,41.3,0,62,0C91.2,38,91.2,33,88,33L88,33z"/>
		</g>
	</g>
	<g>
		<g>
			<path class="st5" d="M37.2,28.5c2.7-1.9,8.3,0.9,11.3,1.3c4,0.5,8.2,0.8,12.3,0.7c3.6,0,7.8-1.7,11.3-1.2
				c2.8,0.3,4.3,1.4,7.1,0.1c2.9-1.4,0.4-5.7-2.5-4.3c-1.3,0.6-3.8-0.9-5.3-0.9c-1.1,0-2.1,0.3-3.1,0.4c-4.7,0.8-8.8,1-13.5,0.8
				c-4.4-0.2-8.3-1.1-12.6-2.1c-2.7-0.6-5-0.7-7.4,0.9C32.1,26,34.6,30.3,37.2,28.5L37.2,28.5z"/>
		</g>
	</g>
</g>
</svg>
